<?xml version="1.0" standalone="no"?>
<!DOCTYPE svg PUBLIC "-//W3C//DTD SVG 1.1//EN" "http://www.w3.org/Graphics/SVG/1.1/DTD/svg11.dtd" >
<svg xmlns="http://www.w3.org/2000/svg">
<metadata>
Created by FontPrep 20130207 at Thu Jun 25 00:34:59 2015
 By koleslaw
Copyright (c) 2015 by Kosal Sen, Philatype. All rights reserved.
</metadata>
<defs>
<font id="383d9e4b6486cde93cda315beb8002b1" horiz-adv-x='1024' >
  <font-face 
    font-family="Sen-ExtraBold"
    font-weight="800"
    font-stretch="normal"
    units-per-em="2048"
    panose-1="0 0 9 0 0 0 0 0 0 0"
    ascent="1638"
    descent="-410"
    x-height="1020"
    cap-height="1340"
    bbox="-60 -510 2002 1840"
    underline-thickness="100"
    underline-position="-100"
    unicode-range="U+0020-2265"
  />
<missing-glyph horiz-adv-x="1000" 
d="M100 1210v-1020l340 510zM160 100h680l-340 510zM560 700l340 -510v1020zM500 790l340 510h-680zM0 0v1400h1000v-1400h-1000z" />
    <glyph glyph-name="tt" unicode="tt" horiz-adv-x="1752" 
d="M596 464q0 -160 134 -160q72 0 146 44v-268q-84 -110 -270 -110q-148 0 -251 100t-103 268v412h-172v210q108 28 199 119t133 241h184v-300h290q138 0 201 66t111 234h184v-300h268v-270h-268v-286q0 -160 134 -160q72 0 146 44v-268q-84 -110 -270 -110q-148 0 -251 100
t-103 268v412h-442v-286z" />
    <glyph glyph-name=".notdef" horiz-adv-x="1000" 
d="M100 1210v-1020l340 510zM160 100h680l-340 510zM560 700l340 -510v1020zM500 790l340 510h-680zM0 0v1400h1000v-1400h-1000z" />
    <glyph glyph-name=".null" horiz-adv-x="0" 
 />
    <glyph glyph-name="nonmarkingreturn" horiz-adv-x="682" 
 />
    <glyph glyph-name="space" unicode=" " horiz-adv-x="600" 
 />
    <glyph glyph-name="exclam" unicode="!" horiz-adv-x="680" 
d="M339 322q75 0 128 -53t53 -127t-53 -127t-127 -53t-127 53t-53 127t52 127t127 53zM482 480h-284v860h284v-860z" />
    <glyph glyph-name="quotedbl" unicode="&#x22;" horiz-adv-x="924" 
d="M804 802h-284v588h284v-588zM404 802h-284v588h284v-588z" />
    <glyph glyph-name="numbersign" unicode="#" horiz-adv-x="1700" 
d="M1016 756h-248l-66 -216h248zM1400 540v-260h-272l-86 -280h-256l84 280h-248l-86 -280h-256l84 280h-204v260h284l66 216h-210v280h294l92 304h262l-94 -304h246l92 304h262l-94 -304h180v-280h-266l-66 -216h192z" />
    <glyph glyph-name="dollar" unicode="$" horiz-adv-x="1146" 
d="M1040 434q0 -140 -98 -244t-256 -140v-138h-234v128q-178 24 -320 126v330q198 -150 390 -150q142 0 142 70q0 50 -108 82l-172 54q-258 82 -258 358q0 148 91 247t235 133v110h234v-100q174 -18 280 -90v-330q-70 40 -106 59t-100 37t-128 18q-148 0 -148 -78
q0 -23 9 -34q9 -10 15 -16t19 -13t21 -11t26 -11t28 -11t32 -12t32 -12l130 -50q124 -46 184 -131t60 -181z" />
    <glyph glyph-name="percent" unicode="%" horiz-adv-x="1648" 
d="M1266 368q-38 0 -65 -27t-27 -66t27 -66t65 -27t64 27t26 66t-26 66t-64 27zM1263 582q133 0 219 -89t86 -218t-85 -217t-219 -88t-219 88t-85 217t85 218t218 89zM386 1156q-38 0 -65 -27t-27 -66t27 -66t65 -27t64 27t26 66t-26 66t-64 27zM383 1370q133 0 219 -89
t86 -218t-85 -217t-219 -88t-219 88t-85 217t85 218t218 89zM1348 1326l-822 -1366l-220 114l816 1366z" />
    <glyph glyph-name="ampersand" unicode="&#x26;" horiz-adv-x="1550" 
d="M586 266q94 0 164 60q-62 66 -182 190q-110 -68 -110 -129t38 -91t90 -30zM584 979q0 -41 68 -123q112 62 112 128q0 34 -26 62t-67 28t-64 -27t-23 -68zM540 -30q-200 0 -330 103t-130 267q0 126 77 214t209 160q-140 150 -140 298t127 253t319 105t321 -105t129 -247
q0 -80 -50 -150t-92 -101q-92 -68 -158 -101l110 -122q56 74 100 156h356q-100 -176 -248 -372q212 -212 330 -328h-414q-38 38 -106 110q-168 -140 -410 -140z" />
    <glyph glyph-name="quotesingle" unicode="'" horiz-adv-x="524" 
d="M404 752h-284v588h284v-588z" />
    <glyph glyph-name="parenleft" unicode="(" horiz-adv-x="806" 
d="M444 484q0 -230 89 -488t213 -396h-302q-132 136 -228 383t-96 501t97 508t227 388h302q-122 -136 -212 -401t-90 -495z" />
    <glyph glyph-name="parenright" unicode=")" horiz-adv-x="826" 
d="M706 484q0 -254 -96 -501t-228 -383h-302q124 138 213 396t89 488t-90 495t-212 401h302q130 -134 227 -388t97 -508z" />
    <glyph glyph-name="asterisk" unicode="*" horiz-adv-x="996" 
d="M612 1244l184 78l80 -238l-194 -56l138 -172l-202 -146l-120 186l-120 -186l-202 146l138 172l-194 56l80 238l184 -78l-10 208h248z" />
    <glyph glyph-name="plus" unicode="+" horiz-adv-x="1100" 
d="M940 476h-240v-242h-300v242h-240v300h240v240h300v-240h240v-300z" />
    <glyph glyph-name="comma" unicode="," horiz-adv-x="568" 
d="M496 168l-220 -474l-244 32l180 498z" />
    <glyph glyph-name="hyphen" unicode="-" horiz-adv-x="842" 
d="M722 376h-602v300h602v-300z" />
    <glyph glyph-name="period" unicode="." horiz-adv-x="504" 
d="M251 322q75 0 128 -53t53 -127t-53 -127t-127 -53t-127 53t-53 127t52 127t127 53z" />
    <glyph glyph-name="slash" unicode="/" horiz-adv-x="948" 
d="M336 -400h-256l526 1810h262z" />
    <glyph glyph-name="zero" unicode="0" 
d="M600 1060q-142 0 -142 -390t142 -390t142 390t-142 390zM600 1370q254 0 390 -188t136 -512t-136 -512t-390 -188t-390 188t-136 512t136 512t390 188z" />
    <glyph glyph-name="one" unicode="1" 
d="M1076 330v-330h-926v330h282v530q-98 -80 -272 -130v370q242 86 364 240h282v-1010h270z" />
    <glyph glyph-name="two" unicode="2" 
d="M584 1370q212 0 344 -117t132 -301q0 -127 -28 -191q-28 -63 -38 -89t-57 -87t-62 -80t-86 -100t-91 -105h372v-300h-910v152q294 306 405 450t111 234t-48 137t-129 47t-171 -46t-148 -116v380q68 58 180 95t224 37z" />
    <glyph glyph-name="three" unicode="3" 
d="M538 1370q212 0 357 -108t145 -278q0 -130 -73 -211t-187 -97q116 -22 188 -97t72 -203q0 -178 -154 -292t-371 -114t-341 94v326q140 -90 276 -90q92 0 149 34t57 106q0 106 -212 106h-100v272h100q12 0 44 -1t46 0t38 3q84 8 84 78t-60 106t-146 36q-136 0 -246 -104
v322q122 112 334 112z" />
    <glyph glyph-name="four" unicode="4" 
d="M612 596v176q-20 -28 -58 -84t-66 -92h124zM946 596h154v-300h-154v-296h-334v296h-516v260q298 338 568 784h282v-744z" />
    <glyph glyph-name="five" unicode="5" 
d="M970 1010h-446v-208q86 36 214 36t233 -100t105 -268q0 -248 -153 -374t-376 -126t-395 118v298q178 -86 303 -86t181 26t56 93t-57 106t-163 39t-254 -40v816h752v-330z" />
    <glyph glyph-name="six" unicode="6" 
d="M602 600q-62 0 -100 -44t-38 -106t38 -106t100 -44t100 44t38 106t-38 106t-100 44zM694 918q174 0 302 -124t128 -334t-152 -350t-366 -140t-370 143t-156 376t137 463t303 388h434q-46 -39 -143 -139q-109 -111 -169 -183q-61 -72 -100 -142q64 42 152 42z" />
    <glyph glyph-name="seven" unicode="7" 
d="M1118 1340v-144q-165 -331 -203 -409q-125 -264 -155 -390q-52 -217 -52 -397h-434q0 116 22 201t34 133t41 120t43 110q36 99 210 446h-478v330h972z" />
    <glyph glyph-name="eight" unicode="8" 
d="M599 564q-59 0 -95 -39t-36 -108t36 -107t95 -38t96 38t37 106t-37 108t-96 40zM600 1068q-52 0 -86 -36t-34 -98t34 -102t86 -40t86 40t34 102t-34 98t-86 36zM600 1370q190 0 316 -101t126 -275q0 -204 -174 -288q86 -32 150 -113t64 -189q0 -192 -140 -313t-342 -121
t-342 121t-140 313q0 108 64 189t150 113q-174 84 -174 288q0 174 126 275t316 101z" />
    <glyph glyph-name="nine" unicode="9" 
d="M582 740q62 0 100 44t38 106t-38 106t-100 44t-100 -44t-38 -106t38 -106t100 -44zM490 422q-174 0 -302 124t-128 334t152 350t366 140t370 -143t156 -376t-137 -463t-303 -388h-434q46 39 143 139q109 111 169 183q61 72 100 142q-64 -42 -152 -42z" />
    <glyph glyph-name="colon" unicode=":" horiz-adv-x="680" 
d="M339 322q75 0 128 -53t53 -127t-53 -127t-127 -53t-127 53t-53 127t52 127t127 53zM339 1122q75 0 128 -53t53 -127t-53 -127t-127 -53t-127 53t-53 127t52 127t127 53z" />
    <glyph glyph-name="semicolon" unicode=";" horiz-adv-x="750" 
d="M556 168l-220 -474l-244 32l180 498zM410 1122q74 0 127 -53t53 -127t-53 -127t-127 -53t-127 53t-53 127t53 127t127 53z" />
    <glyph glyph-name="less" unicode="&#x3c;" 
d="M1060 830l-492 -224l492 -250v-356l-940 552v102l940 532v-356z" />
    <glyph glyph-name="equal" unicode="=" horiz-adv-x="1102" 
d="M942 256h-782v300h782v-300zM942 686h-782v300h782v-300z" />
    <glyph glyph-name="greater" unicode="&#x3e;" 
d="M1060 654v-102l-940 -552v356l492 250l-492 224v356z" />
    <glyph glyph-name="question" unicode="?" horiz-adv-x="1220" 
d="M551 322q75 0 128 -53t53 -127t-53 -127t-127 -53t-127 53t-53 127t52 127t127 53zM570 1370q196 0 343 -114t147 -316q0 -74 -38 -137t-92 -104t-107 -76q-128 -85 -125 -145l2 -42h-314v80q0 48 55 102t120 95t120 96t55 113t-66 98t-160 40q-220 0 -350 -138v310
q158 138 410 138z" />
    <glyph glyph-name="at" unicode="@" horiz-adv-x="1588" 
d="M791 660q-67 0 -117 -40t-67 -118t15 -120t93 -42t104 39t67 145l24 104q-52 32 -119 32zM796 1224q310 0 516 -183t206 -485q0 -182 -105 -298t-277 -116q-80 0 -141 33t-83 73q-98 -106 -248 -106t-229 93t-63 263t130 276t248 106t198 -84l14 58h208l-86 -346
q-42 -168 70 -168q52 0 95 49t43 167q0 236 -137 346t-355 110t-361 -142t-143 -383t139 -366t352 -125t339 58l92 -174q-188 -94 -424 -94q-312 0 -518 193t-206 509t208 526t518 210z" />
    <glyph glyph-name="A" unicode="A" horiz-adv-x="1468" 
d="M834 480l-100 276l-102 -276h202zM946 180h-424l-66 -180h-436l620 1360h188l620 -1360h-436z" />
    <glyph glyph-name="B" unicode="B" horiz-adv-x="1412" 
d="M728 300q100 0 154 36t54 100q0 102 -206 102h-176v-214q74 -24 174 -24zM554 1010v-222h190q70 0 115 28t45 80t-46 83t-114 31h-190zM1332 378q0 -170 -161 -289t-401 -119q-134 0 -312 19t-278 41v1310h638q178 0 314 -106t136 -272q0 -192 -176 -274
q112 -40 176 -109t64 -201z" />
    <glyph glyph-name="C" unicode="C" horiz-adv-x="1224" 
d="M790 1370q218 0 354 -118v-362q-86 70 -159 100t-196 30t-224 -101t-101 -249t101 -249t224 -101t196 30t159 100v-362q-136 -118 -354 -118q-288 0 -499 191t-211 509t211 509t499 191z" />
    <glyph glyph-name="D" unicode="D" horiz-adv-x="1518" 
d="M554 990v-646q80 -24 184 -24q316 0 316 330q0 158 -92 249t-256 91h-152zM180 1340h546q188 0 347 -75t262 -231t103 -364q0 -302 -188 -501t-496 -199t-574 56v1314z" />
    <glyph glyph-name="E" unicode="E" horiz-adv-x="1316" 
d="M554 1030v-212h532v-280h-532v-218h602v-320h-976v1340h976v-310h-602z" />
    <glyph glyph-name="F" unicode="F" horiz-adv-x="1270" 
d="M554 1010v-228h476v-330h-476v-452h-374v1340h950v-330h-576z" />
    <glyph glyph-name="G" unicode="G" horiz-adv-x="1450" 
d="M1320 692v-514q-94 -96 -237 -152t-293 -56q-288 0 -499 191t-211 509t211 509t499 191q218 0 354 -118v-362q-86 70 -159 100t-196 30t-224 -101t-101 -249t101 -249t237 -101t196 60l2 312h320z" />
    <glyph glyph-name="H" unicode="H" horiz-adv-x="1588" 
d="M1408 1340v-1340h-374v480h-480v-480h-374v1340h374v-530h480v530h374z" />
    <glyph glyph-name="I" unicode="I" horiz-adv-x="1146" 
d="M760 1010v-680h226v-330h-826v330h226v680h-226v330h826v-330h-226z" />
    <glyph glyph-name="J" unicode="J" horiz-adv-x="768" 
d="M608 1344v-1250q0 -242 -147 -397t-397 -207l-124 324q294 64 294 294v1236h374z" />
    <glyph glyph-name="K" unicode="K" horiz-adv-x="1514" 
d="M554 0h-374v1340h374v-492l410 492h450l-484 -550l544 -790h-476l-322 504l-122 -138v-366z" />
    <glyph glyph-name="L" unicode="L" horiz-adv-x="1276" 
d="M554 330h602v-330h-976v1340h374v-1010z" />
    <glyph glyph-name="M" unicode="M" horiz-adv-x="1768" 
d="M1588 0h-374v700l-274 -300h-112l-274 300v-700h-374v1360h172l532 -560l532 560h172v-1360z" />
    <glyph glyph-name="N" unicode="N" horiz-adv-x="1584" 
d="M1404 -20h-132l-718 678v-658h-374v1360h132l718 -690v670h374v-1360z" />
    <glyph glyph-name="O" unicode="O" horiz-adv-x="1552" 
d="M776 1020q-134 0 -223 -100t-89 -250t89 -250t223 -100t223 100t89 250t-89 250t-223 100zM776 1370q186 0 342 -81t255 -243t99 -376t-99 -376t-255 -243t-342 -81t-342 81t-255 243t-99 376t99 376t255 243t342 81z" />
    <glyph glyph-name="P" unicode="P" horiz-adv-x="1340" 
d="M694 652q82 0 142 54t60 130t-56 115t-150 39h-156v-310q78 -28 160 -28zM160 1340h574q216 0 381 -140t165 -364t-150 -359t-356 -135q-136 0 -240 54v-396h-374v1340z" />
    <glyph glyph-name="Q" unicode="Q" horiz-adv-x="1630" 
d="M464 670q0 -150 89 -250t223 -100t223 100t89 250t-89 250t-223 100t-223 -100t-89 -250zM1510 -30v-312q-196 0 -400 80t-334 232q-186 0 -342 81t-255 243t-99 376t99 376t255 243t342 81t342 -81t255 -243t99 -381t-104 -382t-278 -245q122 -68 420 -68z" />
    <glyph glyph-name="R" unicode="R" horiz-adv-x="1396" 
d="M554 990v-250q78 -28 163 -28t142 36t57 109t-54 103t-152 30h-156zM554 0h-374v1340h574q222 0 384 -122t162 -344q0 -144 -83 -244t-219 -138l378 -492h-456l-366 534v-534z" />
    <glyph glyph-name="S" unicode="S" horiz-adv-x="1146" 
d="M586 1370q118 0 233 -29t185 -77v-362q-74 42 -116 63q-122 61 -252 61q-162 0 -162 -86q0 -31 17 -45.5t30 -22.5t23 -13t29 -13t30 -12t35 -13t36 -13l144 -54q136 -52 202 -145t66 -199q0 -190 -161 -315t-397 -125t-442 146v362q218 -164 430 -164q156 0 156 76
q0 54 -118 90l-190 60q-284 90 -284 394q0 202 149 319t357 117z" />
    <glyph glyph-name="T" unicode="T" horiz-adv-x="1262" 
d="M1212 1010h-394v-1004h-374v1004h-394v330h1162v-330z" />
    <glyph glyph-name="U" unicode="U" horiz-adv-x="1532" 
d="M1372 1344v-814q0 -256 -174 -408t-432 -152t-432 152t-174 408v814h374v-788q0 -108 58 -173t174 -63t174 65t58 171v788h374z" />
    <glyph glyph-name="V" unicode="V" horiz-adv-x="1468" 
d="M828 -20h-188l-620 1360h436l278 -736l278 736h436z" />
    <glyph glyph-name="W" unicode="W" horiz-adv-x="1948" 
d="M1492 0h-282l-234 710l-234 -710h-282l-440 1340h436l182 -696l208 696h256l212 -696l178 696h436z" />
    <glyph glyph-name="X" unicode="X" horiz-adv-x="1452" 
d="M1002 672l430 -672h-460l-246 410l-246 -410h-460l430 672l-430 668h460l246 -426l246 426h460z" />
    <glyph glyph-name="Y" unicode="Y" horiz-adv-x="1462" 
d="M918 0h-374v462l-524 878h436l276 -496l274 496h436l-524 -878v-462z" />
    <glyph glyph-name="Z" unicode="Z" horiz-adv-x="1394" 
d="M1274 330v-330h-1154v72l544 938h-544v330h1154v-72l-546 -938h546z" />
    <glyph glyph-name="bracketleft" unicode="[" horiz-adv-x="838" 
d="M778 1120h-324v-1260h324v-260h-638v1780h638v-260z" />
    <glyph glyph-name="backslash" unicode="\" horiz-adv-x="828" 
d="M858 -400h-256l-632 1740h262z" />
    <glyph glyph-name="bracketright" unicode="]" horiz-adv-x="858" 
d="M718 1380v-1780h-638v260h324v1260h-324v260h638z" />
    <glyph glyph-name="asciicircum" unicode="^" 
d="M1126 660h-336l-200 296l-174 -296h-336l422 680h182z" />
    <glyph glyph-name="underscore" unicode="_" horiz-adv-x="980" 
d="M980 -302h-980v300h980v-300z" />
    <glyph glyph-name="grave" unicode="`" horiz-adv-x="828" 
d="M668 1120h-244l-264 300h308z" />
    <glyph glyph-name="a" unicode="a" horiz-adv-x="1298" 
d="M618 714q-90 0 -139 -60t-49 -143t50 -138t128 -55t142 56t64 158v98q-106 84 -196 84zM530 1050q78 0 156 -35t128 -89v94h344v-1020h-344v170q-40 -88 -119 -144t-185 -56q-184 0 -312 140t-128 395t133 400t327 145z" />
    <glyph glyph-name="b" unicode="b" horiz-adv-x="1298" 
d="M690 702q-78 0 -142 -56t-64 -158v-98q104 -84 212 -84q74 0 123 60t49 143t-50 138t-128 55zM484 1440v-590q40 88 119 144t185 56q184 0 312 -140t128 -395t-133 -400t-327 -145q-78 0 -156 35t-128 89v-94h-344v1440h344z" />
    <glyph glyph-name="c" unicode="c" horiz-adv-x="944" 
d="M608 1050q72 0 133 -20t86 -37t77 -57v-300q-104 74 -250 74q-78 0 -146 -56t-68 -151t62 -149t152 -54q146 0 250 74v-300q-44 -34 -75 -52q-90 -52 -221 -52q-224 0 -381 159t-157 376t157 381t381 164z" />
    <glyph glyph-name="d" unicode="d" horiz-adv-x="1298" 
d="M618 714q-90 0 -139 -60t-49 -143t50 -138t128 -55t142 56t64 158v98q-106 84 -196 84zM1158 0h-344v170q-40 -88 -119 -144t-185 -56q-184 0 -312 140t-128 395t133 400t327 145q78 0 156 -35t128 -89v514h344v-1440z" />
    <glyph glyph-name="e" unicode="e" horiz-adv-x="1156" 
d="M780 612q0 68 -53 111t-125 43q-146 0 -188 -154h366zM1106 534v-114h-696q22 -74 87 -112t155 -38q196 0 316 68v-294q-118 -74 -341 -74t-390 145t-167 377t157 395t380 163t361 -141t138 -375z" />
    <glyph glyph-name="f" unicode="f" horiz-adv-x="866" 
d="M725 1174q-69 0 -109 -31t-40 -85v-38h232v-270h-232v-750h-344v750h-152v270h152v52q0 172 113 285t267 113t244 -50v-280q-62 34 -131 34z" />
    <glyph glyph-name="g" unicode="g" horiz-adv-x="1298" 
d="M618 714q-90 0 -139 -60t-49 -143t50 -138t128 -55t142 56t64 158v98q-106 84 -196 84zM530 1050q78 0 156 -35t128 -89v94h344v-990q0 -236 -178 -388t-416 -152t-436 108v304q86 -38 127 -53q134 -49 263 -49q130 0 213 69t83 159v142q-40 -88 -119 -144t-185 -56
q-184 0 -312 140t-128 395t133 400t327 145z" />
    <glyph glyph-name="h" unicode="h" horiz-adv-x="1256" 
d="M767 1050q165 0 262 -109t97 -311v-630h-344l-2 576q0 72 -39 105t-97 33q-94 0 -160 -98v-616h-344v1440h344v-552q118 162 283 162z" />
    <glyph glyph-name="i" unicode="i" horiz-adv-x="708" 
d="M588 1020v-1020h-344v740h-166v280h510zM405 1176q-87 0 -150 61t-63 147t63 147t150 61t152 -61t65 -146t-65 -147t-152 -62z" />
    <glyph glyph-name="j" unicode="j" horiz-adv-x="764" 
d="M590 1020v-1002q0 -408 -378 -528l-150 294q184 82 184 238v718h-166v280h510zM407 1176q-87 0 -151 61t-64 147t64 147t151 61t152 -61t65 -146t-65 -147t-152 -62z" />
    <glyph glyph-name="k" unicode="k" horiz-adv-x="1270" 
d="M484 0h-344v1440h344v-830l326 410h416l-410 -438l444 -582h-454l-202 356l-120 -128v-228z" />
    <glyph glyph-name="l" unicode="l" horiz-adv-x="624" 
d="M484 0h-344v1440h344v-1440z" />
    <glyph glyph-name="m" unicode="m" horiz-adv-x="1838" 
d="M1354 1050q160 0 257 -109t97 -311v-630h-344l-2 576q0 138 -130 138q-72 0 -136 -92v-622h-344l-2 576q0 138 -130 138q-70 0 -136 -98v-616h-344v1020h344v-132q40 56 66 84t77 53t115 25q216 0 308 -186q50 84 129 135t175 51z" />
    <glyph glyph-name="n" unicode="n" horiz-adv-x="1256" 
d="M767 1050q165 0 262 -109t97 -311v-630h-344l-2 576q0 72 -39 105t-97 33q-94 0 -160 -98v-616h-344v1020h344v-132q118 162 283 162z" />
    <glyph glyph-name="o" unicode="o" horiz-adv-x="1260" 
d="M630 720q-74 0 -132 -47t-58 -163t58 -163t132 -47t132 47t58 163t-58 163t-132 47zM630 1050q220 0 390 -156t170 -384t-170 -384t-390 -156t-390 156t-170 384t170 384t390 156z" />
    <glyph glyph-name="p" unicode="p" horiz-adv-x="1298" 
d="M690 702q-78 0 -142 -56t-64 -158v-98q104 -84 212 -84q74 0 123 60t49 143t-50 138t-128 55zM788 1050q184 0 312 -140t128 -395t-133 -400t-327 -145q-78 0 -156 35t-128 89v-574h-344v1500h344v-170q40 88 119 144t185 56z" />
    <glyph glyph-name="q" unicode="q" horiz-adv-x="1298" 
d="M618 714q-90 0 -139 -60t-49 -143t50 -138t128 -55t142 56t64 158v98q-106 84 -196 84zM530 1050q78 0 156 -35t128 -89v94h344v-1500h-344v650q-40 -88 -119 -144t-185 -56q-184 0 -312 140t-128 395t133 400t327 145z" />
    <glyph glyph-name="r" unicode="r" horiz-adv-x="902" 
d="M732 1040q74 0 130 -30v-382q-80 48 -166 48q-134 0 -212 -152v-524h-344v1020h344v-182q58 98 116 150t132 52z" />
    <glyph glyph-name="s" unicode="s" horiz-adv-x="912" 
d="M507 1050q197 0 311 -108v-270q-150 90 -260 90q-52 0 -87 -20t-35 -53t21 -47t87 -30l62 -16q266 -68 266 -286q0 -146 -125 -243t-293 -97q-216 0 -380 114v268q72 -46 163 -75t163 -29q112 0 112 64q0 26 -26 40t-98 38l-102 32q-216 66 -216 286q0 154 120 248
t317 94z" />
    <glyph glyph-name="t" unicode="t" horiz-adv-x="966" 
d="M596 464q0 -160 134 -160q72 0 146 44v-268q-84 -110 -270 -110q-148 0 -251 100t-103 268v412h-172v210q108 28 199 119t133 241h184v-300h268v-270h-268v-286z" />
    <glyph glyph-name="u" unicode="u" horiz-adv-x="1236" 
d="M1106 1020v-612q0 -204 -135 -321t-353 -117t-353 117t-135 321v612h344l2 -520q0 -106 33 -153t109 -47t109 47t33 153l2 520h344z" />
    <glyph glyph-name="v" unicode="v" horiz-adv-x="1222" 
d="M724 0h-222l-492 1020h396l206 -516l204 516h396z" />
    <glyph glyph-name="w" unicode="w" horiz-adv-x="1648" 
d="M1288 0h-266l-198 602l-198 -602h-270l-346 1020h356l150 -496l172 496h272l172 -496l150 496h356z" />
    <glyph glyph-name="x" unicode="x" horiz-adv-x="1264" 
d="M848 512l406 -512h-424l-198 282l-198 -282h-424l406 512l-386 508h390l212 -284l212 284h390z" />
    <glyph glyph-name="y" unicode="y" horiz-adv-x="1244" 
d="M1234 1020l-732 -1500h-384l322 568l-430 932h396l226 -542l218 542h384z" />
    <glyph glyph-name="z" unicode="z" horiz-adv-x="1128" 
d="M1038 280v-280h-938v72l420 668h-400v280h898v-72l-442 -668h462z" />
    <glyph glyph-name="braceleft" unicode="{" horiz-adv-x="988" 
d="M908 1120h-88q-116 0 -156 -53t-40 -137v-250q0 -122 -130 -190q130 -68 130 -190v-250q0 -84 40 -137t156 -53h88v-260h-248q-154 0 -252 105t-98 259v212q0 94 -29 129t-121 35v300q92 0 121 35t29 129v212q0 154 98 259t252 105h248v-260z" />
    <glyph glyph-name="bar" unicode="|" horiz-adv-x="580" 
d="M420 -400h-260v1810h260v-1810z" />
    <glyph glyph-name="braceright" unicode="}" horiz-adv-x="988" 
d="M80 1380h248q154 0 252 -105t98 -259v-212q0 -94 29 -129t121 -35v-300q-92 0 -121 -35t-29 -129v-212q0 -154 -98 -259t-252 -105h-248v260h88q116 0 156 53t40 137v250q0 122 130 190q-130 68 -130 190v250q0 84 -40 137t-156 53h-88v260z" />
    <glyph glyph-name="asciitilde" unicode="~" horiz-adv-x="1228" 
d="M864 892h244q0 -166 -86 -268t-226 -102q-76 0 -140 31t-114 62t-90 31t-64 -32t-24 -80h-244q0 166 86 268t226 102q76 0 140 -31t114 -62t91 -31t64 32t23 80z" />
    <glyph glyph-name="exclamdown" unicode="&#xa1;" horiz-adv-x="680" 
d="M198 -38v860h284v-860h-284zM339 980q-75 0 -127 52t-52 127t53 128t127 53t127 -53t53 -127t-53 -127t-128 -53z" />
    <glyph glyph-name="cent" unicode="&#xa2;" horiz-adv-x="944" 
d="M440 499q0 -111 86 -163v332q-86 -58 -86 -169zM760 -160h-234v136q-196 30 -326 182t-130 347t130 351t326 188v116h234v-134q54 -22 144 -90v-300q-70 48 -144 64v-390q74 16 144 64v-300q-84 -64 -144 -82v-152z" />
    <glyph glyph-name="sterling" unicode="&#xa3;" horiz-adv-x="1156" 
d="M674 826v-46h242v-260h-242v-14q0 -116 -94 -176h440v-330h-880v270q68 22 114 74t46 124v52h-160v260h160v98q0 226 142 354t332 128q82 0 154 -24t108 -58v-332q-90 66 -194 64q-64 -2 -116 -52t-52 -132z" />
    <glyph glyph-name="currency" unicode="&#xa4;" horiz-adv-x="1052" 
d="M396 514q0 -56 38 -90t92 -34t92 34t38 90t-38 90t-92 34t-92 -34t-38 -90zM908 514q0 -94 -46 -174l120 -124l-166 -158l-126 126q-80 -38 -164 -38t-164 38l-126 -126l-166 158l120 124q-46 82 -46 173t46 177l-120 124l166 156l126 -126q80 38 164 38t166 -38l126 126
l164 -158l-120 -124q46 -80 46 -174z" />
    <glyph glyph-name="yen" unicode="&#xa5;" horiz-adv-x="1462" 
d="M1182 642v-180h-264v-70h264v-180h-264v-212h-374v212h-262v180h262v70h-262v180h154l-416 698h436l276 -496l274 496h436l-416 -698h156z" />
    <glyph glyph-name="brokenbar" unicode="&#xa6;" horiz-adv-x="580" 
d="M420 -400h-260v832h260v-832zM420 578h-260v832h260v-832z" />
    <glyph glyph-name="section" unicode="&#xa7;" horiz-adv-x="1146" 
d="M474 481q0 -35 45 -63t141 -64q12 14 12 36q0 80 -118 122l-68 24q-12 -20 -12 -55zM1086 -10q0 -190 -161 -315t-397 -125t-442 146v362q218 -164 430 -164q156 0 156 76q0 54 -118 90l-190 60q-158 50 -221 145t-63 221t86 208q-86 84 -86 240q0 202 149 319t357 117
q118 0 233 -29t185 -77v-362q-74 42 -116 63q-122 61 -252 61q-162 0 -162 -86q0 -31 17 -45q17 -15 30 -23t23 -13t29 -13t30 -12t35 -13t36 -13l144 -54q268 -102 268 -324q0 -146 -88 -240q88 -80 88 -200z" />
    <glyph glyph-name="dieresis" unicode="&#xa8;" horiz-adv-x="1044" 
d="M743 1450q63 0 108 -45t45 -107t-45 -107t-107 -45t-107 45t-45 107t44 107t107 45zM323 1450q63 0 108 -45t45 -107t-45 -107t-107 -45t-107 45t-45 107t44 107t107 45z" />
    <glyph glyph-name="copyright" unicode="&#xa9;" horiz-adv-x="1728" 
d="M912 1114q58 0 108 -16t71 -31t61 -45v-244q-84 60 -202 60q-66 0 -120 -45t-54 -123t50 -121t146 -43t180 60v-244q-106 -84 -240 -84q-184 0 -311 129t-127 305t128 309t310 133zM864 1240q-252 0 -407 -159t-155 -411t155 -411t407 -159t407 159t155 411t-155 411
t-407 159zM864 1446q332 0 558 -227t226 -549t-226 -549t-558 -227t-558 227t-226 549t226 549t558 227z" />
    <glyph glyph-name="registered" unicode="&#xae;" horiz-adv-x="1728" 
d="M911 694q51 0 85 22t34 62q0 82 -122 82h-94v-148q46 -18 97 -18zM1426 680q0 242 -155 401t-407 159t-407 -159t-155 -411t155 -411t411 -159t416 172h-252l-218 316v-316h-222v794h342q132 0 227 -72t95 -204q0 -86 -49 -145t-129 -81l216 -280q132 154 132 396z
M864 1446q332 0 558 -227t226 -549t-226 -549t-558 -227t-558 227t-226 549t226 549t558 227z" />
    <glyph glyph-name="macron" unicode="&#xaf;" horiz-adv-x="1140" 
d="M940 1200h-740v220h740v-220z" />
    <glyph glyph-name="degree" unicode="&#xb0;" horiz-adv-x="826" 
d="M414 1130q-42 0 -73 -31t-31 -75t30 -75t73 -31t73 32t30 75t-30 74t-72 31zM414 1370q148 0 245 -101t97 -244t-97 -244t-245 -101t-246 101t-98 244t98 244t246 101z" />
    <glyph glyph-name="plusminus" unicode="&#xb1;" horiz-adv-x="1062" 
d="M902 260v-260h-742v260h742zM400 560h-240v260h240v200h260v-200h240v-260h-240v-202h-260v202z" />
    <glyph glyph-name="acute" unicode="&#xb4;" horiz-adv-x="728" 
d="M404 1120h-244l200 300h308z" />
    <glyph glyph-name="paragraph" unicode="&#xb6;" horiz-adv-x="1320" 
d="M956 -420v1508h-100v-1508h-190v884h-100q-216 0 -361 110t-145 330t144 328t362 108h574v-1760h-184z" />
    <glyph glyph-name="periodcentered" unicode="&#xb7;" horiz-adv-x="680" 
d="M339 884q75 0 128 -53t53 -127t-53 -127t-127 -53t-127 53t-53 128t52 127t127 52z" />
    <glyph glyph-name="cedilla" unicode="&#xb8;" horiz-adv-x="696" 
d="M556 -275q0 -87 -65 -146t-167 -59t-164 50l14 148q4 -2 29 -16t49 -25t54 -11t51 14t21 37t-18 36t-43 13t-59 -18l-48 24l24 232h148l-6 -96q80 2 130 -47t50 -136z" />
    <glyph glyph-name="questiondown" unicode="&#xbf;" horiz-adv-x="1220" 
d="M650 -398q-196 0 -343 114t-147 316q0 74 38 137t92 104t107 76q128 85 125 145l-2 42h314v-80q0 -48 -55 -102t-120 -95t-120 -96t-55 -113t66 -98t160 -40q220 0 350 138v-310q-158 -138 -410 -138zM669 650q-75 0 -128 53t-53 127t53 127t127 53t127 -53t53 -127
t-52 -127t-127 -53z" />
    <glyph glyph-name="Agrave" unicode="&#xc0;" horiz-adv-x="1468" 
d="M834 480l-100 276l-102 -276h202zM946 180h-424l-66 -180h-436l620 1360h188l620 -1360h-436zM614 1440l-264 300h308l200 -300h-244z" />
    <glyph glyph-name="Aacute" unicode="&#xc1;" horiz-adv-x="1468" 
d="M834 480l-100 276l-102 -276h202zM946 180h-424l-66 -180h-436l620 1360h188l620 -1360h-436zM806 1440h-244l200 300h308z" />
    <glyph glyph-name="Acircumflex" unicode="&#xc2;" horiz-adv-x="1468" 
d="M834 480l-100 276l-102 -276h202zM946 180h-424l-66 -180h-436l620 1360h188l620 -1360h-436zM650 1440h-264l240 300h208l240 -300h-264l-80 118z" />
    <glyph glyph-name="Atilde" unicode="&#xc3;" horiz-adv-x="1468" 
d="M834 480l-100 276l-102 -276h202zM946 180h-424l-66 -180h-436l620 1360h188l620 -1360h-436zM622 1494q-66 0 -66 -74h-188q0 134 73 206t166 72t163 -41t88 -41q66 0 66 74h188q0 -134 -73 -206t-166 -72t-163 41t-88 41z" />
    <glyph glyph-name="Adieresis" unicode="&#xc4;" horiz-adv-x="1468" 
d="M834 480l-100 276l-102 -276h202zM946 180h-424l-66 -180h-436l620 1360h188l620 -1360h-436zM940 1466q-62 0 -107 45t-45 107t44 107t107 45t108 -45t45 -107t-45 -107t-107 -45zM520 1466q-62 0 -107 45t-45 107t44 107t107 45t108 -45t45 -107t-45 -107t-107 -45z
" />
    <glyph glyph-name="Aring" unicode="&#xc5;" horiz-adv-x="1468" 
d="M834 480l-100 276l-102 -276h202zM946 180h-424l-66 -180h-436l620 1360h188l620 -1360h-436zM729 1676q-31 0 -54 -21t-23 -51t23 -51t54 -21t54 21t23 51t-23 51t-54 21zM730 1422q-80 0 -137 53t-57 129t57 129t137 53t136 -53t56 -129t-56 -129t-136 -53z" />
    <glyph glyph-name="AE" unicode="&#xc6;" horiz-adv-x="2162" 
d="M1026 540v364l-254 -364h254zM1400 1030v-212h532v-280h-532v-218h602v-320h-976v266h-444l-186 -266h-376l946 1340h1036v-310h-602z" />
    <glyph glyph-name="Ccedilla" unicode="&#xc7;" horiz-adv-x="1224" 
d="M789 1020q-123 0 -224 -101t-101 -249t101 -249t224 -101t196 30t159 100v-362q-134 -114 -342 -118l-4 -62q80 2 130 -47t50 -136t-65 -146t-167 -59t-164 50l14 148q4 -2 29 -16t49 -25t55 -11t51 14t20 37t-18 36t-43 13t-59 -18l-48 24l22 210q-246 44 -410 227
t-164 461q0 318 211 509t499 191q218 0 354 -118v-362q-86 70 -159 100t-196 30z" />
    <glyph glyph-name="Egrave" unicode="&#xc8;" horiz-adv-x="1316" 
d="M554 1030v-212h532v-280h-532v-218h602v-320h-976v1340h976v-310h-602zM552 1440l-264 300h308l200 -300h-244z" />
    <glyph glyph-name="Eacute" unicode="&#xc9;" horiz-adv-x="1316" 
d="M554 1030v-212h532v-280h-532v-218h602v-320h-976v1340h976v-310h-602zM744 1440h-244l200 300h308z" />
    <glyph glyph-name="Ecircumflex" unicode="&#xca;" horiz-adv-x="1316" 
d="M554 1030v-212h532v-280h-532v-218h602v-320h-976v1340h976v-310h-602zM588 1440h-264l240 300h208l240 -300h-264l-80 118z" />
    <glyph glyph-name="Edieresis" unicode="&#xcb;" horiz-adv-x="1316" 
d="M554 1030v-212h532v-280h-532v-218h602v-320h-976v1340h976v-310h-602zM878 1466q-62 0 -107 45t-45 107t45 107t107 45t107 -45t45 -107t-45 -107t-107 -45zM458 1466q-62 0 -107 45t-45 107t45 107t107 45t107 -45t45 -107t-45 -107t-107 -45z" />
    <glyph glyph-name="Igrave" unicode="&#xcc;" horiz-adv-x="1146" 
d="M760 1010v-680h226v-330h-826v330h226v680h-226v330h826v-330h-226zM458 1440l-264 300h308l200 -300h-244z" />
    <glyph glyph-name="Iacute" unicode="&#xcd;" horiz-adv-x="1146" 
d="M760 1010v-680h226v-330h-826v330h226v680h-226v330h826v-330h-226zM650 1440h-244l200 300h308z" />
    <glyph glyph-name="Icircumflex" unicode="&#xce;" horiz-adv-x="1146" 
d="M760 1010v-680h226v-330h-826v330h226v680h-226v330h826v-330h-226zM494 1440h-264l240 300h208l240 -300h-264l-80 118z" />
    <glyph glyph-name="Idieresis" unicode="&#xcf;" horiz-adv-x="1146" 
d="M760 1010v-680h226v-330h-826v330h226v680h-226v330h826v-330h-226zM784 1466q-62 0 -107 45t-45 107t44 107t107 45t108 -45t45 -107t-45 -107t-107 -45zM364 1466q-62 0 -107 45t-45 107t44 107t107 45t108 -45t45 -107t-45 -107t-107 -45z" />
    <glyph glyph-name="Eth" unicode="&#xd0;" horiz-adv-x="1518" 
d="M738 320q316 0 316 330q0 158 -92 249t-256 91h-152v-168h100v-300h-100v-178q80 -24 184 -24zM180 1340h546q188 0 347 -75t262 -231t103 -364q0 -302 -188 -501t-496 -199t-574 56v496h-128v300h128v518z" />
    <glyph glyph-name="Ntilde" unicode="&#xd1;" horiz-adv-x="1584" 
d="M1404 -20h-132l-718 678v-658h-374v1360h132l718 -690v670h374v-1360zM986 1690h188q0 -134 -73 -206t-166 -72t-163 41t-88 41q-66 0 -66 -74h-188q0 134 73 206t166 72t163 -41t88 -41q66 0 66 74z" />
    <glyph glyph-name="Ograve" unicode="&#xd2;" horiz-adv-x="1552" 
d="M776 1020q-134 0 -223 -100t-89 -250t89 -250t223 -100t223 100t89 250t-89 250t-223 100zM776 1370q186 0 342 -81t255 -243t99 -376t-99 -376t-255 -243t-342 -81t-342 81t-255 243t-99 376t99 376t255 243t342 81zM904 1440h-244l-264 300h308z" />
    <glyph glyph-name="Oacute" unicode="&#xd3;" horiz-adv-x="1552" 
d="M776 1020q-134 0 -223 -100t-89 -250t89 -250t223 -100t223 100t89 250t-89 250t-223 100zM776 1370q186 0 342 -81t255 -243t99 -376t-99 -376t-255 -243t-342 -81t-342 81t-255 243t-99 376t99 376t255 243t342 81zM852 1440h-244l200 300h308z" />
    <glyph glyph-name="Ocircumflex" unicode="&#xd4;" horiz-adv-x="1552" 
d="M776 1020q-134 0 -223 -100t-89 -250t89 -250t223 -100t223 100t89 250t-89 250t-223 100zM776 1370q186 0 342 -81t255 -243t99 -376t-99 -376t-255 -243t-342 -81t-342 81t-255 243t-99 376t99 376t255 243t342 81zM1120 1440h-264l-80 118l-80 -118h-264l240 300h208z
" />
    <glyph glyph-name="Otilde" unicode="&#xd5;" horiz-adv-x="1552" 
d="M776 1020q-134 0 -223 -100t-89 -250t89 -250t223 -100t223 100t89 250t-89 250t-223 100zM776 1370q186 0 342 -81t255 -243t99 -376t-99 -376t-255 -243t-342 -81t-342 81t-255 243t-99 376t99 376t255 243t342 81zM970 1690h188q0 -134 -73 -206t-166 -72t-163 41
t-88 41q-66 0 -66 -74h-188q0 134 73 206t166 72t163 -41t88 -41q66 0 66 74z" />
    <glyph glyph-name="Odieresis" unicode="&#xd6;" horiz-adv-x="1552" 
d="M776 1020q-134 0 -223 -100t-89 -250t89 -250t223 -100t223 100t89 250t-89 250t-223 100zM776 1370q186 0 342 -81t255 -243t99 -376t-99 -376t-255 -243t-342 -81t-342 81t-255 243t-99 376t99 376t255 243t342 81zM986 1770q62 0 107 -45t45 -107t-45 -107t-107 -45
t-107 45t-45 107t45 107t107 45zM566 1770q62 0 107 -45t45 -107t-45 -107t-107 -45t-107 45t-45 107t45 107t107 45z" />
    <glyph glyph-name="multiply" unicode="&#xd7;" 
d="M762 626l170 -170l-212 -212l-170 170l-170 -172l-212 212l170 172l-170 170l214 212l168 -170l170 170l212 -212z" />
    <glyph glyph-name="Oslash" unicode="&#xd8;" horiz-adv-x="1552" 
d="M776 320q134 0 223 100t89 250q0 84 -32 158l-416 -476q64 -32 136 -32zM464 670q0 -94 38 -174l422 486q-70 38 -148 38q-134 0 -223 -100t-89 -250zM1472 670q0 -214 -99 -376t-255 -243t-352 -81t-368 104l-90 -104l-158 120l96 110q-166 192 -166 470q0 214 99 376
t255 243t357 81t373 -110l96 110l164 -120l-108 -122q156 -188 156 -458z" />
    <glyph glyph-name="Ugrave" unicode="&#xd9;" horiz-adv-x="1532" 
d="M1372 1344v-814q0 -256 -174 -408t-432 -152t-432 152t-174 408v814h374v-788q0 -108 58 -173t174 -63t174 65t58 171v788h374zM894 1440h-244l-264 300h308z" />
    <glyph glyph-name="Uacute" unicode="&#xda;" horiz-adv-x="1532" 
d="M1372 1344v-814q0 -256 -174 -408t-432 -152t-432 152t-174 408v814h374v-788q0 -108 58 -173t174 -63t174 65t58 171v788h374zM842 1440h-244l200 300h308z" />
    <glyph glyph-name="Ucircumflex" unicode="&#xdb;" horiz-adv-x="1532" 
d="M1372 1344v-814q0 -256 -174 -408t-432 -152t-432 152t-174 408v814h374v-788q0 -108 58 -173t174 -63t174 65t58 171v788h374zM1110 1440h-264l-80 118l-80 -118h-264l240 300h208z" />
    <glyph glyph-name="Udieresis" unicode="&#xdc;" horiz-adv-x="1532" 
d="M1372 1344v-814q0 -256 -174 -408t-432 -152t-432 152t-174 408v814h374v-788q0 -108 58 -173t174 -63t174 65t58 171v788h374zM975 1770q63 0 108 -45t45 -107t-45 -107t-107 -45t-107 45t-45 107t44 107t107 45zM555 1770q63 0 108 -45t45 -107t-45 -107t-107 -45
t-107 45t-45 107t44 107t107 45z" />
    <glyph glyph-name="Yacute" unicode="&#xdd;" horiz-adv-x="1462" 
d="M918 0h-374v462l-524 878h436l276 -496l274 496h436l-524 -878v-462zM808 1440h-244l200 300h308z" />
    <glyph glyph-name="Thorn" unicode="&#xde;" horiz-adv-x="1368" 
d="M494 822v-274q116 -60 272 -60q218 0 218 178q0 76 -68 116t-170 40h-252zM494 1122h362q178 0 315 -133t137 -332t-148 -329t-366 -130q-130 0 -300 48v-246h-314v1340h314v-218z" />
    <glyph glyph-name="germandbls" unicode="&#xdf;" horiz-adv-x="1406" 
d="M524 1450q198 0 344 -126t146 -320q0 -64 -36 -121t-72 -101t-36 -64t3 -29t10 -17t14 -13t22 -11t23 -9t30 -10t32 -11l118 -42q122 -44 183 -104t61 -164q0 -144 -126 -236t-296 -92q-222 0 -384 86v246q196 -82 380 -82q138 0 138 58q0 29 -30 44q-47 25 -140 56
l-134 48q-161 54 -201 146q-19 44 -19 113t67 159t67 138q0 86 -45 135t-119 47q-160 -4 -160 -204v-970h-284v1028q0 196 123 309t321 113z" />
    <glyph glyph-name="agrave" unicode="&#xe0;" horiz-adv-x="1298" 
d="M618 714q-90 0 -139 -60t-49 -143t50 -138t128 -55t142 56t64 158v98q-106 84 -196 84zM530 1050q78 0 156 -35t128 -89v94h344v-1020h-344v170q-40 -88 -119 -144t-185 -56q-184 0 -312 140t-128 395t133 400t327 145zM774 1120h-244l-264 300h308z" />
    <glyph glyph-name="aacute" unicode="&#xe1;" horiz-adv-x="1298" 
d="M618 714q-90 0 -139 -60t-49 -143t50 -138t128 -55t142 56t64 158v98q-106 84 -196 84zM530 1050q78 0 156 -35t128 -89v94h344v-1020h-344v170q-40 -88 -119 -144t-185 -56q-184 0 -312 140t-128 395t133 400t327 145zM722 1120h-244l200 300h308z" />
    <glyph glyph-name="acircumflex" unicode="&#xe2;" horiz-adv-x="1298" 
d="M618 714q-90 0 -139 -60t-49 -143t50 -138t128 -55t142 56t64 158v98q-106 84 -196 84zM530 1050q78 0 156 -35t128 -89v94h344v-1020h-344v170q-40 -88 -119 -144t-185 -56q-184 0 -312 140t-128 395t133 400t327 145zM990 1120h-264l-80 118l-80 -118h-264l240 300h208
z" />
    <glyph glyph-name="atilde" unicode="&#xe3;" horiz-adv-x="1298" 
d="M618 714q-90 0 -139 -60t-49 -143t50 -138t128 -55t142 56t64 158v98q-106 84 -196 84zM530 1050q78 0 156 -35t128 -89v94h344v-1020h-344v170q-40 -88 -119 -144t-185 -56q-184 0 -312 140t-128 395t133 400t327 145zM840 1370h188q0 -134 -73 -206t-166 -72t-163 41
t-88 41q-66 0 -66 -74h-188q0 134 73 206t166 72t163 -41t88 -41q66 0 66 74z" />
    <glyph glyph-name="adieresis" unicode="&#xe4;" horiz-adv-x="1298" 
d="M618 714q-90 0 -139 -60t-49 -143t50 -138t128 -55t142 56t64 158v98q-106 84 -196 84zM530 1050q78 0 156 -35t128 -89v94h344v-1020h-344v170q-40 -88 -119 -144t-185 -56q-184 0 -312 140t-128 395t133 400t327 145zM855 1450q63 0 108 -45t45 -107t-45 -107t-107 -45
t-107 45t-45 107t44 107t107 45zM435 1450q63 0 108 -45t45 -107t-45 -107t-107 -45t-107 45t-45 107t44 107t107 45z" />
    <glyph glyph-name="aring" unicode="&#xe5;" horiz-adv-x="1298" 
d="M618 714q-90 0 -139 -60t-49 -143t50 -138t128 -55t142 56t64 158v98q-106 84 -196 84zM530 1050q78 0 156 -35t128 -89v94h344v-1020h-344v170q-40 -88 -119 -144t-185 -56q-184 0 -312 140t-128 395t133 400t327 145zM645 1356q-31 0 -54 -21t-23 -51t23 -51t54 -21
t54 21t23 51t-23 51t-54 21zM646 1466q80 0 136 -53t56 -129t-56 -129t-136 -53t-137 53t-57 129t57 129t137 53z" />
    <glyph glyph-name="ae" unicode="&#xe6;" horiz-adv-x="2040" 
d="M814 532v98q-106 84 -196 84t-139 -60t-49 -143t50 -138t128 -55t142 56t64 158zM1664 612q0 68 -53 111t-125 43q-146 0 -188 -154h366zM1990 534v-114h-696q22 -74 87 -112t155 -38q196 0 316 68v-294q-118 -74 -330 -74t-364 116v-86h-344v170q-40 -88 -119 -144
t-185 -56q-184 0 -312 140t-128 395t133 400t327 145q78 0 156 -35t128 -89v94h344v-90q146 120 351 120t343 -141t138 -375z" />
    <glyph glyph-name="ccedilla" unicode="&#xe7;" horiz-adv-x="944" 
d="M654 710q-78 0 -146 -56t-68 -151t62 -149t152 -54q146 0 250 74v-300q-122 -98 -256 -102l-4 -64q80 2 130 -47t50 -136t-65 -146t-167 -59t-164 50l14 148q4 -2 29 -16t49 -25t54 -11t51 14t21 37t-18 36t-43 13t-59 -18l-48 24l22 208q-188 38 -309 187t-121 352
t157 367t381 164q72 0 133 -20t86 -37t77 -57v-300q-104 74 -250 74z" />
    <glyph glyph-name="egrave" unicode="&#xe8;" horiz-adv-x="1156" 
d="M780 612q0 68 -53 111t-125 43q-146 0 -188 -154h366zM1106 534v-114h-696q22 -74 87 -112t155 -38q196 0 316 68v-294q-118 -74 -341 -74t-390 145t-167 377t157 395t380 163t361 -141t138 -375zM750 1120h-244l-264 300h308z" />
    <glyph glyph-name="eacute" unicode="&#xe9;" horiz-adv-x="1156" 
d="M780 612q0 68 -53 111t-125 43q-146 0 -188 -154h366zM1106 534v-114h-696q22 -74 87 -112t155 -38q196 0 316 68v-294q-118 -74 -341 -74t-390 145t-167 377t157 395t380 163t361 -141t138 -375zM962 1420l-264 -300h-244l200 300h308z" />
    <glyph glyph-name="ecircumflex" unicode="&#xea;" horiz-adv-x="1156" 
d="M780 612q0 68 -53 111t-125 43q-146 0 -188 -154h366zM1106 534v-114h-696q22 -74 87 -112t155 -38q196 0 316 68v-294q-118 -74 -341 -74t-390 145t-167 377t157 395t380 163t361 -141t138 -375zM622 1238l-80 -118h-264l240 300h208l240 -300h-264z" />
    <glyph glyph-name="edieresis" unicode="&#xeb;" horiz-adv-x="1156" 
d="M780 612q0 68 -53 111t-125 43q-146 0 -188 -154h366zM1106 534v-114h-696q22 -74 87 -112t155 -38q196 0 316 68v-294q-118 -74 -341 -74t-390 145t-167 377t157 395t380 163t361 -141t138 -375zM832 1146q-62 0 -107 45t-45 107t44 107t107 45t108 -45t45 -107
t-45 -107t-107 -45zM412 1146q-62 0 -107 45t-45 107t44 107t107 45t108 -45t45 -107t-45 -107t-107 -45z" />
    <glyph glyph-name="igrave" unicode="&#xec;" horiz-adv-x="608" 
d="M620 1020v-1020h-344v740h-166v280h510zM230 1120l-264 300h308l200 -300h-244z" />
    <glyph glyph-name="iacute" unicode="&#xed;" horiz-adv-x="608" 
d="M588 1020v-1020h-344v740h-166v280h510zM424 1120h-244l200 300h308z" />
    <glyph glyph-name="icircumflex" unicode="&#xee;" horiz-adv-x="628" 
d="M650 1020v-1020h-344v740h-166v280h510zM244 1120h-264l240 300h208l240 -300h-264l-80 118z" />
    <glyph glyph-name="idieresis" unicode="&#xef;" horiz-adv-x="636" 
d="M620 1020v-1020h-344v740h-166v280h510zM543 1450q63 0 108 -45t45 -107t-45 -107t-107 -45t-107 45t-45 107t44 107t107 45zM276 1298q0 -62 -45 -107t-107 -45t-107 45t-45 107t44 107t107 45t108 -45t45 -107z" />
    <glyph glyph-name="eth" unicode="&#xf0;" horiz-adv-x="1216" 
d="M608 260q104 0 176 66t72 178t-72 179t-176 67t-176 -67t-72 -179t72 -178t176 -66zM1146 584q0 -288 -156 -451t-378 -163t-382 152t-160 380t154 363t364 135q124 0 234 -114q-30 86 -134 194l-124 -68l-88 130l90 52q-60 48 -100 76l180 182q54 -42 150 -126l158 90
l88 -140l-132 -72q236 -280 236 -620z" />
    <glyph glyph-name="ntilde" unicode="&#xf1;" horiz-adv-x="1256" 
d="M767 1050q165 0 262 -109t97 -311v-630h-344l-2 576q0 72 -39 105t-97 33q-94 0 -160 -98v-616h-344v1020h344v-132q118 162 283 162zM558 1180q-66 0 -66 -74h-188q0 134 73 206t166 72t163 -41t88 -41q66 0 66 74h188q0 -134 -73 -206t-166 -72t-163 41t-88 41z" />
    <glyph glyph-name="ograve" unicode="&#xf2;" horiz-adv-x="1260" 
d="M630 720q-74 0 -132 -47t-58 -163t58 -163t132 -47t132 47t58 163t-58 163t-132 47zM630 1050q220 0 390 -156t170 -384t-170 -384t-390 -156t-390 156t-170 384t170 384t390 156zM758 1120h-244l-264 300h308z" />
    <glyph glyph-name="oacute" unicode="&#xf3;" horiz-adv-x="1260" 
d="M630 720q-74 0 -132 -47t-58 -163t58 -163t132 -47t132 47t58 163t-58 163t-132 47zM630 1050q220 0 390 -156t170 -384t-170 -384t-390 -156t-390 156t-170 384t170 384t390 156zM706 1120h-244l200 300h308z" />
    <glyph glyph-name="ocircumflex" unicode="&#xf4;" horiz-adv-x="1260" 
d="M630 720q-74 0 -132 -47t-58 -163t58 -163t132 -47t132 47t58 163t-58 163t-132 47zM630 1050q220 0 390 -156t170 -384t-170 -384t-390 -156t-390 156t-170 384t170 384t390 156zM974 1120h-264l-80 118l-80 -118h-264l240 300h208z" />
    <glyph glyph-name="otilde" unicode="&#xf5;" horiz-adv-x="1260" 
d="M630 720q-74 0 -132 -47t-58 -163t58 -163t132 -47t132 47t58 163t-58 163t-132 47zM630 1050q220 0 390 -156t170 -384t-170 -384t-390 -156t-390 156t-170 384t170 384t390 156zM824 1370h188q0 -134 -73 -206t-166 -72t-163 41t-88 41q-66 0 -66 -74h-188
q0 134 73 206t166 72t163 -41t88 -41q66 0 66 74z" />
    <glyph glyph-name="odieresis" unicode="&#xf6;" horiz-adv-x="1260" 
d="M630 720q-74 0 -132 -47t-58 -163t58 -163t132 -47t132 47t58 163t-58 163t-132 47zM630 1050q220 0 390 -156t170 -384t-170 -384t-390 -156t-390 156t-170 384t170 384t390 156zM839 1450q63 0 108 -45t45 -107t-45 -107t-107 -45t-107 45t-45 107t44 107t107 45z
M419 1450q63 0 108 -45t45 -107t-45 -107t-107 -45t-107 45t-45 107t44 107t107 45z" />
    <glyph glyph-name="divide" unicode="&#xf7;" horiz-adv-x="1102" 
d="M552 390q70 0 120 -50t50 -119t-51 -120t-120 -51t-119 50t-50 120t50 120t120 50zM942 476h-782v300h782v-300zM552 1198q70 0 120 -50t50 -119t-51 -120t-120 -51t-119 50t-50 120t50 120t120 50z" />
    <glyph glyph-name="oslash" unicode="&#xf8;" 
d="M630 300q74 0 132 47t58 163q0 38 -6 64l-248 -264q28 -10 64 -10zM440 510q0 -34 6 -60l242 262q-26 8 -58 8q-74 0 -132 -47t-58 -163zM1190 510q0 -228 -170 -384t-390 -156q-156 0 -300 86l-98 -106l-138 120l98 106q-122 144 -122 334q0 228 170 384t390 156
q156 0 294 -82l82 88l144 -120l-84 -90q124 -146 124 -336z" />
    <glyph glyph-name="ugrave" unicode="&#xf9;" horiz-adv-x="1236" 
d="M1106 1020v-612q0 -204 -135 -321t-353 -117t-353 117t-135 321v612h344l2 -520q0 -106 33 -153t109 -47t109 47t33 153l2 520h344zM762 1120h-244l-264 300h308z" />
    <glyph glyph-name="uacute" unicode="&#xfa;" horiz-adv-x="1236" 
d="M1106 1020v-612q0 -204 -135 -321t-353 -117t-353 117t-135 321v612h344l2 -520q0 -106 33 -153t109 -47t109 47t33 153l2 520h344zM710 1120h-244l200 300h308z" />
    <glyph glyph-name="ucircumflex" unicode="&#xfb;" horiz-adv-x="1236" 
d="M1106 1020v-612q0 -204 -135 -321t-353 -117t-353 117t-135 321v612h344l2 -520q0 -106 33 -153t109 -47t109 47t33 153l2 520h344zM978 1120h-264l-80 118l-80 -118h-264l240 300h208z" />
    <glyph glyph-name="udieresis" unicode="&#xfc;" horiz-adv-x="1236" 
d="M1106 1020v-612q0 -204 -135 -321t-353 -117t-353 117t-135 321v612h344l2 -520q0 -106 33 -153t109 -47t109 47t33 153l2 520h344zM843 1450q63 0 108 -45t45 -107t-45 -107t-107 -45t-107 45t-45 107t44 107t107 45zM423 1450q63 0 108 -45t45 -107t-45 -107t-107 -45
t-107 45t-45 107t44 107t107 45z" />
    <glyph glyph-name="yacute" unicode="&#xfd;" horiz-adv-x="1244" 
d="M1234 1020l-732 -1500h-384l322 568l-430 932h396l226 -542l218 542h384zM688 1120h-244l200 300h308z" />
    <glyph glyph-name="thorn" unicode="&#xfe;" horiz-adv-x="1298" 
d="M690 702q-78 0 -142 -56t-64 -158v-98q104 -84 212 -84q74 0 123 60t49 143t-50 138t-128 55zM484 1440v-590q40 88 119 144t185 56q184 0 312 -140t128 -395t-133 -400t-327 -145q-78 0 -156 35t-128 89v-514h-344v1860h344z" />
    <glyph glyph-name="ydieresis" unicode="&#xff;" horiz-adv-x="1244" 
d="M1234 1020l-732 -1500h-384l322 568l-430 932h396l226 -542l218 542h384zM822 1146q-62 0 -107 45t-45 107t45 107t107 45t107 -45t45 -107t-45 -107t-107 -45zM402 1146q-62 0 -107 45t-45 107t45 107t107 45t107 -45t45 -107t-45 -107t-107 -45z" />
    <glyph glyph-name="Amacron" unicode="&#x100;" horiz-adv-x="1468" 
d="M834 480l-100 276l-102 -276h202zM946 180h-424l-66 -180h-436l620 1360h188l620 -1360h-436zM1100 1520h-740v220h740v-220z" />
    <glyph glyph-name="amacron" unicode="&#x101;" horiz-adv-x="1298" 
d="M618 714q-90 0 -139 -60t-49 -143t50 -138t128 -55t142 56t64 158v98q-106 84 -196 84zM530 1050q78 0 156 -35t128 -89v94h344v-1020h-344v170q-40 -88 -119 -144t-185 -56q-184 0 -312 140t-128 395t133 400t327 145zM1016 1200h-740v220h740v-220z" />
    <glyph glyph-name="Abreve" unicode="&#x102;" horiz-adv-x="1468" 
d="M834 480l-100 276l-102 -276h202zM946 180h-424l-66 -180h-436l620 1360h188l620 -1360h-436zM730 1440q-138 0 -229 82t-95 218h204q18 -84 120 -84q46 0 78 26t42 58h204q-4 -136 -95 -218t-229 -82z" />
    <glyph glyph-name="abreve" unicode="&#x103;" horiz-adv-x="1298" 
d="M618 714q-90 0 -139 -60t-49 -143t50 -138t128 -55t142 56t64 158v98q-106 84 -196 84zM530 1050q78 0 156 -35t128 -89v94h344v-1020h-344v170q-40 -88 -119 -144t-185 -56q-184 0 -312 140t-128 395t133 400t327 145zM646 1120q-138 0 -229 82t-95 218h204
q18 -84 120 -84q46 0 78 26t42 58h204q-4 -136 -95 -218t-229 -82z" />
    <glyph glyph-name="Aogonek" unicode="&#x104;" horiz-adv-x="1468" 
d="M834 480l-100 276l-102 -276h202zM1096 -145q0 -71 83 -71q43 0 97 36v-226q-88 -44 -208 -44t-197 53t-77 147t66 159t160 91h-8l-66 180h-424l-66 -180h-436l620 1360h188l620 -1360h-148q-82 -22 -143 -67t-61 -78z" />
    <glyph glyph-name="aogonek" unicode="&#x105;" horiz-adv-x="1298" 
d="M814 532v98q-106 84 -196 84t-139 -60t-49 -143t50 -138t128 -55t142 56t64 158zM894 -145q0 -71 83 -71q43 0 97 36v-226q-88 -44 -208 -44t-197 53t-77 147t66 159t160 91h-4v170q-40 -88 -119 -144t-185 -56q-184 0 -312 140t-128 395t133 400t327 145q78 0 156 -35
t128 -89v94h344v-1020h-60q-82 -22 -143 -67t-61 -78z" />
    <glyph glyph-name="Cacute" unicode="&#x106;" horiz-adv-x="1224" 
d="M790 1370q218 0 354 -118v-362q-86 70 -159 100t-196 30t-224 -101t-101 -249t101 -249t224 -101t196 30t159 100v-362q-136 -118 -354 -118q-288 0 -499 191t-211 509t211 509t499 191zM864 1440h-244l200 300h308z" />
    <glyph glyph-name="cacute" unicode="&#x107;" horiz-adv-x="944" 
d="M608 1050q72 0 133 -20t86 -37t77 -57v-300q-104 74 -250 74q-78 0 -146 -56t-68 -151t62 -149t152 -54q146 0 250 74v-300q-44 -34 -75 -52q-90 -52 -221 -52q-224 0 -381 159t-157 376t157 381t381 164zM676 1120h-244l200 300h308z" />
    <glyph glyph-name="Ccaron" unicode="&#x10c;" horiz-adv-x="1224" 
d="M790 1370q218 0 354 -118v-362q-86 70 -159 100t-196 30t-224 -101t-101 -249t101 -249t224 -101t196 30t159 100v-362q-136 -118 -354 -118q-288 0 -499 191t-211 509t211 509t499 191zM708 1740l80 -118l80 118h264l-240 -300h-208l-240 300h264z" />
    <glyph glyph-name="ccaron" unicode="&#x10d;" horiz-adv-x="944" 
d="M608 1050q72 0 133 -20t86 -37t77 -57v-300q-104 74 -250 74q-78 0 -146 -56t-68 -151t62 -149t152 -54q146 0 250 74v-300q-44 -34 -75 -52q-90 -52 -221 -52q-224 0 -381 159t-157 376t157 381t381 164zM520 1420l80 -118l80 118h264l-240 -300h-208l-240 300h264z" />
    <glyph glyph-name="Dcaron" unicode="&#x10e;" horiz-adv-x="1518" 
d="M554 990v-646q80 -24 184 -24q316 0 316 330q0 158 -92 249t-256 91h-152zM180 1340h546q188 0 347 -75t262 -231t103 -364q0 -302 -188 -501t-496 -199t-574 56v1314zM580 1740l80 -118l80 118h264l-240 -300h-208l-240 300h264z" />
    <glyph glyph-name="dcaron" unicode="&#x10f;" horiz-adv-x="1524" 
d="M618 714q-90 0 -139 -60t-49 -143t50 -138t128 -55t142 56t64 158v98q-106 84 -196 84zM1514 1436l-60 -376h-244l20 376h284zM1158 0h-344v170q-40 -88 -119 -144t-185 -56q-184 0 -312 140t-128 395t133 400t327 145q78 0 156 -35t128 -89v514h344v-1440z" />
    <glyph glyph-name="Dcroat" unicode="&#x110;" horiz-adv-x="1518" 
d="M738 320q316 0 316 330q0 158 -92 249t-256 91h-152v-168h100v-300h-100v-178q80 -24 184 -24zM180 1340h546q188 0 347 -75t262 -231t103 -364q0 -302 -188 -501t-496 -199t-574 56v496h-128v300h128v518z" />
    <glyph glyph-name="dcroat" unicode="&#x111;" horiz-adv-x="1238" 
d="M814 532v98q-106 84 -196 84t-139 -60t-49 -143t50 -138t128 -55t142 56t64 158zM1234 1086h-76v-1086h-344v170q-40 -88 -119 -144t-185 -56q-184 0 -312 140t-128 395t133 400t327 145q78 0 156 -35t128 -89v160h-220v220h220v134h344v-134h76v-220z" />
    <glyph glyph-name="Emacron" unicode="&#x112;" horiz-adv-x="1316" 
d="M554 1030v-212h532v-280h-532v-218h602v-320h-976v1340h976v-310h-602zM1038 1520h-740v220h740v-220z" />
    <glyph glyph-name="emacron" unicode="&#x113;" horiz-adv-x="1156" 
d="M780 612q0 68 -53 111t-125 43q-146 0 -188 -154h366zM1106 534v-114h-696q22 -74 87 -112t155 -38q196 0 316 68v-294q-118 -74 -341 -74t-390 145t-167 377t157 395t380 163t361 -141t138 -375zM992 1420v-220h-740v220h740z" />
    <glyph glyph-name="Edotaccent" unicode="&#x116;" horiz-adv-x="1316" 
d="M554 1030v-212h532v-280h-532v-218h602v-320h-976v1340h976v-310h-602zM668 1436q-62 0 -107 45t-45 108t44 107t107 44t108 -45t45 -107t-45 -107t-107 -45z" />
    <glyph glyph-name="edotaccent" unicode="&#x117;" horiz-adv-x="1156" 
d="M780 612q0 68 -53 111t-125 43q-146 0 -188 -154h366zM1106 534v-114h-696q22 -74 87 -112t155 -38q196 0 316 68v-294q-118 -74 -341 -74t-390 145t-167 377t157 395t380 163t361 -141t138 -375zM622 1116q-62 0 -107 45t-45 108t45 107t107 44t107 -45t45 -107
t-45 -107t-107 -45z" />
    <glyph glyph-name="Eogonek" unicode="&#x118;" horiz-adv-x="1316" 
d="M958 -145q0 -71 83 -71q43 0 97 36v-226q-88 -44 -208 -44t-197 53t-77 147t66 159t160 91h-702v1340h976v-310h-602v-212h532v-280h-532v-218h602v-318h14q-84 -20 -148 -67t-64 -80z" />
    <glyph glyph-name="eogonek" unicode="&#x119;" horiz-adv-x="1156" 
d="M780 612q0 68 -53 111t-125 43q-146 0 -188 -154h366zM674 -145q0 -71 83 -71q43 0 97 36v-226q-88 -44 -208 -44t-197 53t-77 145q0 152 164 230q-198 30 -332 169t-134 358t157 382t380 163t361 -141t138 -375v-114h-696q22 -74 87 -112t155 -38q196 0 316 68v-294
q-38 -24 -94 -42h12q-84 -20 -148 -67t-64 -80z" />
    <glyph glyph-name="Ecaron" unicode="&#x11a;" horiz-adv-x="1316" 
d="M554 1030v-212h532v-280h-532v-218h602v-320h-976v1340h976v-310h-602zM564 1440l-240 300h264l80 -118l80 118h264l-240 -300h-208z" />
    <glyph glyph-name="ecaron" unicode="&#x11b;" horiz-adv-x="1156" 
d="M780 612q0 68 -53 111t-125 43q-146 0 -188 -154h366zM1106 534v-114h-696q22 -74 87 -112t155 -38q196 0 316 68v-294q-118 -74 -341 -74t-390 145t-167 377t157 395t380 163t361 -141t138 -375zM726 1120h-208l-240 300h264l80 -118l80 118h264z" />
    <glyph glyph-name="Gcommaaccent" unicode="&#x122;" horiz-adv-x="1450" 
d="M738 -202v158q92 0 156 -51t64 -147t-60 -152t-130 -56t-122 36v168q44 -30 95 -30t51 37t-54 37zM1320 692v-514q-94 -96 -237 -152t-293 -56q-288 0 -499 191t-211 509t211 509t499 191q218 0 354 -118v-362q-86 70 -159 100t-196 30t-224 -101t-101 -249t101 -249
t237 -101t196 60l2 312h320z" />
    <glyph glyph-name="gcommaaccent" unicode="&#x123;" horiz-adv-x="1298" 
d="M618 714q-90 0 -139 -60t-49 -143t50 -138t128 -55t142 56t64 158v98q-106 84 -196 84zM530 1050q78 0 156 -35t128 -89v94h344v-990q0 -236 -178 -388t-416 -152t-436 108v304q86 -38 127 -53q134 -49 263 -49q130 0 213 69t83 159v142q-40 -88 -119 -144t-185 -56
q-184 0 -312 140t-128 395t133 400t327 145zM714 1222v-158q-92 0 -156 51t-64 147t60 152t130 56t122 -36v-168q-44 30 -95 30t-51 -37t54 -37z" />
    <glyph glyph-name="Imacron" unicode="&#x12a;" horiz-adv-x="1146" 
d="M760 1010v-680h226v-330h-826v330h226v680h-226v330h826v-330h-226zM944 1520h-740v220h740v-220z" />
    <glyph glyph-name="imacron" unicode="&#x12b;" horiz-adv-x="870" 
d="M670 1020v-1020h-344v740h-166v280h510zM790 1420v-220h-740v220h740z" />
    <glyph glyph-name="Iogonek" unicode="&#x12e;" horiz-adv-x="1146" 
d="M526 -145q0 -71 83 -71q43 0 97 36v-226q-88 -44 -208 -44t-197 53t-77 147t66 159t160 91h-290v330h226v680h-226v330h826v-330h-226v-680h226v-330h-256q-82 -22 -143 -67t-61 -78z" />
    <glyph glyph-name="iogonek" unicode="&#x12f;" horiz-adv-x="730" 
d="M332 -145q0 -71 83 -71q43 0 97 36v-226q-88 -44 -208 -44t-197 53t-77 148t69 161t165 90h2v738h-166v280h510v-1020h-74q-82 -22 -143 -67t-61 -78zM427 1176q-87 0 -150 61t-63 147t63 147t150 61t152 -61t65 -146t-65 -147t-152 -62z" />
    <glyph glyph-name="IJ" unicode="&#x132;" horiz-adv-x="1914" 
d="M986 1340v-330h-226v-680h226v-330h-826v330h226v680h-226v330h826zM1754 1344v-1250q0 -242 -147 -397t-397 -207l-124 324q294 64 294 294v1236h374z" />
    <glyph glyph-name="ij" unicode="&#x133;" horiz-adv-x="1472" 
d="M1298 1020v-1002q0 -408 -378 -528l-150 294q184 82 184 238v718h-166v280h510zM588 1020v-1020h-344v740h-166v280h510zM1115 1176q-87 0 -151 61t-64 147t64 147t151 61t152 -61t65 -146t-65 -147t-152 -62zM405 1592q87 0 152 -61t65 -146t-65 -147t-152 -62t-150 61
t-63 147t63 147t150 61z" />
    <glyph glyph-name="Kcommaaccent" unicode="&#x136;" horiz-adv-x="1514" 
d="M704 -202v158q92 0 156 -51t64 -147t-60 -152t-130 -56t-122 36v168q44 -30 95 -30t51 37t-54 37zM554 0h-374v1340h374v-492l410 492h450l-484 -550l544 -790h-476l-322 504l-122 -138v-366z" />
    <glyph glyph-name="kcommaaccent" unicode="&#x137;" horiz-adv-x="1270" 
d="M582 -202v158q92 0 156 -51t64 -147t-60 -152t-130 -56t-122 36v168q44 -30 95 -30t51 37t-54 37zM484 0h-344v1440h344v-830l326 410h416l-410 -438l444 -582h-454l-202 356l-120 -128v-228z" />
    <glyph glyph-name="Lacute" unicode="&#x139;" horiz-adv-x="1276" 
d="M554 330h602v-330h-976v1340h374v-1010zM572 1440h-244l200 300h308z" />
    <glyph glyph-name="lacute" unicode="&#x13a;" horiz-adv-x="624" 
d="M484 0h-344v1440h344v-1440zM490 1540h-244l200 300h308z" />
    <glyph glyph-name="Lcommaaccent" unicode="&#x13b;" horiz-adv-x="1276" 
d="M564 -202v158q92 0 156 -51t64 -147t-60 -152t-130 -56t-122 36v168q44 -30 95 -30t51 37t-54 37zM554 330h602v-330h-976v1340h374v-1010z" />
    <glyph glyph-name="lcommaaccent" unicode="&#x13c;" horiz-adv-x="624" 
d="M238 -202v158q92 0 156 -51t64 -147t-60 -152t-130 -56t-122 36v168q44 -30 95 -30t51 37t-54 37zM484 0h-344v1440h344v-1440z" />
    <glyph glyph-name="Lcaron" unicode="&#x13d;" horiz-adv-x="1196" 
d="M554 330h602v-330h-976v1340h374v-1010zM954 1436l-60 -376h-244l20 376h284z" />
    <glyph glyph-name="lcaron" unicode="&#x13e;" horiz-adv-x="844" 
d="M834 1436l-60 -376h-244l20 376h284zM484 0h-344v1440h344v-1440z" />
    <glyph glyph-name="Ldot" unicode="&#x13f;" 
d="M858 1002q74 0 127 -53t53 -127t-53 -127t-127 -53t-127 53t-53 127t53 127t127 53zM554 330h602v-330h-976v1340h374v-1010z" />
    <glyph glyph-name="ldot" unicode="&#x140;" horiz-adv-x="910" 
d="M670 1050q74 0 127 -53t53 -127t-53 -127t-127 -53t-127 53t-53 127t53 127t127 53zM484 0h-344v1440h344v-1440z" />
    <glyph glyph-name="Lslash" unicode="&#x141;" horiz-adv-x="1196" 
d="M1156 330v-330h-976v450l-160 -104v312l160 104v578h374v-336l108 70v-312l-108 -70v-362h602z" />
    <glyph glyph-name="lslash" unicode="&#x142;" horiz-adv-x="682" 
d="M554 0h-344v470l-190 -124v312l190 124v658h344v-436l108 70v-312l-108 -70v-692z" />
    <glyph glyph-name="Nacute" unicode="&#x143;" horiz-adv-x="1584" 
d="M1404 -20h-132l-718 678v-658h-374v1360h132l718 -690v670h374v-1360zM868 1440h-244l200 300h308z" />
    <glyph glyph-name="nacute" unicode="&#x144;" horiz-adv-x="1256" 
d="M767 1050q165 0 262 -109t97 -311v-630h-344l-2 576q0 72 -39 105t-97 33q-94 0 -160 -98v-616h-344v1020h344v-132q118 162 283 162zM742 1126h-244l200 300h308z" />
    <glyph glyph-name="Ncommaaccent" unicode="&#x145;" horiz-adv-x="1584" 
d="M718 -202v158q92 0 156 -51t64 -147t-60 -152t-130 -56t-122 36v168q44 -30 95 -30t51 37t-54 37zM1404 -20h-132l-718 678v-658h-374v1360h132l718 -690v670h374v-1360z" />
    <glyph glyph-name="ncommaaccent" unicode="&#x146;" horiz-adv-x="1256" 
d="M572 -202v158q92 0 156 -51t64 -147t-60 -152t-130 -56t-122 36v168q44 -30 95 -30t51 37t-54 37zM767 1050q165 0 262 -109t97 -311v-630h-344l-2 576q0 72 -39 105t-97 33q-94 0 -160 -98v-616h-344v1020h344v-132q118 162 283 162z" />
    <glyph glyph-name="Ncaron" unicode="&#x147;" horiz-adv-x="1584" 
d="M1404 -20h-132l-718 678v-658h-374v1360h132l718 -690v670h374v-1360zM712 1740l80 -118l80 118h264l-240 -300h-208l-240 300h264z" />
    <glyph glyph-name="ncaron" unicode="&#x148;" horiz-adv-x="1256" 
d="M767 1050q165 0 262 -109t97 -311v-630h-344l-2 576q0 72 -39 105t-97 33q-94 0 -160 -98v-616h-344v1020h344v-132q118 162 283 162zM562 1126l-240 300h264l80 -118l80 118h264l-240 -300h-208z" />
    <glyph glyph-name="Eng" unicode="&#x14a;" horiz-adv-x="1564" 
d="M1404 1344v-1250q0 -242 -147 -397t-397 -207l-124 324q294 64 294 294v100l-476 450v-658h-374v1360h132l718 -684v668h374z" />
    <glyph glyph-name="eng" unicode="&#x14b;" horiz-adv-x="1266" 
d="M1126 0h-2v-82q0 -138 -98 -254t-280 -174l-150 294q184 82 184 238v554q0 72 -39 105t-97 33q-94 0 -160 -98v-616h-344v1020h344v-132q118 162 283 162t262 -109t97 -311v-630z" />
    <glyph glyph-name="Omacron" unicode="&#x14c;" horiz-adv-x="1552" 
d="M776 1020q-134 0 -223 -100t-89 -250t89 -250t223 -100t223 100t89 250t-89 250t-223 100zM776 1370q186 0 342 -81t255 -243t99 -376t-99 -376t-255 -243t-342 -81t-342 81t-255 243t-99 376t99 376t255 243t342 81zM1146 1520h-740v220h740v-220z" />
    <glyph glyph-name="omacron" unicode="&#x14d;" horiz-adv-x="1260" 
d="M630 720q-74 0 -132 -47t-58 -163t58 -163t132 -47t132 47t58 163t-58 163t-132 47zM630 1050q220 0 390 -156t170 -384t-170 -384t-390 -156t-390 156t-170 384t170 384t390 156zM1000 1200h-740v220h740v-220z" />
    <glyph glyph-name="Ohungarumlaut" unicode="&#x150;" horiz-adv-x="1552" 
d="M776 1020q-134 0 -223 -100t-89 -250t89 -250t223 -100t223 100t89 250t-89 250t-223 100zM776 1370q186 0 342 -81t255 -243t99 -376t-99 -376t-255 -243t-342 -81t-342 81t-255 243t-99 376t99 376t255 243t342 81zM1050 1440h-244l200 300h308zM642 1440h-244l200 300
h308z" />
    <glyph glyph-name="ohungarumlaut" unicode="&#x151;" horiz-adv-x="1260" 
d="M630 720q-74 0 -132 -47t-58 -163t58 -163t132 -47t132 47t58 163t-58 163t-132 47zM630 1050q220 0 390 -156t170 -384t-170 -384t-390 -156t-390 156t-170 384t170 384t390 156zM904 1120h-244l200 300h308zM496 1120h-244l200 300h308z" />
    <glyph glyph-name="OE" unicode="&#x152;" horiz-adv-x="2074" 
d="M938 270v780h-152q-168 0 -275 -102t-107 -279t108 -288t274 -111h152zM1312 1030v-212h532v-280h-532v-218h602v-320h-1128q-292 0 -499 193t-207 477t207 477t499 193h1128v-310h-602z" />
    <glyph glyph-name="oe" unicode="&#x153;" horiz-adv-x="1944" 
d="M630 300q74 0 132 47t58 163t-58 163t-132 47t-132 -47t-58 -163t58 -163t132 -47zM1568 612q0 68 -53 111t-125 43q-146 0 -188 -154h366zM1894 534v-114h-696q22 -74 87 -112t155 -38q196 0 316 68v-294q-118 -74 -347 -74t-393 152q-164 -152 -385 -152t-391 156
t-170 384t170 384t392 156t388 -156q160 156 379 156t357 -141t138 -375z" />
    <glyph glyph-name="Racute" unicode="&#x154;" horiz-adv-x="1396" 
d="M554 990v-250q78 -28 163 -28t142 36t57 109t-54 103t-152 30h-156zM554 0h-374v1340h574q222 0 384 -122t162 -344q0 -144 -83 -244t-219 -138l378 -492h-456l-366 534v-534zM714 1440h-244l200 300h308z" />
    <glyph glyph-name="racute" unicode="&#x155;" horiz-adv-x="902" 
d="M732 1040q74 0 130 -30v-382q-80 48 -166 48q-134 0 -212 -152v-524h-344v1020h344v-182q58 98 116 150t132 52zM568 1120h-244l200 300h308z" />
    <glyph glyph-name="Rcommaaccent" unicode="&#x156;" horiz-adv-x="1396" 
d="M644 -202v158q92 0 156 -51t64 -147t-60 -152t-130 -56t-122 36v168q44 -30 95 -30t51 37t-54 37zM554 990v-250q78 -28 163 -28t142 36t57 109t-54 103t-152 30h-156zM554 0h-374v1340h574q222 0 384 -122t162 -344q0 -144 -83 -244t-219 -138l378 -492h-456l-366 534
v-534z" />
    <glyph glyph-name="rcommaaccent" unicode="&#x157;" horiz-adv-x="902" 
d="M378 -202v158q92 0 156 -51t64 -147t-60 -152t-130 -56t-122 36v168q44 -30 95 -30t51 37t-54 37zM732 1040q74 0 130 -30v-382q-80 48 -166 48q-134 0 -212 -152v-524h-344v1020h344v-182q58 98 116 150t132 52z" />
    <glyph glyph-name="Rcaron" unicode="&#x158;" horiz-adv-x="1396" 
d="M554 990v-250q78 -28 163 -28t142 36t57 109t-54 103t-152 30h-156zM554 0h-374v1340h574q222 0 384 -122t162 -344q0 -144 -83 -244t-219 -138l378 -492h-456l-366 534v-534zM534 1440l-240 300h264l80 -118l80 118h264l-240 -300h-208z" />
    <glyph glyph-name="rcaron" unicode="&#x159;" horiz-adv-x="902" 
d="M732 1040q74 0 130 -30v-382q-80 48 -166 48q-134 0 -212 -152v-524h-344v1020h344v-182q58 98 116 150t132 52zM388 1120l-240 300h264l80 -118l80 118h264l-240 -300h-208z" />
    <glyph glyph-name="Sacute" unicode="&#x15a;" horiz-adv-x="1146" 
d="M586 1370q118 0 233 -29t185 -77v-362q-74 42 -116 63q-122 61 -252 61q-162 0 -162 -86q0 -31 17 -45.5t30 -22.5t23 -13t29 -13t30 -12t35 -13t36 -13l144 -54q136 -52 202 -145t66 -199q0 -190 -161 -315t-397 -125t-442 146v362q218 -164 430 -164q156 0 156 76
q0 54 -118 90l-190 60q-284 90 -284 394q0 202 149 319t357 117zM664 1440h-244l200 300h308z" />
    <glyph glyph-name="sacute" unicode="&#x15b;" horiz-adv-x="912" 
d="M507 1050q197 0 311 -108v-270q-150 90 -260 90q-52 0 -87 -20t-35 -53t21 -47t87 -30l62 -16q266 -68 266 -286q0 -146 -125 -243t-293 -97q-216 0 -380 114v268q72 -46 163 -75t163 -29q112 0 112 64q0 26 -26 40t-98 38l-102 32q-216 66 -216 286q0 154 120 248
t317 94zM796 1420l-264 -300h-244l200 300h308z" />
    <glyph glyph-name="Scedilla" unicode="&#x15e;" horiz-adv-x="1146" 
d="M1086 410q0 -174 -138 -296t-350 -140l-4 -66q80 2 130 -47t50 -136t-65 -146t-167 -59t-164 50l14 148q4 -2 29 -16t49 -25t55 -11t51 14t20 37t-18 36t-43 13t-59 -18l-48 24l22 204q-202 24 -364 140v362q218 -164 430 -164q156 0 156 76q0 54 -118 90l-190 60
q-284 90 -284 394q0 202 149 319t357 117q118 0 233 -29t185 -77v-362q-74 42 -116 63q-122 61 -252 61q-162 0 -162 -86q0 -31 17 -45.5t30 -22.5t23 -13t29 -13t30 -12t35 -13t36 -13l144 -54q136 -52 202 -145t66 -199z" />
    <glyph glyph-name="scedilla" unicode="&#x15f;" horiz-adv-x="912" 
d="M872 310q0 -140 -115 -235t-277 -105l-4 -62q80 2 130 -47t50 -136t-65 -146t-167 -59t-164 50l14 148q4 -2 29 -16t49 -25t54 -11t51 14t21 37t-18 36t-43 13t-59 -18l-48 24l22 208q-146 26 -258 104v268q72 -46 163 -75t163 -29q112 0 112 64q0 26 -26 40t-98 38
l-102 32q-216 66 -216 286q0 154 120 248t317 94t311 -108v-270q-150 90 -260 90q-52 0 -87 -20t-35 -53t21 -47t87 -30l62 -16q266 -68 266 -286z" />
    <glyph glyph-name="Scaron" unicode="&#x160;" horiz-adv-x="1146" 
d="M586 1370q118 0 233 -29t185 -77v-362q-74 42 -116 63q-122 61 -252 61q-162 0 -162 -86q0 -31 17 -45.5t30 -22.5t23 -13t29 -13t30 -12t35 -13t36 -13l144 -54q136 -52 202 -145t66 -199q0 -190 -161 -315t-397 -125t-442 146v362q218 -164 430 -164q156 0 156 76
q0 54 -118 90l-190 60q-284 90 -284 394q0 202 149 319t357 117zM508 1740l80 -118l80 118h264l-240 -300h-208l-240 300h264z" />
    <glyph glyph-name="scaron" unicode="&#x161;" horiz-adv-x="912" 
d="M507 1050q197 0 311 -108v-270q-150 90 -260 90q-52 0 -87 -20t-35 -53t21 -47t87 -30l62 -16q266 -68 266 -286q0 -146 -125 -243t-293 -97q-216 0 -380 114v268q72 -46 163 -75t163 -29q112 0 112 64q0 26 -26 40t-98 38l-102 32q-216 66 -216 286q0 154 120 248
t317 94zM112 1420h264l80 -118l80 118h264l-240 -300h-208z" />
    <glyph glyph-name="Tcedilla" unicode="&#x162;" horiz-adv-x="1262" 
d="M868 -275q0 -87 -65 -146t-167 -59t-164 50l14 148q4 -2 29 -16t49 -25t54 -11t51 14t21 37t-18 36t-43 13t-59 -18l-48 24l24 232h148l-6 -96q80 2 130 -47t50 -136zM1212 1340v-330h-394v-1004h-374v1004h-394v330h1162z" />
    <glyph glyph-name="tcedilla" unicode="&#x163;" horiz-adv-x="966" 
d="M596 464q0 -160 134 -160q72 0 146 44v-268q-74 -96 -232 -108l-4 -64q80 2 130 -47t50 -136t-65 -146t-167 -59t-164 50l14 148q4 -2 29 -16t49 -25t54 -11t51 14t21 37t-18 36t-43 13t-59 -18l-48 24l22 214q-110 32 -177 125t-67 227v412h-172v210q108 28 199 119
t133 241h184v-300h268v-270h-268v-286z" />
    <glyph glyph-name="Tcaron" unicode="&#x164;" horiz-adv-x="1262" 
d="M1212 1010h-394v-1004h-374v1004h-394v330h1162v-330zM528 1440l-240 300h264l80 -118l80 118h264l-240 -300h-208z" />
    <glyph glyph-name="tcaron" unicode="&#x165;" horiz-adv-x="1084" 
d="M596 464q0 -160 134 -160q72 0 146 44v-268q-84 -110 -270 -110q-148 0 -251 100t-103 268v412h-172v210q108 28 199 119t133 241h184v-300h268v-270h-268v-286zM994 1436l-60 -316h-244l20 316h284z" />
    <glyph glyph-name="Tbar" unicode="&#x166;" horiz-adv-x="1262" 
d="M1212 1010h-394v-1004h-374v1004h-394v330h1162v-330zM1002 1520h-740v220h740v-220z" />
    <glyph glyph-name="tbar" unicode="&#x167;" horiz-adv-x="896" 
d="M714 304q88 0 162 44v-268q-84 -110 -270 -110q-148 0 -251 100t-103 268v120h-204v180h204v112h-172v210q108 28 199 119t133 241h184v-300h268v-270h-268v-112h216v-180h-216q2 -70 33 -112t85 -42z" />
    <glyph glyph-name="Umacron" unicode="&#x16a;" horiz-adv-x="1532" 
d="M1372 1344v-814q0 -256 -174 -408t-432 -152t-432 152t-174 408v814h374v-788q0 -108 58 -173t174 -63t174 65t58 171v788h374zM1136 1520h-740v220h740v-220z" />
    <glyph glyph-name="umacron" unicode="&#x16b;" horiz-adv-x="1236" 
d="M1106 1020v-612q0 -204 -135 -321t-353 -117t-353 117t-135 321v612h344l2 -520q0 -106 33 -153t109 -47t109 47t33 153l2 520h344zM1004 1200h-740v220h740v-220z" />
    <glyph glyph-name="Uring" unicode="&#x16e;" horiz-adv-x="1532" 
d="M1372 1344v-814q0 -256 -174 -408t-432 -152t-432 152t-174 408v814h374v-788q0 -108 58 -173t174 -63t174 65t58 171v788h374zM765 1676q-31 0 -54 -21t-23 -51t23 -51t54 -21t54 21t23 51t-23 51t-54 21zM766 1786q80 0 136 -53t56 -129t-56 -129t-136 -53t-137 53
t-57 129t57 129t137 53z" />
    <glyph glyph-name="uring" unicode="&#x16f;" horiz-adv-x="1236" 
d="M1106 1020v-612q0 -204 -135 -321t-353 -117t-353 117t-135 321v612h344l2 -520q0 -106 33 -153t109 -47t109 47t33 153l2 520h344zM633 1356q-31 0 -54 -21t-23 -51t23 -51t54 -21t54 21t23 51t-23 51t-54 21zM634 1466q80 0 136 -53t56 -129t-56 -129t-136 -53t-137 53
t-57 129t57 129t137 53z" />
    <glyph glyph-name="Uhungarumlaut" unicode="&#x170;" horiz-adv-x="1532" 
d="M1372 1344v-814q0 -256 -174 -408t-432 -152t-432 152t-174 408v814h374v-788q0 -108 58 -173t174 -63t174 65t58 171v788h374zM1040 1440h-244l200 300h308zM632 1440h-244l200 300h308z" />
    <glyph glyph-name="uhungarumlaut" unicode="&#x171;" horiz-adv-x="1236" 
d="M1106 1020v-612q0 -204 -135 -321t-353 -117t-353 117t-135 321v612h344l2 -520q0 -106 33 -153t109 -47t109 47t33 153l2 520h344zM908 1120h-244l200 300h308zM500 1120h-244l200 300h308z" />
    <glyph glyph-name="Uogonek" unicode="&#x172;" horiz-adv-x="1532" 
d="M774 -145q0 -71 83 -71q43 0 97 36v-226q-88 -44 -208 -44t-197 53t-77 145q0 156 170 232q-212 36 -347 182t-135 368v814h374v-788q0 -108 58 -173t174 -63t174 65t58 171v788h374v-814q0 -196 -106 -334t-284 -194q-82 -22 -145 -68t-63 -79z" />
    <glyph glyph-name="uogonek" unicode="&#x173;" horiz-adv-x="1236" 
d="M610 -147q0 -69 83 -69q43 0 97 36v-226q-88 -44 -208 -44t-197 53t-77 140t50 147t126 92q-162 34 -258 145t-96 281v612h344l2 -520q0 -106 33 -153t109 -47t109 47t33 153l2 520h344v-612q0 -150 -76 -255t-208 -151h-4q-18 -8 -40 -12q-70 -24 -119 -65t-49 -72z" />
    <glyph glyph-name="Wcircumflex" unicode="&#x174;" horiz-adv-x="1948" 
d="M1492 0h-282l-234 710l-234 -710h-282l-440 1340h436l182 -696l208 696h256l212 -696l178 696h436zM1318 1440h-264l-80 118l-80 -118h-264l240 300h208z" />
    <glyph glyph-name="wcircumflex" unicode="&#x175;" horiz-adv-x="1648" 
d="M1288 0h-266l-198 602l-198 -602h-270l-346 1020h356l150 -496l172 496h272l172 -496l150 496h356zM1150 1120h-264l-80 118l-80 -118h-264l240 300h208z" />
    <glyph glyph-name="Ycircumflex" unicode="&#x176;" horiz-adv-x="1462" 
d="M918 0h-374v462l-524 878h436l276 -496l274 496h436l-524 -878v-462zM652 1440h-264l240 300h208l240 -300h-264l-80 118z" />
    <glyph glyph-name="ycircumflex" unicode="&#x177;" horiz-adv-x="1244" 
d="M1234 1020l-732 -1500h-384l322 568l-430 932h396l226 -542l218 542h384zM532 1120h-264l240 300h208l240 -300h-264l-80 118z" />
    <glyph glyph-name="Ydieresis" unicode="&#x178;" horiz-adv-x="1462" 
d="M918 0h-374v462l-524 878h436l276 -496l274 496h436l-524 -878v-462zM942 1466q-62 0 -107 45t-45 107t45 107t107 45t107 -45t45 -107t-45 -107t-107 -45zM522 1466q-62 0 -107 45t-45 107t45 107t107 45t107 -45t45 -107t-45 -107t-107 -45z" />
    <glyph glyph-name="Zacute" unicode="&#x179;" horiz-adv-x="1394" 
d="M1274 330v-330h-1154v72l544 938h-544v330h1154v-72l-546 -938h546zM774 1440h-244l200 300h308z" />
    <glyph glyph-name="zacute" unicode="&#x17a;" horiz-adv-x="1128" 
d="M1038 280v-280h-938v72l420 668h-400v280h898v-72l-442 -668h462zM646 1120h-244l200 300h308z" />
    <glyph glyph-name="Zdotaccent" unicode="&#x17b;" horiz-adv-x="1394" 
d="M1274 330v-330h-1154v72l544 938h-544v330h1154v-72l-546 -938h546zM698 1740q62 0 107 -45t45 -107t-45 -107t-107 -45t-107 45t-45 108t45 107t107 44z" />
    <glyph glyph-name="zdotaccent" unicode="&#x17c;" horiz-adv-x="1128" 
d="M1038 280v-280h-938v72l420 668h-400v280h898v-72l-442 -668h462zM570 1420q62 0 107 -45t45 -107t-45 -107t-107 -45t-107 45t-45 108t45 107t107 44z" />
    <glyph glyph-name="Zcaron" unicode="&#x17d;" horiz-adv-x="1394" 
d="M1274 330v-330h-1154v72l544 938h-544v330h1154v-72l-546 -938h546zM618 1740l80 -118l80 118h264l-240 -300h-208l-240 300h264z" />
    <glyph glyph-name="zcaron" unicode="&#x17e;" horiz-adv-x="1128" 
d="M1038 280v-280h-938v72l420 668h-400v280h898v-72l-442 -668h462zM490 1420l80 -118l80 118h264l-240 -300h-208l-240 300h264z" />
    <glyph glyph-name="circumflex" unicode="&#x2c6;" horiz-adv-x="1008" 
d="M848 1120h-264l-80 118l-80 -118h-264l240 300h208z" />
    <glyph glyph-name="caron" unicode="&#x2c7;" horiz-adv-x="928" 
d="M384 1420l80 -118l80 118h264l-240 -300h-208l-240 300h264z" />
    <glyph glyph-name="breve" unicode="&#x2d8;" horiz-adv-x="968" 
d="M484 1120q-138 0 -229 82t-95 218h204q18 -84 120 -84q46 0 78 26t42 58h204q-4 -136 -95 -218t-229 -82z" />
    <glyph glyph-name="dotaccent" unicode="&#x2d9;" horiz-adv-x="624" 
d="M311 1420q63 0 108 -45t45 -107t-45 -107t-107 -45t-107 45t-45 108t44 107t107 44z" />
    <glyph glyph-name="ring" unicode="&#x2da;" horiz-adv-x="682" 
d="M341 1356q-31 0 -54 -21t-23 -51t23 -51t54 -21t54 21t23 51t-23 51t-54 21zM342 1466q80 0 136 -53t56 -129t-56 -129t-136 -53t-137 53t-57 129t57 129t137 53z" />
    <glyph glyph-name="ogonek" unicode="&#x2db;" 
d="M568 -145q0 -71 83 -71q43 0 97 36v-226q-88 -44 -208 -44t-197 53t-77 148t69 161t165 90h280q-84 -20 -148 -67t-64 -80z" />
    <glyph glyph-name="tilde" unicode="&#x2dc;" horiz-adv-x="900" 
d="M644 1370h188q0 -134 -73 -206t-166 -72t-163 41t-88 41q-66 0 -66 -74h-188q0 134 73 206t166 72t163 -41t88 -41q66 0 66 74z" />
    <glyph glyph-name="hungarumlaut" unicode="&#x2dd;" horiz-adv-x="1096" 
d="M792 1120h-244l200 300h308zM384 1120h-244l200 300h308z" />
    <glyph glyph-name="uni0326" unicode="&#x326;" horiz-adv-x="0" 
d="M230 -202v158q92 0 156 -51t64 -147t-60 -152t-130 -56t-122 36v168q44 -30 95 -30t51 37t-54 37z" />
    <glyph glyph-name="Wgrave" unicode="&#x1e80;" horiz-adv-x="1948" 
d="M1492 0h-282l-234 710l-234 -710h-282l-440 1340h436l182 -696l208 696h256l212 -696l178 696h436zM1102 1440h-244l-264 300h308z" />
    <glyph glyph-name="wgrave" unicode="&#x1e81;" horiz-adv-x="1648" 
d="M1288 0h-266l-198 602l-198 -602h-270l-346 1020h356l150 -496l172 496h272l172 -496l150 496h356zM934 1120h-244l-264 300h308z" />
    <glyph glyph-name="Wacute" unicode="&#x1e82;" horiz-adv-x="1948" 
d="M1492 0h-282l-234 710l-234 -710h-282l-440 1340h436l182 -696l208 696h256l212 -696l178 696h436zM1050 1440h-244l200 300h308z" />
    <glyph glyph-name="wacute" unicode="&#x1e83;" horiz-adv-x="1648" 
d="M1288 0h-266l-198 602l-198 -602h-270l-346 1020h356l150 -496l172 496h272l172 -496l150 496h356zM882 1120h-244l200 300h308z" />
    <glyph glyph-name="Wdieresis" unicode="&#x1e84;" horiz-adv-x="1948" 
d="M1492 0h-282l-234 710l-234 -710h-282l-440 1340h436l182 -696l208 696h256l212 -696l178 696h436zM1183 1770q63 0 108 -45t45 -107t-45 -107t-107 -45t-107 45t-45 107t44 107t107 45zM763 1770q63 0 108 -45t45 -107t-45 -107t-107 -45t-107 45t-45 107t44 107t107 45
z" />
    <glyph glyph-name="wdieresis" unicode="&#x1e85;" horiz-adv-x="1648" 
d="M1288 0h-266l-198 602l-198 -602h-270l-346 1020h356l150 -496l172 496h272l172 -496l150 496h356zM1015 1450q63 0 108 -45t45 -107t-45 -107t-107 -45t-107 45t-45 107t44 107t107 45zM595 1450q63 0 108 -45t45 -107t-45 -107t-107 -45t-107 45t-45 107t44 107t107 45
z" />
    <glyph glyph-name="Ygrave" unicode="&#x1ef2;" horiz-adv-x="1462" 
d="M918 0h-374v462l-524 878h436l276 -496l274 496h436l-524 -878v-462zM616 1440l-264 300h308l200 -300h-244z" />
    <glyph glyph-name="ygrave" unicode="&#x1ef3;" horiz-adv-x="1244" 
d="M1234 1020l-732 -1500h-384l322 568l-430 932h396l226 -542l218 542h384zM496 1120l-264 300h308l200 -300h-244z" />
    <glyph glyph-name="endash" unicode="&#x2013;" 
d="M1100 376h-980v300h980v-300z" />
    <glyph glyph-name="emdash" unicode="&#x2014;" horiz-adv-x="1776" 
d="M1656 376h-1536v300h1536v-300z" />
    <glyph glyph-name="quoteleft" unicode="&#x2018;" horiz-adv-x="584" 
d="M544 1344l-180 -498l-284 56l220 474z" />
    <glyph glyph-name="quoteright" unicode="&#x2019;" horiz-adv-x="584" 
d="M524 1320l-220 -474l-244 32l180 498z" />
    <glyph glyph-name="quotesinglbase" unicode="&#x201a;" horiz-adv-x="758" 
d="M584 168l-220 -474l-244 32l180 498z" />
    <glyph glyph-name="quotedblleft" unicode="&#x201c;" horiz-adv-x="1024" 
d="M984 1354l-180 -498l-284 56l220 474zM544 1354l-180 -498l-284 56l220 474z" />
    <glyph glyph-name="quotedblright" unicode="&#x201d;" horiz-adv-x="944" 
d="M460 882l180 498l284 -56l-220 -474zM20 882l180 498l284 -56l-220 -474z" />
    <glyph glyph-name="quotedblbase" unicode="&#x201e;" horiz-adv-x="758" 
d="M584 168l-220 -474l-244 32l180 498z" />
    <glyph glyph-name="dagger" unicode="&#x2020;" horiz-adv-x="926" 
d="M846 760h-226v-960h-314v960h-226v280h226v300h314v-300h226v-280z" />
    <glyph glyph-name="daggerdbl" unicode="&#x2021;" 
d="M620 760v-270h226v-280h-226v-410h-314v410h-226v280h226v270h-226v280h226v300h314v-300h226v-280h-226z" />
    <glyph glyph-name="bullet" unicode="&#x2022;" horiz-adv-x="958" 
d="M477 926q131 0 226 -94t95 -225t-95 -225t-226 -94t-224 94t-93 225t93 225t224 94z" />
    <glyph glyph-name="ellipsis" unicode="&#x2026;" horiz-adv-x="1600" 
d="M1339 322q75 0 128 -53t53 -127t-53 -127t-127 -53t-127 53t-53 127t52 127t127 53zM799 322q75 0 128 -53t53 -127t-53 -127t-127 -53t-127 53t-53 127t52 127t127 53zM259 322q75 0 128 -53t53 -127t-53 -127t-127 -53t-127 53t-53 127t52 127t127 53z" />
    <glyph glyph-name="Euro" unicode="&#x20ac;" horiz-adv-x="1254" 
d="M950 1020q-168 0 -272 -140h302v-180h-368l-2 -30q0 -26 2 -40h368v-180h-294q104 -130 264 -130q120 0 224 90v-354q-52 -36 -132 -61t-146 -25q-208 0 -390 129t-248 351h-178v180h146v70h-146v180h174q64 226 248 358t394 132q70 0 156 -25t122 -61v-354
q-104 90 -224 90z" />
    <glyph glyph-name="trademark" unicode="&#x2122;" horiz-adv-x="1102" 
d="M1022 1340v-406h-146v140l-64 -72h-36l-72 72v-140h-146v406h94l142 -194l136 194h92zM80 1342h420v-124h-138v-284h-144v284h-138v124z" />
    <glyph glyph-name="minus" unicode="&#x2212;" horiz-adv-x="1062" 
d="M902 476h-742v300h742v-300z" />
    <glyph glyph-name="approxequal" unicode="&#x2248;" horiz-adv-x="1228" 
d="M864 608h244q0 -166 -86 -268t-226 -102q-76 0 -140 31t-114 62t-90 31t-64 -32t-24 -80h-244q0 166 86 268t226 102q76 0 140 -31t114 -62t91 -31t64 32t23 80zM864 1038h244q0 -166 -86 -268t-226 -102q-76 0 -140 31t-114 62t-90 31t-64 -32t-24 -80h-244
q0 166 86 268t226 102q76 0 140 -31t114 -62t91 -31t64 32t23 80z" />
    <glyph glyph-name="notequal" unicode="&#x2260;" horiz-adv-x="1102" 
d="M942 556v-300h-440l-78 -172h-236l78 172h-106v300h240l60 130h-300v300h434l52 114h242l-52 -114h106v-300h-244l-58 -130h302z" />
    <glyph glyph-name="lessequal" unicode="&#x2264;" horiz-adv-x="1156" 
d="M996 260v-260h-836v260h836zM996 994l-426 -196l426 -218v-282l-836 456v84l836 438v-282z" />
    <glyph glyph-name="greaterequal" unicode="&#x2265;" horiz-adv-x="1130" 
d="M996 0h-836v260h836v-260zM996 838v-84l-836 -456v282l426 218l-426 196v282z" />
    <glyph glyph-name="idotless" horiz-adv-x="738" 
d="M598 1020v-1020h-344v740h-166v280h510z" />
    </font>
</defs>
</svg>
