<?xml version="1.0" standalone="no"?>
<!DOCTYPE svg PUBLIC "-//W3C//DTD SVG 1.1//EN" "http://www.w3.org/Graphics/SVG/1.1/DTD/svg11.dtd" >
<svg xmlns="http://www.w3.org/2000/svg">
<metadata>
Created by FontPrep 20130207 at Thu Jun 25 00:34:57 2015
 By koleslaw
Copyright (c) 2015 by Kosal Sen, Philatype. All rights reserved.
</metadata>
<defs>
<font id="d50adfa411bc2df126ff882cfea088e8" horiz-adv-x='1024' >
  <font-face 
    font-family="Sen-Bold"
    font-weight="700"
    font-stretch="normal"
    units-per-em="2048"
    panose-1="0 0 8 0 0 0 0 0 0 0"
    ascent="1638"
    descent="-410"
    x-height="1010"
    cap-height="1340"
    bbox="-86 -510 2004 1860"
    underline-thickness="100"
    underline-position="-100"
    unicode-range="U+0020-2265"
  />
<missing-glyph horiz-adv-x="1000" 
d="M100 1210v-1020l340 510zM160 100h680l-340 510zM560 700l340 -510v1020zM500 790l340 510h-680zM0 0v1400h1000v-1400h-1000z" />
    <glyph glyph-name="tt" unicode="tt" horiz-adv-x="1662" 
d="M1392 216q90 0 166 46v-202q-90 -90 -232 -90t-227 88t-85 238v502h-492v-436q0 -146 124 -146q90 0 166 46v-202q-90 -90 -232 -90t-227 88t-85 238v502h-182v130q212 76 306 376h130v-294h342q116 0 180 65t114 219h110v-284h280v-212h-280v-436q0 -146 124 -146z" />
    <glyph glyph-name=".notdef" horiz-adv-x="1000" 
d="M100 1210v-1020l340 510zM160 100h680l-340 510zM560 700l340 -510v1020zM500 790l340 510h-680zM0 0v1400h1000v-1400h-1000z" />
    <glyph glyph-name=".null" horiz-adv-x="0" 
 />
    <glyph glyph-name="nonmarkingreturn" horiz-adv-x="682" 
 />
    <glyph glyph-name="space" unicode=" " horiz-adv-x="600" 
 />
    <glyph glyph-name="exclam" unicode="!" horiz-adv-x="640" 
d="M320 284q66 0 113 -47t47 -113t-47 -114t-113 -48t-113 48t-47 114t47 113t113 47zM432 460h-224v880h224v-880z" />
    <glyph glyph-name="quotedbl" unicode="&#x22;" horiz-adv-x="904" 
d="M764 842h-224v548h224v-548zM364 842h-224v548h224v-548z" />
    <glyph glyph-name="numbersign" unicode="#" horiz-adv-x="1620" 
d="M1004 786h-288l-84 -276h288zM1320 510v-200h-262l-96 -310h-196l94 310h-288l-96 -310h-196l94 310h-214v200h274l84 276h-218v220h284l102 334h202l-102 -334h284l102 334h202l-102 -334h188v-220h-256l-86 -276h202z" />
    <glyph glyph-name="dollar" unicode="$" horiz-adv-x="1124" 
d="M992 408q0 -134 -96 -231t-248 -127v-154h-188v146q-160 22 -306 122v250q190 -140 382 -140q80 0 132 32t52 90q0 76 -140 128l-198 72q-242 90 -242 338q0 136 91 231t229 125v120h188v-112q160 -18 274 -92v-250q-168 110 -318 110q-80 0 -140 -34t-60 -98
q0 -38 28 -67t59 -44t95 -41l158 -64q248 -96 248 -310z" />
    <glyph glyph-name="percent" unicode="%" horiz-adv-x="1648" 
d="M1266 408q-54 0 -91 -39t-37 -93t37 -93t91 -39t91 39t37 93t-37 93t-91 39zM1263 582q133 0 219 -89t86 -218t-85 -217t-219 -88t-219 88t-85 217t85 218t218 89zM386 1196q-54 0 -91 -39t-37 -93t37 -93t91 -39t91 39t37 93t-37 93t-91 39zM383 1370q133 0 219 -89
t86 -218t-85 -217t-219 -88t-219 88t-85 217t85 218t218 89zM1318 1326l-822 -1366l-162 84l816 1366z" />
    <glyph glyph-name="ampersand" unicode="&#x26;" horiz-adv-x="1484" 
d="M566 206q128 0 222 98q-142 154 -236 252q-88 -48 -131 -92t-43 -110t53 -107t135 -41zM524 1000q0 -66 96 -176q164 90 164 190q0 54 -40 87t-94 33t-90 -34t-36 -100zM540 -30q-198 0 -324 103t-126 267q0 130 82 216t226 158q-152 160 -152 312t118 248t287 96
t290 -97t121 -230t-78 -208t-188 -143q-4 -2 -6 -4t-5 -3t-25 -17q56 -64 168 -184q78 112 134 216h276q-122 -214 -248 -388q102 -106 304 -312h-318q-46 46 -130 134q-170 -164 -406 -164z" />
    <glyph glyph-name="quotesingle" unicode="'" horiz-adv-x="504" 
d="M364 792h-224v548h224v-548z" />
    <glyph glyph-name="parenleft" unicode="(" horiz-adv-x="766" 
d="M394 484q0 -230 89 -488t213 -396h-242q-132 136 -228 383t-96 501t97 508t227 388h242q-122 -136 -212 -401t-90 -495z" />
    <glyph glyph-name="parenright" unicode=")" horiz-adv-x="806" 
d="M676 484q0 -254 -96 -501t-228 -383h-242q124 138 213 396t89 488t-90 495t-212 401h242q130 -134 227 -388t97 -508z" />
    <glyph glyph-name="asterisk" unicode="*" horiz-adv-x="992" 
d="M584 1206l196 82l62 -186l-204 -60l144 -180l-158 -116l-128 196l-126 -196l-160 116l146 180l-206 60l64 186l196 -82l-12 226h196z" />
    <glyph glyph-name="plus" unicode="+" horiz-adv-x="1100" 
d="M940 506h-270v-272h-240v272h-270v240h270v270h240v-270h270v-240z" />
    <glyph glyph-name="comma" unicode="," horiz-adv-x="566" 
d="M450 174l-200 -504l-184 32l160 528z" />
    <glyph glyph-name="hyphen" unicode="-" horiz-adv-x="842" 
d="M722 396h-602v240h602v-240z" />
    <glyph glyph-name="period" unicode="." horiz-adv-x="552" 
d="M276 284q66 0 113 -47t47 -113t-47 -114t-113 -48t-113 48t-47 114t47 113t113 47z" />
    <glyph glyph-name="slash" unicode="/" horiz-adv-x="888" 
d="M276 -400h-196l526 1810h202z" />
    <glyph glyph-name="zero" unicode="0" 
d="M578 1128q-116 0 -177 -127t-61 -331t61 -330t177 -126t178 126t62 330t-62 331t-178 127zM578 1370q248 0 382 -198t134 -502t-134 -502t-382 -198t-382 198t-134 502t134 502t382 198z" />
    <glyph glyph-name="one" unicode="1" 
d="M1010 246v-246h-826v246h274v700q-92 -76 -262 -116v270q102 30 197 94t157 146h184v-1094h276z" />
    <glyph glyph-name="two" unicode="2" 
d="M548 1370q206 0 333 -112t127 -294q0 -120 -34 -192t-51 -105t-71 -99t-79 -95t-104 -116t-111 -123h460v-234h-874v112q360 388 434 478q154 192 154 297t-65 163t-160 58t-183 -45t-150 -111v284q64 56 165 95t209 39z" />
    <glyph glyph-name="three" unicode="3" 
d="M518 1370q202 0 339 -109t137 -277q0 -126 -78 -205t-184 -99q106 -24 184 -104t78 -204q0 -174 -140 -288t-348 -114q-102 0 -196 32t-152 80v262q64 -44 96 -64t95 -42t149 -22t153 50t67 136t-73 130t-177 44h-110v216h110q250 0 250 146q0 86 -73 136t-177 50
q-148 0 -274 -126v260q122 112 324 112z" />
    <glyph glyph-name="four" unicode="4" 
d="M640 522v314q-136 -204 -228 -314h228zM896 522h182v-226h-182v-296h-256v296h-564v164q408 448 646 880h174v-818z" />
    <glyph glyph-name="five" unicode="5" 
d="M948 1092h-486v-282q82 32 184 32q156 0 269 -110t113 -280q0 -224 -146 -353t-364 -129t-378 128v248q34 -17 59 -34q25 -18 52 -32t42 -21q92 -43 200 -43q107 0 183 53t76 147t-78 151t-190 57t-266 -50v766h730v-248z" />
    <glyph glyph-name="six" unicode="6" 
d="M586 654q-90 0 -155 -61t-65 -154t65 -158t155 -65t153 65t63 158t-63 154t-153 61zM652 894q182 0 304 -123t122 -317t-139 -339t-348 -145t-356 142t-147 374q0 108 38 222t85 197t125 180t122 143t110 112h350q-12 -12 -100 -94q-120 -112 -228 -226
q-107 -114 -162 -228q106 102 224 102z" />
    <glyph glyph-name="seven" unicode="7" 
d="M1074 1340v-114q-288 -482 -344 -630q-95 -252 -110 -369q-14 -117 -14 -227h-320q0 142 27 236t39 143t50 129t52 115q31 77 266 469h-596v248h950z" />
    <glyph glyph-name="eight" unicode="8" 
d="M575 594q-81 0 -141 -55t-60 -140t57 -141t144 -56t145 56t58 141t-61 140t-142 55zM575 1138q-71 0 -123 -49t-52 -125t52 -124t123 -48t124 48t53 124t-53 125t-124 49zM576 1370q180 0 301 -101t121 -265q0 -200 -184 -298q94 -38 159 -123t65 -193q0 -182 -132 -301
t-330 -119t-330 119t-132 301q0 108 65 193t159 123q-184 98 -184 298q0 164 121 265t301 101z" />
    <glyph glyph-name="nine" unicode="9" 
d="M570 686q90 0 155 62t65 155t-65 157t-155 64t-153 -64t-63 -158t63 -155t153 -61zM502 446q-182 0 -304 124t-122 318t139 338t348 144t356 -141t147 -391t-186 -501q-88 -119 -150 -188t-144 -149h-350q24 24 101 96q113 106 223 222t166 230q-106 -102 -224 -102z" />
    <glyph glyph-name="colon" unicode=":" horiz-adv-x="640" 
d="M320 284q66 0 113 -47t47 -113t-47 -114t-113 -48t-113 48t-47 114t47 113t113 47zM320 1084q66 0 113 -47t47 -113t-47 -113t-113 -47t-113 47t-47 113t47 113t113 47z" />
    <glyph glyph-name="semicolon" unicode=";" horiz-adv-x="728" 
d="M510 174l-200 -504l-184 32l160 528zM396 1084q66 0 113 -47t47 -113t-47 -113t-113 -47t-113 47t-47 113t47 113t113 47z" />
    <glyph glyph-name="less" unicode="&#x3c;" horiz-adv-x="1100" 
d="M990 910l-552 -304l552 -330v-276l-870 552v102l870 532v-276z" />
    <glyph glyph-name="equal" unicode="=" horiz-adv-x="1102" 
d="M942 302h-782v240h782v-240zM942 702h-782v240h782v-240z" />
    <glyph glyph-name="greater" unicode="&#x3e;" horiz-adv-x="1100" 
d="M970 654v-102l-870 -552v276l552 330l-552 304v276z" />
    <glyph glyph-name="question" unicode="?" horiz-adv-x="1170" 
d="M532 284q66 0 113 -47t47 -113t-47 -114t-113 -48t-113 48t-47 114t47 113t113 47zM550 1370q188 0 324 -113t136 -297q0 -72 -38 -135t-92 -106t-107 -82q-128 -94 -125 -159l2 -42h-254v80q0 48 55 104t120 99t120 102t55 127t-66 120t-170 52q-212 0 -350 -162v264
q144 148 390 148z" />
    <glyph glyph-name="at" unicode="@" horiz-adv-x="1618" 
d="M810 696q-90 0 -149 -53t-79 -146t17 -147t111 -54q178 0 224 204l32 134q-66 62 -156 62zM813 1224q305 0 513 -183t208 -489q0 -180 -111 -302t-277 -122q-82 0 -141 36t-77 90q-104 -126 -255 -126t-229 101t-55 270t138 275t257 106t212 -98l16 78h176l-90 -382
q-56 -188 72 -188q64 0 116 66t52 196q0 240 -148 365t-376 125t-380 -155t-152 -400t146 -383t375 -138t409 96l82 -148q-244 -128 -484 -128q-312 0 -518 193t-206 508t211 526t516 211z" />
    <glyph glyph-name="A" unicode="A" horiz-adv-x="1426" 
d="M882 486l-168 410l-168 -410h336zM978 250h-530l-102 -250h-326l624 1350h138l624 -1350h-326z" />
    <glyph glyph-name="B" unicode="B" horiz-adv-x="1394" 
d="M711 226q131 0 209 49t78 131t-77 120t-197 38h-246v-314q102 -24 233 -24zM478 1090v-320h252q98 0 159 43t61 118t-61 117t-159 42h-252zM1288 378q0 -170 -154 -287t-418 -117t-516 56v1310h588q180 0 308 -103t128 -267q0 -94 -48 -169t-138 -113q250 -70 250 -310z
" />
    <glyph glyph-name="C" unicode="C" horiz-adv-x="1286" 
d="M798 1370q228 0 378 -130v-280q-68 50 -104 74t-110 49t-156 25q-182 0 -307 -126t-125 -312t125 -311t320 -125t377 142v-270q-152 -136 -398 -136q-294 0 -501 198t-207 502t207 502t501 198z" />
    <glyph glyph-name="D" unicode="D" horiz-adv-x="1518" 
d="M478 1080v-822q110 -22 248 -22q202 0 310 119t108 313t-132 303t-336 109h-198zM200 1340h486q302 0 517 -169q103 -81 164 -208t61 -285q0 -304 -189 -504t-505 -200q-260 0 -534 54v1312z" />
    <glyph glyph-name="E" unicode="E" horiz-adv-x="1308" 
d="M478 1100v-304h592v-226h-592v-324h670v-246h-948v1340h948v-240h-670z" />
    <glyph glyph-name="F" unicode="F" horiz-adv-x="1270" 
d="M478 1090v-338h526v-250h-526v-502h-278v1340h914v-250h-636z" />
    <glyph glyph-name="G" unicode="G" horiz-adv-x="1426" 
d="M1322 712v-532q-88 -92 -228 -151t-296 -59q-294 0 -501 198t-207 502t207 502t501 198q228 0 378 -130v-280q-68 50 -104 74t-110 49t-156 25q-182 0 -307 -126t-125 -312t125 -311t298 -125t265 88l2 190h-168v200h426z" />
    <glyph glyph-name="H" unicode="H" horiz-adv-x="1576" 
d="M1376 1340v-1340h-276v544h-622v-544h-278v1340h278v-546h622v546h276z" />
    <glyph glyph-name="I" unicode="I" horiz-adv-x="1110" 
d="M694 1090v-840h226v-250h-730v250h226v840h-226v250h730v-250h-226z" />
    <glyph glyph-name="J" unicode="J" horiz-adv-x="700" 
d="M510 1344v-1262q0 -458 -488 -592l-108 248q318 94 318 332v1274h278z" />
    <glyph glyph-name="K" unicode="K" horiz-adv-x="1430" 
d="M478 0h-278v1340h278v-600l510 600h352l-524 -584l584 -756h-364l-412 544l-146 -164v-380z" />
    <glyph glyph-name="L" unicode="L" horiz-adv-x="1274" 
d="M478 250h670v-250h-948v1340h278v-1090z" />
    <glyph glyph-name="M" unicode="M" horiz-adv-x="1728" 
d="M1528 0h-278v840l-342 -380h-82l-348 380v-840h-278v1350h122l544 -578l540 578h122v-1350z" />
    <glyph glyph-name="N" unicode="N" horiz-adv-x="1572" 
d="M1372 -10h-102l-792 818v-808h-278v1350h102l792 -830v820h278v-1350z" />
    <glyph glyph-name="O" unicode="O" horiz-adv-x="1582" 
d="M792 1108q-180 0 -299 -125t-119 -313t119 -312t299 -124t298 124t118 312t-118 313t-298 125zM792 1370q294 0 497 -197t203 -503t-203 -503t-497 -197t-498 197t-204 503t204 503t498 197z" />
    <glyph glyph-name="P" unicode="P" horiz-adv-x="1330" 
d="M700 640q122 0 194 63t72 162t-77 157t-191 58h-230v-396q110 -44 232 -44zM190 1340h554q198 0 352 -133t154 -339t-147 -337t-353 -131q-158 0 -282 60v-460h-278v1340z" />
    <glyph glyph-name="Q" unicode="Q" horiz-adv-x="1646" 
d="M374 670q0 -188 119 -312t299 -124t298 124t118 312t-118 313t-298 125t-299 -125t-119 -313zM1520 -80v-246q-178 0 -382 81t-346 215q-294 0 -498 197t-204 503t204 503t498 197t497 -197t203 -503q0 -232 -122 -405t-320 -249q238 -96 470 -96z" />
    <glyph glyph-name="R" unicode="R" horiz-adv-x="1364" 
d="M478 1080v-338q112 -34 230 -34t188 49t70 140t-71 137t-187 46h-230zM478 0h-278v1340h544q206 0 356 -113t150 -321q0 -166 -117 -269t-291 -119l502 -518h-366l-500 550v-550z" />
    <glyph glyph-name="S" unicode="S" horiz-adv-x="1096" 
d="M575 1366q203 0 365 -106v-274q-192 120 -340 120q-88 0 -154 -37t-66 -109q0 -42 31 -74t63 -48t106 -46l164 -68q272 -116 272 -342q0 -176 -148 -292t-362 -116t-412 140v274q210 -152 420 -152q88 0 146 34t58 98q0 84 -156 140l-206 80q-266 102 -266 372
q0 178 141 292t344 114z" />
    <glyph glyph-name="T" unicode="T" horiz-adv-x="1242" 
d="M1188 1090h-428v-1084h-276v1084h-428v250h1132v-250z" />
    <glyph glyph-name="U" unicode="U" horiz-adv-x="1518" 
d="M1338 1344v-814q0 -256 -164 -407t-414 -151t-415 151t-165 407v814h278v-798q0 -150 82 -229t221 -77t220 80t81 226v798h276z" />
    <glyph glyph-name="V" unicode="V" horiz-adv-x="1426" 
d="M782 -10h-138l-624 1350h326l366 -886l368 886h326z" />
    <glyph glyph-name="W" unicode="W" horiz-adv-x="1918" 
d="M1446 0h-192l-298 862l-298 -862h-192l-446 1340h316l248 -846l282 846h186l278 -846l252 846h316z" />
    <glyph glyph-name="X" unicode="X" horiz-adv-x="1370" 
d="M872 662l478 -662h-350l-324 468l-316 -468h-340l466 672l-466 668h350l314 -486l316 486h350z" />
    <glyph glyph-name="Y" unicode="Y" horiz-adv-x="1362" 
d="M824 0h-284v492l-520 848h326l334 -564l336 564h326l-518 -834v-506z" />
    <glyph glyph-name="Z" unicode="Z" horiz-adv-x="1348" 
d="M1222 250v-250h-1094v72l644 1018h-644v250h1094v-72l-656 -1018h656z" />
    <glyph glyph-name="bracketleft" unicode="[" horiz-adv-x="798" 
d="M728 1160h-324v-1340h324v-220h-578v1780h578v-220z" />
    <glyph glyph-name="backslash" unicode="\" horiz-adv-x="778" 
d="M804 -400h-196l-634 1740h204z" />
    <glyph glyph-name="bracketright" unicode="]" horiz-adv-x="808" 
d="M658 1380v-1780h-578v220h324v1340h-324v220h578z" />
    <glyph glyph-name="asciicircum" unicode="^" horiz-adv-x="1204" 
d="M1106 640h-256l-260 416l-234 -416h-256l422 700h142z" />
    <glyph glyph-name="underscore" unicode="_" horiz-adv-x="980" 
d="M980 -262h-980v240h980v-240z" />
    <glyph glyph-name="grave" unicode="`" horiz-adv-x="728" 
d="M468 1280l-12 -134l-214 150l12 134z" />
    <glyph glyph-name="a" unicode="a" horiz-adv-x="1272" 
d="M618 788q-124 0 -196 -86t-72 -203t70 -196t179 -79t187 81t76 213v144q-120 126 -244 126zM556 1036q82 0 165 -38t141 -102v114h254v-1010h-254v170q-48 -88 -133 -144t-191 -56q-190 0 -321 143t-131 387t134 390t336 146z" />
    <glyph glyph-name="b" unicode="b" horiz-adv-x="1272" 
d="M673 782q-109 0 -187 -79t-76 -209v-146q124 -130 246 -130t194 88t72 205t-70 194t-179 77zM410 1440v-600q48 88 132 142t192 54q190 0 321 -140t131 -385t-135 -393t-335 -148q-82 0 -165 40t-141 104v-114h-254v1440h254z" />
    <glyph glyph-name="c" unicode="c" horiz-adv-x="984" 
d="M616 1036q168 0 298 -106v-234q-126 90 -259 90t-216 -82t-83 -205t80 -203t217 -80t261 88v-232q-120 -102 -298 -102q-224 0 -377 157t-153 374t153 376t377 159z" />
    <glyph glyph-name="d" unicode="d" horiz-adv-x="1272" 
d="M619 786q-125 0 -197 -85t-72 -202t70 -196t179 -79t187 81t76 213v144q-118 124 -243 124zM1116 0h-254v170q-48 -88 -133 -144t-191 -56q-190 0 -321 143t-131 387t134 390t336 146q82 0 165 -38t141 -102v544h254v-1440z" />
    <glyph glyph-name="e" unicode="e" 
d="M591 814q-93 0 -158 -59t-87 -161h484q-8 104 -77 162t-162 58zM1074 534v-106h-732q22 -104 102 -166t194 -62q166 0 308 92v-230q-122 -92 -333 -92t-369 149t-158 374t147 384t366 159t347 -139t128 -363z" />
    <glyph glyph-name="f" unicode="f" horiz-adv-x="802" 
d="M486 1084v-74h262v-212h-262v-798h-254v798h-154v212h154v90q0 168 103 269t238 101t209 -52v-212q-68 40 -142 38q-154 -4 -154 -160z" />
    <glyph glyph-name="g" unicode="g" horiz-adv-x="1272" 
d="M619 786q-125 0 -197 -85t-72 -202t70 -195t179 -78t187 81t76 211v144q-118 124 -243 124zM556 1036q82 0 165 -38t141 -102v114h254v-984q0 -246 -164 -391t-388 -145t-408 108v240q2 0 39 -19t48 -23t46 -20q114 -52 249 -52q136 0 230 76t94 194v176
q-48 -88 -133 -144t-191 -56q-190 0 -321 143t-131 387t134 390t336 146z" />
    <glyph glyph-name="h" unicode="h" horiz-adv-x="1214" 
d="M707 1036q169 0 270 -108t101 -308v-620h-254l-2 586q0 100 -48 151t-136 51q-120 0 -228 -148v-640h-254v1440h254v-574q128 170 297 170z" />
    <glyph glyph-name="i" unicode="i" horiz-adv-x="662" 
d="M510 1010v-1010h-254v794h-162v216h416zM368 1192q-72 0 -123 51t-51 121t51 121t123 51t124 -51t52 -121t-52 -121t-124 -51z" />
    <glyph glyph-name="j" unicode="j" horiz-adv-x="672" 
d="M500 1010v-998q0 -392 -362 -522l-112 220q110 52 165 121t55 171v792h-162v216h416zM355 1192q-71 0 -123 51t-52 121t51 121t123 51t125 -51t53 -120t-53 -121t-124 -52z" />
    <glyph glyph-name="k" unicode="k" horiz-adv-x="1190" 
d="M410 0h-254v1440h254v-880l412 450h318l-434 -436l474 -574h-330l-308 408l-132 -132v-276z" />
    <glyph glyph-name="l" unicode="l" horiz-adv-x="564" 
d="M410 0h-254v1440h254v-1440z" />
    <glyph glyph-name="m" unicode="m" horiz-adv-x="1846" 
d="M1331 1036q171 0 276 -108t105 -308v-620h-254l-2 586q0 100 -52 151t-147 51t-197 -138v-650h-254l-2 586q0 100 -51 151t-148 51t-195 -130v-658h-254v1010h254v-126q124 152 278 152q232 0 326 -196q146 196 317 196z" />
    <glyph glyph-name="n" unicode="n" horiz-adv-x="1214" 
d="M707 1036q169 0 270 -108t101 -308v-620h-254l-2 586q0 100 -48 151t-136 51q-120 0 -228 -148v-640h-254v1010h254v-144q128 170 297 170z" />
    <glyph glyph-name="o" unicode="o" horiz-adv-x="1252" 
d="M626 790q-114 0 -192 -78t-78 -210t78 -209t192 -77t193 77t79 209t-79 210t-193 78zM626 1036q222 0 382 -155t160 -378t-160 -378t-382 -155t-381 155t-159 378t159 378t381 155z" />
    <glyph glyph-name="p" unicode="p" horiz-adv-x="1272" 
d="M673 782q-109 0 -187 -79t-76 -209v-146q124 -130 246 -130t194 88t72 205t-70 194t-179 77zM734 1036q190 0 321 -140t131 -385t-135 -393t-335 -148q-82 0 -165 40t-141 104v-594h-254v1490h254v-170q48 88 132 142t192 54z" />
    <glyph glyph-name="q" unicode="q" horiz-adv-x="1272" 
d="M619 786q-125 0 -197 -85t-72 -202t70 -195t179 -78t187 81t76 211v144q-118 124 -243 124zM556 1036q82 0 165 -38t141 -102v114h254v-1490h-254v650q-48 -88 -133 -144t-191 -56q-190 0 -321 143t-131 387t134 390t336 146z" />
    <glyph glyph-name="r" unicode="r" horiz-adv-x="854" 
d="M694 1030q64 0 120 -28v-290q-72 50 -156 50q-142 0 -248 -198v-564h-254v1010h254v-190q122 210 284 210z" />
    <glyph glyph-name="s" unicode="s" horiz-adv-x="884" 
d="M482 1036q90 0 171 -26t127 -66v-224q-136 92 -260 92q-70 0 -113 -31t-43 -77q0 -70 116 -106l114 -38q230 -68 230 -266q0 -138 -114 -231t-278 -93q-96 0 -192 31t-152 71v222q60 -42 150 -73t160 -31q158 0 158 104q0 36 -30 58t-104 46l-124 44q-204 68 -204 274
q0 142 108 231t280 89z" />
    <glyph glyph-name="t" unicode="t" horiz-adv-x="916" 
d="M522 1010h280v-212h-280v-436q0 -146 124 -146q90 0 166 46v-202q-90 -90 -232 -90t-227 88t-85 238v502h-182v130q212 76 306 376h130v-294z" />
    <glyph glyph-name="u" unicode="u" horiz-adv-x="1182" 
d="M1048 1010v-602q0 -198 -128 -316t-328 -118t-328 118t-128 316v602h256l2 -556q0 -114 53 -174t145 -60t145 60t53 174v556h258z" />
    <glyph glyph-name="v" unicode="v" horiz-adv-x="1152" 
d="M654 0h-162l-472 1010h296l254 -626l266 626h296z" />
    <glyph glyph-name="w" unicode="w" horiz-adv-x="1580" 
d="M1210 0h-184l-236 654l-236 -654h-186l-348 1010h276l186 -598l218 598h182l216 -598l186 598h276z" />
    <glyph glyph-name="x" unicode="x" horiz-adv-x="1192" 
d="M756 516l416 -516h-318l-258 344l-258 -344h-318l416 516l-402 494h300l262 -316l262 316h300z" />
    <glyph glyph-name="y" unicode="y" horiz-adv-x="1194" 
d="M1174 1010l-734 -1490h-288l304 554l-436 936h296l288 -644l280 644h290z" />
    <glyph glyph-name="z" unicode="z" horiz-adv-x="1114" 
d="M1014 218v-218h-908v64l500 730h-470v216h858v-62l-522 -730h542z" />
    <glyph glyph-name="braceleft" unicode="{" horiz-adv-x="928" 
d="M848 1160h-88q-120 0 -158 -62t-38 -188v-230q0 -122 -130 -190q130 -68 130 -190v-230q0 -126 38 -188t158 -62h88v-220h-188q-154 0 -252 105t-98 259v242q0 94 -29 129t-121 35v240q92 0 121 35t29 129v242q0 154 98 259t252 105h188v-220z" />
    <glyph glyph-name="bar" unicode="|" horiz-adv-x="520" 
d="M360 -400h-200v1810h200v-1810z" />
    <glyph glyph-name="braceright" unicode="}" horiz-adv-x="928" 
d="M80 1380h188q154 0 252 -105t98 -259v-242q0 -94 29 -129t121 -35v-240q-92 0 -121 -35t-29 -129v-242q0 -154 -98 -259t-252 -105h-188v220h88q120 0 158 62t38 188v230q0 122 130 190q-130 68 -130 190v230q0 126 -38 188t-158 62h-88v220z" />
    <glyph glyph-name="asciitilde" unicode="~" horiz-adv-x="1138" 
d="M814 862h204q0 -136 -79 -223t-203 -87q-76 0 -135 31t-104 62t-85 31t-64 -32t-24 -80h-204q0 136 79 223t203 87q76 0 135 -31t104 -62t86 -31t64 32t23 80z" />
    <glyph glyph-name="exclamdown" unicode="&#xa1;" horiz-adv-x="582" 
d="M208 -20v882h224v-882h-224zM320 1038q-66 0 -113 47t-47 113t47 113t113 47t113 -47t47 -113t-47 -113t-113 -47z" />
    <glyph glyph-name="cent" unicode="&#xa2;" horiz-adv-x="984" 
d="M356 498q0 -88 43 -156t117 -100v516q-72 -34 -116 -103t-44 -157zM706 -160h-190v140q-188 34 -309 182t-121 338t121 340t309 186v134h190v-132q114 -20 208 -98v-234q-100 72 -208 86v-562q112 16 208 84v-232q-86 -74 -208 -94v-138z" />
    <glyph glyph-name="sterling" unicode="&#xa3;" horiz-adv-x="1092" 
d="M590 864v-96h278v-210h-278v-42q0 -168 -108 -260h510v-256h-832v206q72 24 117 109t45 183v60h-160v210h160v130q0 218 131 340t311 122q78 0 148 -26t106 -62v-246q-104 84 -226 82q-80 -2 -141 -66t-61 -178z" />
    <glyph glyph-name="currency" unicode="&#xa4;" horiz-adv-x="1068" 
d="M354 510q0 -78 52 -125t128 -47t128 47t52 125t-52 125t-128 47t-128 -47t-52 -125zM534 142q-96 0 -186 48l-126 -126l-136 130l124 124q-58 86 -58 191t58 195l-122 122l132 130l128 -126q90 48 187 48t187 -50l128 128l130 -130l-120 -124q56 -92 56 -192t-56 -192
l124 -124l-138 -130l-126 126q-90 -48 -186 -48z" />
    <glyph glyph-name="yen" unicode="&#xa5;" horiz-adv-x="1362" 
d="M1118 660v-160h-294v-90h294v-160h-294v-250h-284v250h-294v160h294v82l-6 8h-288v160h190l-416 680h326l334 -564l336 564h326l-422 -680h198z" />
    <glyph glyph-name="brokenbar" unicode="&#xa6;" horiz-adv-x="520" 
d="M360 -400h-200v832h200v-832zM360 578h-200v832h200v-832z" />
    <glyph glyph-name="section" unicode="&#xa7;" horiz-adv-x="1096" 
d="M380 497q0 -43 31 -77t65 -51t104 -47l96 -40q42 32 42 86q0 96 -156 156l-148 60q-34 -44 -34 -87zM1016 -70q0 -174 -148 -290t-363 -116t-411 138v274q210 -152 420 -152q88 0 146 35t58 97q0 86 -156 142l-206 80q-148 56 -207 146t-59 212t92 218q-92 90 -92 257
t141 281t344 114t365 -106v-274q-192 120 -340 120q-88 0 -154 -37t-66 -109q0 -42 31 -74t63 -48t106 -46l164 -68q272 -116 272 -332q0 -140 -96 -240q96 -88 96 -222z" />
    <glyph glyph-name="dieresis" unicode="&#xa8;" horiz-adv-x="1018" 
d="M725 1444q57 0 98 -41t41 -97t-41 -98t-98 -42t-98 41t-41 99t41 98t98 40zM305 1444q57 0 98 -41t41 -97t-41 -98t-98 -42t-98 41t-41 99t41 98t98 40z" />
    <glyph glyph-name="copyright" unicode="&#xa9;" horiz-adv-x="1748" 
d="M918 1110q132 0 242 -86v-190q-100 72 -209 72t-177 -67t-68 -166t65 -164t177 -65t212 72v-190q-100 -82 -242 -82q-182 0 -306 127t-124 303t124 306t306 130zM874 1270q-264 0 -427 -167t-163 -432t163 -432t427 -167t427 166t163 432t-163 433t-427 167zM874 1446
q332 0 558 -227t226 -549t-226 -549t-558 -227t-558 227t-226 549t226 549t558 227z" />
    <glyph glyph-name="registered" unicode="&#xae;" horiz-adv-x="1748" 
d="M778 912v-200q66 -20 137 -20t112 29t41 83q0 108 -152 108h-138zM1238 822q0 -110 -70 -172t-172 -70l296 -308h-216l-298 326v-326h-164v794h324q122 0 211 -67t89 -177zM874 72q264 0 427 166t163 432t-163 433t-427 167t-427 -167t-163 -432t163 -432t427 -167z
M874 1446q332 0 558 -227t226 -549t-226 -549t-558 -227t-558 227t-226 549t226 549t558 227z" />
    <glyph glyph-name="macron" unicode="&#xaf;" horiz-adv-x="1100" 
d="M910 1238h-720v190h720v-190z" />
    <glyph glyph-name="degree" unicode="&#xb0;" horiz-adv-x="856" 
d="M430 1174q-60 0 -103 -44t-43 -105t42 -105t103 -44t103 44t42 105t-42 105t-102 44zM430 1370q148 0 245 -101t97 -244t-97 -244t-245 -101t-246 101t-98 244t98 244t246 101z" />
    <glyph glyph-name="plusminus" unicode="&#xb1;" horiz-adv-x="1062" 
d="M902 220v-220h-742v220h742zM420 568h-260v220h260v220h220v-220h260v-220h-260v-222h-220v222z" />
    <glyph glyph-name="acute" unicode="&#xb4;" horiz-adv-x="678" 
d="M354 1146h-204l210 284h268z" />
    <glyph glyph-name="paragraph" unicode="&#xb6;" horiz-adv-x="1324" 
d="M980 -420v1578h-170v-1578h-150v944h-100q-202 0 -341 102t-139 306q0 106 40 188t109 128q138 92 331 92h564v-1760h-144z" />
    <glyph glyph-name="periodcentered" unicode="&#xb7;" horiz-adv-x="640" 
d="M320 846q66 0 113 -47t47 -113t-47 -113t-113 -47t-113 47t-47 113t47 113t113 47z" />
    <glyph glyph-name="cedilla" unicode="&#xb8;" horiz-adv-x="702" 
d="M552 -287q0 -83 -62 -138t-162 -55t-162 50l14 128q88 -46 130 -46q84 0 84 55t-68 55q-32 0 -66 -18l-40 24l26 236h128l-8 -120q80 6 133 -41t53 -130z" />
    <glyph glyph-name="questiondown" unicode="&#xbf;" horiz-adv-x="1170" 
d="M620 -398q-188 0 -324 113t-136 297q0 88 58 164t126 120t124 98t54 100l-2 42h254v-80q0 -48 -55 -104t-120 -99t-120 -102t-55 -127t66 -120t170 -52q212 0 350 162v-264q-144 -148 -390 -148zM639 690q-67 0 -114 47t-47 112t48 113t113 48t112 -47t47 -114t-46 -113
t-113 -46z" />
    <glyph glyph-name="Agrave" unicode="&#xc0;" horiz-adv-x="1426" 
d="M882 486l-168 410l-168 -410h336zM978 250h-530l-102 -250h-326l624 1350h138l624 -1350h-326zM700 1476l-214 150l12 134l214 -150z" />
    <glyph glyph-name="Aacute" unicode="&#xc1;" horiz-adv-x="1426" 
d="M882 486l-168 410l-168 -410h336zM978 250h-530l-102 -250h-326l624 1350h138l624 -1350h-326zM780 1476h-204l210 284h268z" />
    <glyph glyph-name="Acircumflex" unicode="&#xc2;" horiz-adv-x="1426" 
d="M882 486l-168 410l-168 -410h336zM978 250h-530l-102 -250h-326l624 1350h138l624 -1350h-326zM592 1472h-214l260 288h148l260 -288h-214l-120 136z" />
    <glyph glyph-name="Atilde" unicode="&#xc3;" horiz-adv-x="1426" 
d="M882 486l-168 410l-168 -410h336zM978 250h-530l-102 -250h-326l624 1350h138l624 -1350h-326zM599 1570q-29 0 -48 -24t-19 -60h-162q0 112 66 177t155 65t159 -46t96 -46q68 0 68 84h162q0 -112 -66 -177t-155 -65t-158 46t-98 46z" />
    <glyph glyph-name="Adieresis" unicode="&#xc4;" horiz-adv-x="1426" 
d="M882 486l-168 410l-168 -410h336zM978 250h-530l-102 -250h-326l624 1350h138l624 -1350h-326zM923 1496q-57 0 -98 41t-41 98t40 98t98 41t99 -41t41 -97t-41 -98t-98 -42zM503 1496q-57 0 -98 41t-41 98t40 98t98 41t99 -41t41 -97t-41 -98t-98 -42z" />
    <glyph glyph-name="Aring" unicode="&#xc5;" horiz-adv-x="1426" 
d="M882 486l-168 410l-168 -410h336zM978 250h-530l-102 -250h-326l624 1350h138l624 -1350h-326zM712 1692q-32 0 -56 -23t-24 -55t23 -55t56 -23t56 23t23 55t-23 55t-55 23zM713 1440q-75 0 -128 51t-53 123t53 123t128 51t126 -51t51 -123t-51 -123t-126 -51z" />
    <glyph glyph-name="AE" unicode="&#xc6;" horiz-adv-x="2164" 
d="M1056 540v496l-350 -496h350zM1334 1100v-304h592v-226h-592v-324h670v-246h-948v326h-500l-230 -326h-306l966 1340h1018v-240h-670z" />
    <glyph glyph-name="Ccedilla" unicode="&#xc7;" horiz-adv-x="1286" 
d="M1004 -287q0 -83 -62 -138t-162 -55t-162 50l14 128q88 -46 130 -46q84 0 84 55t-68 55q-32 0 -66 -18l-40 24l24 208q-260 36 -433 227t-173 481t207 488t501 198q228 0 378 -130v-280q-68 50 -104 74t-110 49t-156 25q-182 0 -307 -126t-125 -312t125 -311t320 -125
t377 142v-270q-144 -128 -372 -136l-6 -86q80 6 133 -41t53 -130z" />
    <glyph glyph-name="Egrave" unicode="&#xc8;" horiz-adv-x="1308" 
d="M478 1100v-304h592v-226h-592v-324h670v-246h-948v1340h948v-240h-670zM662 1476l-214 150l12 134l214 -150z" />
    <glyph glyph-name="Eacute" unicode="&#xc9;" horiz-adv-x="1308" 
d="M478 1100v-304h592v-226h-592v-324h670v-246h-948v1340h948v-240h-670zM742 1476h-204l210 284h268z" />
    <glyph glyph-name="Ecircumflex" unicode="&#xca;" horiz-adv-x="1308" 
d="M478 1100v-304h592v-226h-592v-324h670v-246h-948v1340h948v-240h-670zM554 1472h-214l260 288h148l260 -288h-214l-120 136z" />
    <glyph glyph-name="Edieresis" unicode="&#xcb;" horiz-adv-x="1308" 
d="M478 1100v-304h592v-226h-592v-324h670v-246h-948v1340h948v-240h-670zM887 1496q-57 0 -98 41t-41 98t40 98t98 41t99 -41t41 -97t-41 -98t-98 -42zM467 1496q-57 0 -98 41t-41 98t40 98t98 41t99 -41t41 -97t-41 -98t-98 -42z" />
    <glyph glyph-name="Igrave" unicode="&#xcc;" horiz-adv-x="1110" 
d="M694 1090v-840h226v-250h-730v250h226v840h-226v250h730v-250h-226zM548 1476l-214 150l12 134l214 -150z" />
    <glyph glyph-name="Iacute" unicode="&#xcd;" horiz-adv-x="1110" 
d="M694 1090v-840h226v-250h-730v250h226v840h-226v250h730v-250h-226zM628 1476h-204l210 284h268z" />
    <glyph glyph-name="Icircumflex" unicode="&#xce;" horiz-adv-x="1110" 
d="M694 1090v-840h226v-250h-730v250h226v840h-226v250h730v-250h-226zM440 1472h-214l260 288h148l260 -288h-214l-120 136z" />
    <glyph glyph-name="Idieresis" unicode="&#xcf;" horiz-adv-x="1110" 
d="M694 1090v-840h226v-250h-730v250h226v840h-226v250h730v-250h-226zM771 1496q-57 0 -98 41t-41 98t40 98t98 41t99 -41t41 -97t-41 -98t-98 -42zM351 1496q-57 0 -98 41t-41 98t40 98t98 41t99 -41t41 -97t-41 -98t-98 -42z" />
    <glyph glyph-name="Eth" unicode="&#xd0;" horiz-adv-x="1518" 
d="M726 236q202 0 310 119t108 313t-132 303t-336 109h-198v-286h162v-240h-162v-296q110 -22 248 -22zM200 1340h486q302 0 517 -169q103 -81 164 -208t61 -285q0 -304 -189 -504t-505 -200q-260 0 -534 54v526h-162v240h162v546z" />
    <glyph glyph-name="Ntilde" unicode="&#xd1;" horiz-adv-x="1572" 
d="M1372 -10h-102l-792 818v-808h-278v1350h102l792 -830v820h278v-1350zM986 1720h162q0 -112 -66 -177t-155 -65t-158 46t-98 46t-48 -24t-19 -60h-162q0 112 66 177t155 65t159 -46t96 -46q68 0 68 84z" />
    <glyph glyph-name="Ograve" unicode="&#xd2;" horiz-adv-x="1582" 
d="M792 1108q-180 0 -299 -125t-119 -313t119 -312t299 -124t298 124t118 312t-118 313t-298 125zM792 1370q294 0 497 -197t203 -503t-203 -503t-497 -197t-498 197t-204 503t204 503t498 197zM792 1610l-12 -134l-214 150l12 134z" />
    <glyph glyph-name="Oacute" unicode="&#xd3;" horiz-adv-x="1582" 
d="M792 1108q-180 0 -299 -125t-119 -313t119 -312t299 -124t298 124t118 312t-118 313t-298 125zM792 1370q294 0 497 -197t203 -503t-203 -503t-497 -197t-498 197t-204 503t204 503t498 197zM860 1476h-204l210 284h268z" />
    <glyph glyph-name="Ocircumflex" unicode="&#xd4;" horiz-adv-x="1582" 
d="M792 1108q-180 0 -299 -125t-119 -313t119 -312t299 -124t298 124t118 312t-118 313t-298 125zM792 1370q294 0 497 -197t203 -503t-203 -503t-497 -197t-498 197t-204 503t204 503t498 197zM1126 1472h-214l-120 136l-120 -136h-214l260 288h148z" />
    <glyph glyph-name="Otilde" unicode="&#xd5;" horiz-adv-x="1582" 
d="M792 1108q-180 0 -299 -125t-119 -313t119 -312t299 -124t298 124t118 312t-118 313t-298 125zM792 1370q294 0 497 -197t203 -503t-203 -503t-497 -197t-498 197t-204 503t204 503t498 197zM994 1720h162q0 -112 -66 -177t-155 -65t-158 46t-98 46t-48 -24t-19 -60h-162
q0 112 66 177t155 65t159 -46t96 -46q68 0 68 84z" />
    <glyph glyph-name="Odieresis" unicode="&#xd6;" horiz-adv-x="1582" 
d="M792 1108q-180 0 -299 -125t-119 -313t119 -312t299 -124t298 124t118 312t-118 313t-298 125zM792 1370q294 0 497 -197t203 -503t-203 -503t-497 -197t-498 197t-204 503t204 503t498 197zM1002 1774q58 0 99 -41t41 -97t-41 -98t-98 -42t-98 41t-41 98t40 98t98 41z
M582 1774q58 0 99 -41t41 -97t-41 -98t-98 -42t-98 41t-41 98t40 98t98 41z" />
    <glyph glyph-name="multiply" unicode="&#xd7;" horiz-adv-x="1100" 
d="M696 628l190 -192l-170 -170l-190 190l-192 -192l-170 170l192 194l-190 190l170 170l190 -190l190 190l170 -170z" />
    <glyph glyph-name="Oslash" unicode="&#xd8;" horiz-adv-x="1582" 
d="M792 234q180 0 298 124t118 312q0 150 -78 262l-540 -648q94 -50 202 -50zM374 683q0 -175 92 -293l546 656q-100 62 -220 62q-180 0 -299 -125t-119 -300zM1492 660q0 -296 -203 -493t-497 -197q-204 0 -378 104l-86 -104l-128 100l86 104q-196 202 -196 502t204 497
t498 197q218 0 394 -114l94 114l134 -100l-102 -122q180 -192 180 -488z" />
    <glyph glyph-name="Ugrave" unicode="&#xd9;" horiz-adv-x="1518" 
d="M1338 1344v-814q0 -256 -164 -407t-414 -151t-415 151t-165 407v814h278v-798q0 -150 82 -229t221 -77t220 80t81 226v798h276zM760 1610l-12 -134l-214 150l12 134z" />
    <glyph glyph-name="Uacute" unicode="&#xda;" horiz-adv-x="1518" 
d="M1338 1344v-814q0 -256 -164 -407t-414 -151t-415 151t-165 407v814h278v-798q0 -150 82 -229t221 -77t220 80t81 226v798h276zM828 1476h-204l210 284h268z" />
    <glyph glyph-name="Ucircumflex" unicode="&#xdb;" horiz-adv-x="1518" 
d="M1338 1344v-814q0 -256 -164 -407t-414 -151t-415 151t-165 407v814h278v-798q0 -150 82 -229t221 -77t220 80t81 226v798h276zM1094 1472h-214l-120 136l-120 -136h-214l260 288h148z" />
    <glyph glyph-name="Udieresis" unicode="&#xdc;" horiz-adv-x="1518" 
d="M1338 1344v-814q0 -256 -164 -407t-414 -151t-415 151t-165 407v814h278v-798q0 -150 82 -229t221 -77t220 80t81 226v798h276zM970 1774q58 0 99 -41t41 -97t-41 -98t-98 -42t-98 41t-41 98t40 98t98 41zM550 1774q58 0 99 -41t41 -97t-41 -98t-98 -42t-98 41t-41 98
t40 98t98 41z" />
    <glyph glyph-name="Yacute" unicode="&#xdd;" horiz-adv-x="1362" 
d="M824 0h-284v492l-520 848h326l334 -564l336 564h326l-518 -834v-506zM750 1476h-204l210 284h268z" />
    <glyph glyph-name="Thorn" unicode="&#xde;" horiz-adv-x="1318" 
d="M710 478q264 0 264 203q0 93 -76 142t-192 49h-252v-334q112 -60 256 -60zM454 1112h332q178 0 315 -122t137 -308t-135 -310t-347 -124q-144 0 -302 48v-296h-254v1340h254v-228z" />
    <glyph glyph-name="germandbls" unicode="&#xdf;" horiz-adv-x="1352" 
d="M529 1450q173 0 301 -108t128 -288q0 -76 -40 -137t-80 -107t-40 -74t7 -42t15 -23q20 -22 132 -67l116 -50q224 -94 224 -264q0 -140 -116 -225t-292 -85t-322 88v210q158 -92 338 -92q70 0 118 24t48 70q0 62 -166 126l-138 52q-202 80 -202 244q0 54 24 106t53 85
q77 88 77 164q0 77 -54 128t-128 49q-182 -4 -182 -214v-1020h-224v1058q0 190 115 291t288 101z" />
    <glyph glyph-name="agrave" unicode="&#xe0;" horiz-adv-x="1272" 
d="M618 788q-124 0 -196 -86t-72 -203t70 -196t179 -79t187 81t76 213v144q-120 126 -244 126zM556 1036q82 0 165 -38t141 -102v114h254v-1010h-254v170q-48 -88 -133 -144t-191 -56q-190 0 -321 143t-131 387t134 390t336 146zM634 1280l-12 -134l-214 150l12 134z" />
    <glyph glyph-name="aacute" unicode="&#xe1;" horiz-adv-x="1272" 
d="M618 788q-124 0 -196 -86t-72 -203t70 -196t179 -79t187 81t76 213v144q-120 126 -244 126zM556 1036q82 0 165 -38t141 -102v114h254v-1010h-254v170q-48 -88 -133 -144t-191 -56q-190 0 -321 143t-131 387t134 390t336 146zM702 1146h-204l210 284h268z" />
    <glyph glyph-name="acircumflex" unicode="&#xe2;" horiz-adv-x="1272" 
d="M618 788q-124 0 -196 -86t-72 -203t70 -196t179 -79t187 81t76 213v144q-120 126 -244 126zM556 1036q82 0 165 -38t141 -102v114h254v-1010h-254v170q-48 -88 -133 -144t-191 -56q-190 0 -321 143t-131 387t134 390t336 146zM968 1142h-214l-120 136l-120 -136h-214
l260 288h148z" />
    <glyph glyph-name="atilde" unicode="&#xe3;" horiz-adv-x="1272" 
d="M618 788q-124 0 -196 -86t-72 -203t70 -196t179 -79t187 81t76 213v144q-120 126 -244 126zM556 1036q82 0 165 -38t141 -102v114h254v-1010h-254v170q-48 -88 -133 -144t-191 -56q-190 0 -321 143t-131 387t134 390t336 146zM838 1390h162q0 -112 -66 -177t-155 -65
t-158 46t-98 46t-48 -24t-19 -60h-162q0 112 66 177t155 65t159 -46t96 -46q68 0 68 84z" />
    <glyph glyph-name="adieresis" unicode="&#xe4;" horiz-adv-x="1272" 
d="M618 788q-124 0 -196 -86t-72 -203t70 -196t179 -79t187 81t76 213v144q-120 126 -244 126zM556 1036q82 0 165 -38t141 -102v114h254v-1010h-254v170q-48 -88 -133 -144t-191 -56q-190 0 -321 143t-131 387t134 390t336 146zM846 1444q58 0 99 -41t41 -98t-41 -98
t-98 -41t-98 41t-41 99t40 98t98 40zM426 1444q58 0 99 -41t41 -98t-41 -98t-98 -41t-98 41t-41 99t40 98t98 40z" />
    <glyph glyph-name="aring" unicode="&#xe5;" horiz-adv-x="1272" 
d="M618 788q-124 0 -196 -86t-72 -203t70 -196t179 -79t187 81t76 213v144q-120 126 -244 126zM556 1036q82 0 165 -38t141 -102v114h254v-1010h-254v170q-48 -88 -133 -144t-191 -56q-190 0 -321 143t-131 387t134 390t336 146zM634 1362q-32 0 -56 -23t-24 -55t23 -55
t56 -23t56 23t23 55t-23 55t-55 23zM635 1458q75 0 126 -51t51 -123t-51 -123t-126 -51t-128 51t-53 123t53 123t128 51z" />
    <glyph glyph-name="ae" unicode="&#xe6;" horiz-adv-x="2008" 
d="M599 224q109 0 187 81t76 213v144q-120 126 -244 126t-196 -86t-72 -203t70 -196t179 -79zM1449 814q-93 0 -158 -59t-87 -161h484q-8 104 -77 162t-162 58zM1932 534v-106h-732q22 -104 102 -166t194 -62q166 0 308 92v-230q-122 -92 -328 -92t-360 136v-106h-254v170
q-48 -88 -133 -144t-191 -56q-190 0 -321 143t-131 387t134 390t336 146q82 0 165 -38t141 -102v114h254v-108q140 134 350 134t338 -139t128 -363z" />
    <glyph glyph-name="ccedilla" unicode="&#xe7;" horiz-adv-x="984" 
d="M655 786q-133 0 -216 -82t-83 -205t80 -203t217 -80t261 88v-232q-106 -94 -272 -102l-6 -86q80 6 133 -41t53 -130t-62 -138t-162 -55t-162 50l14 128q88 -46 130 -46q84 0 84 55t-68 55q-32 0 -66 -18l-40 24l24 212q-188 36 -308 184t-120 351t153 362t377 159
q168 0 298 -106v-234q-126 90 -259 90z" />
    <glyph glyph-name="egrave" unicode="&#xe8;" 
d="M591 814q-93 0 -158 -59t-87 -161h484q-8 104 -77 162t-162 58zM1074 534v-106h-732q22 -104 102 -166t194 -62q166 0 308 92v-230q-122 -92 -333 -92t-369 149t-158 374t147 384t366 159t347 -139t128 -363zM608 1280l-12 -134l-214 150l12 134z" />
    <glyph glyph-name="eacute" unicode="&#xe9;" 
d="M591 814q-93 0 -158 -59t-87 -161h484q-8 104 -77 162t-162 58zM1074 534v-106h-732q22 -104 102 -166t194 -62q166 0 308 92v-230q-122 -92 -333 -92t-369 149t-158 374t147 384t366 159t347 -139t128 -363zM950 1430l-274 -284h-204l210 284h268z" />
    <glyph glyph-name="ecircumflex" unicode="&#xea;" 
d="M591 814q-93 0 -158 -59t-87 -161h484q-8 104 -77 162t-162 58zM1074 534v-106h-732q22 -104 102 -166t194 -62q166 0 308 92v-230q-122 -92 -333 -92t-369 149t-158 374t147 384t366 159t347 -139t128 -363zM608 1278l-120 -136h-214l260 288h148l260 -288h-214z" />
    <glyph glyph-name="edieresis" unicode="&#xeb;" 
d="M591 814q-93 0 -158 -59t-87 -161h484q-8 104 -77 162t-162 58zM1074 534v-106h-732q22 -104 102 -166t194 -62q166 0 308 92v-230q-122 -92 -333 -92t-369 149t-158 374t147 384t366 159t347 -139t128 -363zM819 1166q-57 0 -98 41t-41 99t40 98t98 40t99 -41t41 -98
t-41 -98t-98 -41zM399 1166q-57 0 -98 41t-41 99t40 98t98 40t99 -41t41 -98t-41 -98t-98 -41z" />
    <glyph glyph-name="igrave" unicode="&#xec;" horiz-adv-x="588" 
d="M538 1010v-1010h-254v794h-162v216h416zM330 1146l-214 150l12 134l214 -150z" />
    <glyph glyph-name="iacute" unicode="&#xed;" horiz-adv-x="584" 
d="M510 1010v-1010h-254v794h-162v216h416zM380 1146h-204l210 284h268z" />
    <glyph glyph-name="icircumflex" unicode="&#xee;" horiz-adv-x="614" 
d="M568 1010v-1010h-254v794h-162v216h416zM194 1142h-214l260 288h148l260 -288h-214l-120 136z" />
    <glyph glyph-name="idieresis" unicode="&#xef;" horiz-adv-x="614" 
d="M538 1010v-1010h-254v794h-162v216h416zM526 1444q58 0 99 -41t41 -98t-41 -98t-98 -41t-98 41t-41 99t40 98t98 40zM244 1305q0 -57 -42 -98t-98 -41t-98 41t-42 98t41 98t99 41t99 -41t41 -98z" />
    <glyph glyph-name="eth" unicode="&#xf0;" horiz-adv-x="1226" 
d="M616 196q130 0 215 87t85 218t-85 218t-215 87t-215 -87t-85 -218t85 -218t215 -87zM1140 568q0 -266 -150 -432t-373 -166t-377 153t-154 375t152 367t368 145q156 0 288 -150q-38 114 -160 250l-160 -78l-64 120l120 60q-52 46 -104 82l130 142q94 -74 154 -134l178 88
l64 -124l-144 -70q232 -284 232 -628z" />
    <glyph glyph-name="ntilde" unicode="&#xf1;" horiz-adv-x="1214" 
d="M707 1036q169 0 270 -108t101 -308v-620h-254l-2 586q0 100 -48 151t-136 51q-120 0 -228 -148v-640h-254v1010h254v-144q128 170 297 170zM527 1242q-29 0 -48 -24t-19 -60h-162q0 112 66 177t155 65t159 -46t96 -46q68 0 68 84h162q0 -112 -66 -177t-155 -65t-158 46
t-98 46z" />
    <glyph glyph-name="ograve" unicode="&#xf2;" horiz-adv-x="1252" 
d="M626 790q-114 0 -192 -78t-78 -210t78 -209t192 -77t193 77t79 209t-79 210t-193 78zM626 1036q222 0 382 -155t160 -378t-160 -378t-382 -155t-381 155t-159 378t159 378t381 155zM626 1280l-12 -134l-214 150l12 134z" />
    <glyph glyph-name="oacute" unicode="&#xf3;" horiz-adv-x="1252" 
d="M626 790q-114 0 -192 -78t-78 -210t78 -209t192 -77t193 77t79 209t-79 210t-193 78zM626 1036q222 0 382 -155t160 -378t-160 -378t-382 -155t-381 155t-159 378t159 378t381 155zM694 1146h-204l210 284h268z" />
    <glyph glyph-name="ocircumflex" unicode="&#xf4;" horiz-adv-x="1252" 
d="M626 790q-114 0 -192 -78t-78 -210t78 -209t192 -77t193 77t79 209t-79 210t-193 78zM626 1036q222 0 382 -155t160 -378t-160 -378t-382 -155t-381 155t-159 378t159 378t381 155zM960 1142h-214l-120 136l-120 -136h-214l260 288h148z" />
    <glyph glyph-name="otilde" unicode="&#xf5;" horiz-adv-x="1252" 
d="M626 790q-114 0 -192 -78t-78 -210t78 -209t192 -77t193 77t79 209t-79 210t-193 78zM626 1036q222 0 382 -155t160 -378t-160 -378t-382 -155t-381 155t-159 378t159 378t381 155zM830 1390h162q0 -112 -66 -177t-155 -65t-158 46t-98 46t-48 -24t-19 -60h-162
q0 112 66 177t155 65t159 -46t96 -46q68 0 68 84z" />
    <glyph glyph-name="odieresis" unicode="&#xf6;" horiz-adv-x="1252" 
d="M626 790q-114 0 -192 -78t-78 -210t78 -209t192 -77t193 77t79 209t-79 210t-193 78zM626 1036q222 0 382 -155t160 -378t-160 -378t-382 -155t-381 155t-159 378t159 378t381 155zM838 1444q58 0 99 -41t41 -98t-41 -98t-98 -41t-98 41t-41 99t40 98t98 40zM418 1444
q58 0 99 -41t41 -98t-41 -98t-98 -41t-98 41t-41 99t40 98t98 40z" />
    <glyph glyph-name="divide" unicode="&#xf7;" horiz-adv-x="1102" 
d="M551 388q61 0 105 -43t44 -104t-44 -105t-105 -44t-104 44t-43 105t43 104t104 43zM942 506h-782v240h782v-240zM551 1156q61 0 105 -43t44 -104t-44 -105t-105 -44t-104 44t-43 105t43 104t104 43z" />
    <glyph glyph-name="oslash" unicode="&#xf8;" horiz-adv-x="1212" 
d="M626 216q114 0 193 77t79 209q0 84 -36 152l-376 -402q64 -36 140 -36zM356 502q0 -74 26 -132l366 392q-56 28 -122 28q-114 0 -192 -78t-78 -210zM1168 488q0 -208 -160 -363t-382 -155q-172 0 -312 98l-102 -108l-118 100l106 114q-114 142 -114 328q0 224 159 379
t381 155q160 0 296 -88l84 90l124 -100l-88 -94q126 -148 126 -356z" />
    <glyph glyph-name="ugrave" unicode="&#xf9;" horiz-adv-x="1182" 
d="M1048 1010v-602q0 -198 -128 -316t-328 -118t-328 118t-128 316v602h256l2 -556q0 -114 53 -174t145 -60t145 60t53 174v556h258zM604 1280l-12 -134l-214 150l12 134z" />
    <glyph glyph-name="uacute" unicode="&#xfa;" horiz-adv-x="1182" 
d="M1048 1010v-602q0 -198 -128 -316t-328 -118t-328 118t-128 316v602h256l2 -556q0 -114 53 -174t145 -60t145 60t53 174v556h258zM672 1146h-204l210 284h268z" />
    <glyph glyph-name="ucircumflex" unicode="&#xfb;" horiz-adv-x="1182" 
d="M1048 1010v-602q0 -198 -128 -316t-328 -118t-328 118t-128 316v602h256l2 -556q0 -114 53 -174t145 -60t145 60t53 174v556h258zM938 1142h-214l-120 136l-120 -136h-214l260 288h148z" />
    <glyph glyph-name="udieresis" unicode="&#xfc;" horiz-adv-x="1182" 
d="M1048 1010v-602q0 -198 -128 -316t-328 -118t-328 118t-128 316v602h256l2 -556q0 -114 53 -174t145 -60t145 60t53 174v556h258zM817 1444q57 0 98 -41t41 -98t-42 -98t-98 -41t-97 41t-41 99t41 98t98 40zM397 1444q57 0 98 -41t41 -98t-42 -98t-98 -41t-97 41t-41 99
t41 98t98 40z" />
    <glyph glyph-name="yacute" unicode="&#xfd;" horiz-adv-x="1194" 
d="M1174 1010l-734 -1490h-288l304 554l-436 936h296l288 -644l280 644h290zM660 1146h-204l210 284h268z" />
    <glyph glyph-name="thorn" unicode="&#xfe;" horiz-adv-x="1272" 
d="M673 780q-109 0 -187 -78t-76 -208v-146q118 -124 243 -124t197 85t72 202t-70 193t-179 76zM410 1440v-600q48 88 132 142t192 54q190 0 321 -140t131 -385t-134 -391t-336 -146q-82 0 -165 38t-141 102v-564h-254v1890h254z" />
    <glyph glyph-name="ydieresis" unicode="&#xff;" horiz-adv-x="1194" 
d="M1174 1010l-734 -1490h-288l304 554l-436 936h296l288 -644l280 644h290zM803 1166q-57 0 -98 41t-41 99t40 98t98 40t99 -41t41 -98t-41 -98t-98 -41zM383 1166q-57 0 -98 41t-41 99t40 98t98 40t99 -41t41 -98t-41 -98t-98 -41z" />
    <glyph glyph-name="Amacron" unicode="&#x100;" horiz-adv-x="1426" 
d="M882 486l-168 410l-168 -410h336zM978 250h-530l-102 -250h-326l624 1350h138l624 -1350h-326zM1072 1568h-720v190h720v-190z" />
    <glyph glyph-name="amacron" unicode="&#x101;" horiz-adv-x="1272" 
d="M618 788q-124 0 -196 -86t-72 -203t70 -196t179 -79t187 81t76 213v144q-120 126 -244 126zM556 1036q82 0 165 -38t141 -102v114h254v-1010h-254v170q-48 -88 -133 -144t-191 -56q-190 0 -321 143t-131 387t134 390t336 146zM994 1238h-720v190h720v-190z" />
    <glyph glyph-name="Abreve" unicode="&#x102;" horiz-adv-x="1426" 
d="M882 486l-168 410l-168 -410h336zM978 250h-530l-102 -250h-326l624 1350h138l624 -1350h-326zM712 1460q-138 0 -229 82t-95 218h174q20 -124 150 -124q62 0 101 36t49 88h174q-4 -136 -95 -218t-229 -82z" />
    <glyph glyph-name="abreve" unicode="&#x103;" horiz-adv-x="1272" 
d="M618 788q-124 0 -196 -86t-72 -203t70 -196t179 -79t187 81t76 213v144q-120 126 -244 126zM556 1036q82 0 165 -38t141 -102v114h254v-1010h-254v170q-48 -88 -133 -144t-191 -56q-190 0 -321 143t-131 387t134 390t336 146zM634 1130q-138 0 -229 82t-95 218h174
q20 -124 150 -124q62 0 101 36t49 88h174q-4 -136 -95 -218t-229 -82z" />
    <glyph glyph-name="Aogonek" unicode="&#x104;" horiz-adv-x="1426" 
d="M882 486l-168 410l-168 -410h336zM1104 -168q0 -42 24 -66t71 -24t101 36v-182q-92 -46 -189 -46t-170 52t-73 145t68 159t154 94h-10l-102 250h-530l-102 -250h-326l624 1350h138l624 -1350h-96q-82 -26 -144 -76t-62 -92z" />
    <glyph glyph-name="aogonek" unicode="&#x105;" horiz-adv-x="1272" 
d="M599 224q109 0 187 81t76 213v144q-120 126 -244 126t-196 -86t-72 -203t70 -196t179 -79zM1116 0h-34q-82 -26 -144 -76t-62 -92t24 -66t71 -24t101 36v-182q-92 -46 -189 -46t-170 52t-73 146t68 159t154 93v170q-48 -88 -133 -144t-191 -56q-190 0 -321 143t-131 387
t134 390t336 146q82 0 165 -38t141 -102v114h254v-1010z" />
    <glyph glyph-name="Cacute" unicode="&#x106;" horiz-adv-x="1286" 
d="M798 1370q228 0 378 -130v-280q-68 50 -104 74t-110 49t-156 25q-182 0 -307 -126t-125 -312t125 -311t320 -125t377 142v-270q-152 -136 -398 -136q-294 0 -501 198t-207 502t207 502t501 198zM868 1476h-204l210 284h268z" />
    <glyph glyph-name="cacute" unicode="&#x107;" horiz-adv-x="984" 
d="M616 1036q168 0 298 -106v-234q-126 90 -259 90t-216 -82t-83 -205t80 -203t217 -80t261 88v-232q-120 -102 -298 -102q-224 0 -377 157t-153 374t153 376t377 159zM668 1146h-204l210 284h268z" />
    <glyph glyph-name="Ccaron" unicode="&#x10c;" horiz-adv-x="1286" 
d="M798 1370q228 0 378 -130v-280q-68 50 -104 74t-110 49t-156 25q-182 0 -307 -126t-125 -312t125 -311t320 -125t377 142v-270q-152 -136 -398 -136q-294 0 -501 198t-207 502t207 502t501 198zM680 1760l120 -136l120 136h214l-260 -288h-148l-260 288h214z" />
    <glyph glyph-name="ccaron" unicode="&#x10d;" horiz-adv-x="984" 
d="M616 1036q168 0 298 -106v-234q-126 90 -259 90t-216 -82t-83 -205t80 -203t217 -80t261 88v-232q-120 -102 -298 -102q-224 0 -377 157t-153 374t153 376t377 159zM480 1430l120 -136l120 136h214l-260 -288h-148l-260 288h214z" />
    <glyph glyph-name="Dcaron" unicode="&#x10e;" horiz-adv-x="1518" 
d="M478 1080v-822q110 -22 248 -22q202 0 310 119t108 313t-132 303t-336 109h-198zM200 1340h486q302 0 517 -169q103 -81 164 -208t61 -285q0 -304 -189 -504t-505 -200q-260 0 -534 54v1312zM578 1760l120 -136l120 136h214l-260 -288h-148l-260 288h214z" />
    <glyph glyph-name="dcaron" unicode="&#x10f;" horiz-adv-x="1486" 
d="M619 786q-125 0 -197 -85t-72 -202t70 -196t179 -79t187 81t76 213v144q-118 124 -243 124zM1460 1436l-60 -376h-188l20 376h228zM1116 0h-254v170q-48 -88 -133 -144t-191 -56q-190 0 -321 143t-131 387t134 390t336 146q82 0 165 -38t141 -102v544h254v-1440z" />
    <glyph glyph-name="Dcroat" unicode="&#x110;" horiz-adv-x="1518" 
d="M726 236q202 0 310 119t108 313t-132 303t-336 109h-198v-286h162v-240h-162v-296q110 -22 248 -22zM200 1340h486q302 0 517 -169q103 -81 164 -208t61 -285q0 -304 -189 -504t-505 -200q-260 0 -534 54v526h-162v240h162v546z" />
    <glyph glyph-name="dcroat" unicode="&#x111;" horiz-adv-x="1232" 
d="M599 224q109 0 187 81t76 213v144q-118 124 -243 124t-197 -85t-72 -202t70 -196t179 -79zM1226 1102h-110v-1102h-254v170q-48 -88 -133 -144t-191 -56q-190 0 -321 143t-131 387t134 390t336 146q82 0 165 -38t141 -102v206h-256v190h256v148h254v-148h110v-190z" />
    <glyph glyph-name="Emacron" unicode="&#x112;" horiz-adv-x="1308" 
d="M478 1100v-304h592v-226h-592v-324h670v-246h-948v1340h948v-240h-670zM1034 1568h-720v190h720v-190z" />
    <glyph glyph-name="emacron" unicode="&#x113;" 
d="M591 814q-93 0 -158 -59t-87 -161h484q-8 104 -77 162t-162 58zM1074 534v-106h-732q22 -104 102 -166t194 -62q166 0 308 92v-230q-122 -92 -333 -92t-369 149t-158 374t147 384t366 159t347 -139t128 -363zM968 1428v-190h-720v190h720z" />
    <glyph glyph-name="Edotaccent" unicode="&#x116;" horiz-adv-x="1308" 
d="M478 1100v-304h592v-226h-592v-324h670v-246h-948v1340h948v-240h-670zM675 1482q-57 0 -98 41t-41 99t40 98t98 40t99 -41t41 -98t-41 -98t-98 -41z" />
    <glyph glyph-name="edotaccent" unicode="&#x117;" 
d="M591 814q-93 0 -158 -59t-87 -161h484q-8 104 -77 162t-162 58zM1074 534v-106h-732q22 -104 102 -166t194 -62q166 0 308 92v-230q-122 -92 -333 -92t-369 149t-158 374t147 384t366 159t347 -139t128 -363zM608 1152q-56 0 -97 41t-41 98t41 98t98 41t98 -41t41 -97
t-42 -98t-98 -42z" />
    <glyph glyph-name="Eogonek" unicode="&#x118;" horiz-adv-x="1308" 
d="M942 -168q0 -42 24 -66t71 -24t101 36v-182q-92 -46 -189 -46t-170 52t-73 145t68 159t154 94h-728v1340h948v-240h-670v-304h592v-226h-592v-324h670v-244h6q-91 -30 -151.5 -79t-60.5 -91z" />
    <glyph glyph-name="eogonek" unicode="&#x119;" 
d="M591 814q-93 0 -158 -59t-87 -161h484q-8 104 -77 162t-162 58zM632 -167q0 -91 95 -91q47 0 101 36v-182q-92 -46 -189 -46t-170 52t-73 146q0 142 160 226q-202 24 -336 169t-134 360t147 374t366 159t347 -139t128 -363v-106h-732q22 -104 102 -166t194 -62
q166 0 308 92v-230q-52 -38 -118 -60h16q-84 -28 -148 -77t-64 -92z" />
    <glyph glyph-name="Ecaron" unicode="&#x11a;" horiz-adv-x="1308" 
d="M478 1100v-304h592v-226h-592v-324h670v-246h-948v1340h948v-240h-670zM600 1472l-260 288h214l120 -136l120 136h214l-260 -288h-148z" />
    <glyph glyph-name="ecaron" unicode="&#x11b;" 
d="M591 814q-93 0 -158 -59t-87 -161h484q-8 104 -77 162t-162 58zM1074 534v-106h-732q22 -104 102 -166t194 -62q166 0 308 92v-230q-122 -92 -333 -92t-369 149t-158 374t147 384t366 159t347 -139t128 -363zM682 1142h-148l-260 288h214l120 -136l120 136h214z" />
    <glyph glyph-name="Gcommaaccent" unicode="&#x122;" horiz-adv-x="1426" 
d="M336 -172v128q90 0 153 -52t63 -146t-63 -151t-134 -57t-123 36v136q46 -34 92 -34q92 0 92 72q0 32 -24 50t-56 18zM1322 712v-532q-88 -92 -228 -151t-296 -59q-294 0 -501 198t-207 502t207 502t501 198q228 0 378 -130v-280q-68 50 -104 74t-110 49t-156 25
q-182 0 -307 -126t-125 -312t125 -311t298 -125t265 88l2 190h-168v200h426z" />
    <glyph glyph-name="gcommaaccent" unicode="&#x123;" horiz-adv-x="1272" 
d="M619 786q-125 0 -197 -85t-72 -202t70 -195t179 -78t187 81t76 211v144q-118 124 -243 124zM556 1036q82 0 165 -38t141 -102v114h254v-984q0 -246 -164 -391t-388 -145t-408 108v240q2 0 39 -19t48 -23t46 -20q114 -52 249 -52q136 0 230 76t94 194v176
q-48 -88 -133 -144t-191 -56q-190 0 -321 143t-131 387t134 390t336 146zM702 1192v-128q-90 0 -154 52t-64 146t63 151t135 57t124 -36v-136q-46 34 -93 34t-70 -20t-23 -52t25 -50t57 -18z" />
    <glyph glyph-name="Imacron" unicode="&#x12a;" horiz-adv-x="1110" 
d="M920 1340v-250h-226v-840h226v-250h-730v250h226v840h-226v250h730zM920 1758v-190h-720v190h720z" />
    <glyph glyph-name="imacron" unicode="&#x12b;" horiz-adv-x="876" 
d="M618 1010v-1010h-254v794h-162v216h416zM780 1428v-190h-720v190h720z" />
    <glyph glyph-name="Iogonek" unicode="&#x12e;" horiz-adv-x="1110" 
d="M694 1090v-840h226v-250h-242q-82 -26 -144 -76t-62 -92t24 -66t71 -24t101 36v-182q-92 -46 -189 -46t-170 52t-73 145t68 159t154 94h-268v250h226v840h-226v250h730v-250h-226z" />
    <glyph glyph-name="iogonek" unicode="&#x12f;" horiz-adv-x="656" 
d="M504 1010v-1010h-22q-82 -26 -144 -76t-62 -92t24 -66t71 -24t101 36v-182q-92 -46 -189 -46t-170 52t-73 145t68 159t154 94h-12v794h-162v216h416zM362 1192q-72 0 -123 51t-51 121t51 121t123 51t124 -51t52 -121t-52 -121t-124 -51z" />
    <glyph glyph-name="IJ" unicode="&#x132;" horiz-adv-x="1808" 
d="M920 1340v-250h-226v-840h226v-250h-730v250h226v840h-226v250h730zM1620 1344v-1262q0 -458 -488 -592l-106 248q316 94 316 332v1274h278z" />
    <glyph glyph-name="ij" unicode="&#x133;" horiz-adv-x="1334" 
d="M1162 1010v-998q0 -392 -362 -522l-112 220q110 52 165 121t55 171v792h-162v216h416zM510 1010v-1010h-254v794h-162v216h416zM1017 1192q-71 0 -123 51t-52 121t51 121t123 51t125 -51t53 -120t-53 -121t-124 -52zM368 1536q72 0 124 -51t52 -121t-52 -121t-124 -51
t-123 51t-51 121t51 121t123 51z" />
    <glyph glyph-name="Kcommaaccent" unicode="&#x136;" horiz-adv-x="1430" 
d="M628 -172v128q90 0 153 -52t63 -146t-63 -151t-134 -57t-123 36v136q46 -34 92 -34q92 0 92 72q0 32 -24 50t-56 18zM478 0h-278v1340h278v-600l510 600h352l-524 -584l584 -756h-364l-412 544l-146 -164v-380z" />
    <glyph glyph-name="kcommaaccent" unicode="&#x137;" horiz-adv-x="1190" 
d="M536 -172v128q90 0 153 -52t63 -146t-63 -151t-134 -57t-123 36v136q46 -34 92 -34q92 0 92 72q0 32 -24 50t-56 18zM410 0h-254v1440h254v-880l412 450h318l-434 -436l474 -574h-330l-308 408l-132 -132v-276z" />
    <glyph glyph-name="Lacute" unicode="&#x139;" horiz-adv-x="1274" 
d="M478 250h670v-250h-948v1340h278v-1090zM488 1476h-204l210 284h268z" />
    <glyph glyph-name="lacute" unicode="&#x13a;" horiz-adv-x="564" 
d="M410 0h-254v1440h254v-1440zM402 1576h-204l210 284h268z" />
    <glyph glyph-name="Lcommaaccent" unicode="&#x13b;" horiz-adv-x="1274" 
d="M576 -172v128q90 0 153 -52t63 -146t-63 -151t-134 -57t-123 36v136q46 -34 92 -34q92 0 92 72q0 32 -24 50t-56 18zM478 250h670v-250h-948v1340h278v-1090z" />
    <glyph glyph-name="lcommaaccent" unicode="&#x13c;" horiz-adv-x="564" 
d="M212 -172v128q90 0 153 -52t63 -146t-63 -151t-134 -57t-123 36v136q46 -34 92 -34q92 0 92 72q0 32 -24 50t-56 18zM410 0h-254v1440h254v-1440z" />
    <glyph glyph-name="Lcaron" unicode="&#x13d;" horiz-adv-x="1180" 
d="M478 250h670v-250h-948v1340h278v-1090zM840 1436l-60 -376h-190l20 376h230z" />
    <glyph glyph-name="lcaron" unicode="&#x13e;" horiz-adv-x="794" 
d="M770 1436l-60 -376h-190l20 376h230zM410 0h-254v1440h254v-1440z" />
    <glyph glyph-name="Ldot" unicode="&#x13f;" horiz-adv-x="1188" 
d="M838 964q66 0 113 -47t47 -113t-47 -113t-113 -47t-113 47t-47 113t47 113t113 47zM478 250h670v-250h-948v1340h278v-1090z" />
    <glyph glyph-name="ldot" unicode="&#x140;" horiz-adv-x="830" 
d="M620 1036q66 0 113 -47t47 -113t-47 -113t-113 -47t-113 47t-47 113t47 113t113 47zM410 0h-254v1440h254v-1440z" />
    <glyph glyph-name="Lslash" unicode="&#x141;" horiz-adv-x="1234" 
d="M1148 250v-250h-948v530l-180 -124v232l180 124v578h278v-386l144 100v-232l-144 -100v-472h670z" />
    <glyph glyph-name="lslash" unicode="&#x142;" horiz-adv-x="642" 
d="M460 0h-254v534l-186 -128v232l186 128v674h254v-498l162 112v-232l-162 -112v-710z" />
    <glyph glyph-name="Nacute" unicode="&#x143;" horiz-adv-x="1572" 
d="M1372 -10h-102l-792 818v-808h-278v1350h102l792 -830v820h278v-1350zM852 1476h-204l210 284h268z" />
    <glyph glyph-name="nacute" unicode="&#x144;" horiz-adv-x="1214" 
d="M707 1036q169 0 270 -108t101 -308v-620h-254l-2 586q0 100 -48 151t-136 51q-120 0 -228 -148v-640h-254v1010h254v-144q128 170 297 170zM708 1150h-204l210 284h268z" />
    <glyph glyph-name="Ncommaaccent" unicode="&#x145;" horiz-adv-x="1572" 
d="M716 -172v128q90 0 153 -52t63 -146t-63 -151t-134 -57t-123 36v136q46 -34 92 -34q92 0 92 72q0 32 -24 50t-56 18zM1372 -10h-102l-792 818v-808h-278v1350h102l792 -830v820h278v-1350z" />
    <glyph glyph-name="ncommaaccent" unicode="&#x146;" horiz-adv-x="1214" 
d="M552 -172v128q90 0 153 -52t63 -146t-63 -151t-134 -57t-123 36v136q46 -34 92 -34q92 0 92 72q0 32 -24 50t-56 18zM707 1036q169 0 270 -108t101 -308v-620h-254l-2 586q0 100 -48 151t-136 51q-120 0 -228 -148v-640h-254v1010h254v-144q128 170 297 170z" />
    <glyph glyph-name="Ncaron" unicode="&#x147;" horiz-adv-x="1572" 
d="M1372 -10h-102l-792 818v-808h-278v1350h102l792 -830v820h278v-1350zM664 1760l120 -136l120 136h214l-260 -288h-148l-260 288h214z" />
    <glyph glyph-name="ncaron" unicode="&#x148;" horiz-adv-x="1214" 
d="M707 1036q169 0 270 -108t101 -308v-620h-254l-2 586q0 100 -48 151t-136 51q-120 0 -228 -148v-640h-254v1010h254v-144q128 170 297 170zM566 1146l-260 288h214l120 -136l120 136h214l-260 -288h-148z" />
    <glyph glyph-name="Eng" unicode="&#x14a;" horiz-adv-x="1538" 
d="M1314 1344v-1262q0 -458 -488 -592l-106 248q316 94 316 332v166l-552 562v-798h-284v1350h102l734 -744v738h278z" />
    <glyph glyph-name="eng" unicode="&#x14b;" horiz-adv-x="1218" 
d="M707 1036q169 0 270 -108t101 -308v-674q0 -154 -95 -274t-267 -182l-112 220q218 102 220 294l-2 582q0 100 -48 151t-136 51q-120 0 -228 -148v-640h-254v1010h254v-144q128 170 297 170z" />
    <glyph glyph-name="Omacron" unicode="&#x14c;" horiz-adv-x="1582" 
d="M792 1108q-180 0 -299 -125t-119 -313t119 -312t299 -124t298 124t118 312t-118 313t-298 125zM792 1370q294 0 497 -197t203 -503t-203 -503t-497 -197t-498 197t-204 503t204 503t498 197zM1152 1568h-720v190h720v-190z" />
    <glyph glyph-name="omacron" unicode="&#x14d;" horiz-adv-x="1252" 
d="M626 790q-114 0 -192 -78t-78 -210t78 -209t192 -77t193 77t79 209t-79 210t-193 78zM626 1036q222 0 382 -155t160 -378t-160 -378t-382 -155t-381 155t-159 378t159 378t381 155zM986 1238h-720v190h720v-190z" />
    <glyph glyph-name="Ohungarumlaut" unicode="&#x150;" horiz-adv-x="1582" 
d="M792 1108q-180 0 -299 -125t-119 -313t119 -312t299 -124t298 124t118 312t-118 313t-298 125zM792 1370q294 0 497 -197t203 -503t-203 -503t-497 -197t-498 197t-204 503t204 503t498 197zM1010 1476h-204l210 284h268zM654 1476h-204l210 284h268z" />
    <glyph glyph-name="ohungarumlaut" unicode="&#x151;" horiz-adv-x="1252" 
d="M626 790q-114 0 -192 -78t-78 -210t78 -209t192 -77t193 77t79 209t-79 210t-193 78zM626 1036q222 0 382 -155t160 -378t-160 -378t-382 -155t-381 155t-159 378t159 378t381 155zM844 1146h-204l210 284h268zM488 1146h-204l210 284h268z" />
    <glyph glyph-name="OE" unicode="&#x152;" horiz-adv-x="2076" 
d="M968 230v870h-172q-192 0 -317 -116t-125 -314t125 -319t317 -121h172zM1246 1100v-304h592v-226h-592v-324h670v-246h-1120q-292 0 -499 193t-207 477t207 477t499 193h1120v-240h-670z" />
    <glyph glyph-name="oe" unicode="&#x153;" horiz-adv-x="1986" 
d="M626 216q114 0 193 77t79 209t-79 210t-193 78t-192 -78t-78 -210t78 -209t192 -77zM1429 814q-93 0 -159 -59t-88 -161h486q-8 104 -77 162t-162 58zM1912 534v-106h-734q22 -104 102 -166t194 -62q170 0 308 92v-230q-118 -92 -318 -92q-260 0 -422 190
q-76 -88 -185 -139t-231 -51q-222 0 -381 155t-159 378t159 378t381 155q122 0 231 -51t185 -141q150 192 381 192t360 -139t129 -363z" />
    <glyph glyph-name="Racute" unicode="&#x154;" horiz-adv-x="1364" 
d="M478 1080v-338q112 -34 230 -34t188 49t70 140t-71 137t-187 46h-230zM478 0h-278v1340h544q206 0 356 -113t150 -321q0 -166 -117 -269t-291 -119l502 -518h-366l-500 550v-550zM696 1476h-204l210 284h268z" />
    <glyph glyph-name="racute" unicode="&#x155;" horiz-adv-x="854" 
d="M410 1010v-190q122 210 284 210q64 0 120 -28v-290q-72 50 -156 50q-142 0 -248 -198v-564h-254v1010h254zM542 1146h-204l210 284h268z" />
    <glyph glyph-name="Rcommaaccent" unicode="&#x156;" horiz-adv-x="1364" 
d="M656 -172v128q90 0 153 -52t63 -146t-63 -151t-134 -57t-123 36v136q46 -34 92 -34q92 0 92 72q0 32 -24 50t-56 18zM478 1080v-338q112 -34 230 -34t188 49t70 140t-71 137t-187 46h-230zM478 0h-278v1340h544q206 0 356 -113t150 -321q0 -166 -117 -269t-291 -119
l502 -518h-366l-500 550v-550z" />
    <glyph glyph-name="rcommaaccent" unicode="&#x157;" horiz-adv-x="854" 
d="M286 -172v128q90 0 153 -52t63 -146t-63 -151t-134 -57t-123 36v136q46 -34 92 -34q92 0 92 72q0 32 -24 50t-56 18zM694 1030q64 0 120 -28v-290q-72 50 -156 50q-142 0 -248 -198v-564h-254v1010h254v-190q122 210 284 210z" />
    <glyph glyph-name="Rcaron" unicode="&#x158;" horiz-adv-x="1364" 
d="M478 1080v-338q112 -34 230 -34t188 49t70 140t-71 137t-187 46h-230zM478 0h-278v1340h544q206 0 356 -113t150 -321q0 -166 -117 -269t-291 -119l502 -518h-366l-500 550v-550zM554 1472l-260 288h214l120 -136l120 136h214l-260 -288h-148z" />
    <glyph glyph-name="rcaron" unicode="&#x159;" horiz-adv-x="854" 
d="M694 1030q64 0 120 -28v-290q-72 50 -156 50q-142 0 -248 -198v-564h-254v1010h254v-190q122 210 284 210zM398 1142l-260 288h214l120 -136l120 136h214l-260 -288h-148z" />
    <glyph glyph-name="Sacute" unicode="&#x15a;" horiz-adv-x="1096" 
d="M575 1366q203 0 365 -106v-274q-192 120 -340 120q-88 0 -154 -37t-66 -109q0 -42 31 -74t63 -48t106 -46l164 -68q272 -116 272 -342q0 -176 -148 -292t-362 -116t-412 140v274q210 -152 420 -152q88 0 146 34t58 98q0 84 -156 140l-206 80q-266 102 -266 372
q0 178 141 292t344 114zM636 1476h-204l210 284h268z" />
    <glyph glyph-name="sacute" unicode="&#x15b;" horiz-adv-x="884" 
d="M482 1036q90 0 171 -26t127 -66v-224q-136 92 -260 92q-70 0 -113 -31t-43 -77q0 -70 116 -106l114 -38q230 -68 230 -266q0 -138 -114 -231t-278 -93q-96 0 -192 31t-152 71v222q60 -42 150 -73t160 -31q158 0 158 104q0 36 -30 58t-104 46l-124 44q-204 68 -204 274
q0 142 108 231t280 89zM802 1430l-274 -284h-204l210 284h268z" />
    <glyph glyph-name="Scedilla" unicode="&#x15e;" horiz-adv-x="1096" 
d="M1016 382q0 -158 -122 -269t-308 -135l-6 -94q80 6 133 -41t53 -130t-62 -138t-162 -55t-162 50l14 128q88 -46 130 -46q84 0 84 55t-68 55q-32 0 -66 -18l-40 24l22 208q-190 16 -362 138v274q210 -152 420 -152q88 0 146 34t58 98q0 84 -156 140l-206 80
q-266 102 -266 372q0 178 141 292t344 114t365 -106v-274q-192 120 -340 120q-88 0 -154 -37t-66 -109q0 -42 31 -74t63 -48t106 -46l164 -68q272 -116 272 -342z" />
    <glyph glyph-name="scedilla" unicode="&#x15f;" horiz-adv-x="884" 
d="M824 294q0 -128 -101 -219t-251 -103l-6 -88q80 6 133 -41t53 -130t-62 -138t-162 -55t-162 50l14 128q88 -46 130 -46q84 0 84 55t-68 55q-32 0 -66 -18l-40 24l24 208q-158 24 -256 96v222q60 -42 150 -73t160 -31q158 0 158 104q0 36 -30 58t-104 46l-124 44
q-204 68 -204 274q0 142 108 231t280 89q90 0 171 -26t127 -66v-224q-136 92 -260 92q-70 0 -113 -31t-43 -77q0 -70 116 -106l114 -38q230 -68 230 -266z" />
    <glyph glyph-name="Scaron" unicode="&#x160;" horiz-adv-x="1096" 
d="M575 1366q203 0 365 -106v-274q-192 120 -340 120q-88 0 -154 -37t-66 -109q0 -42 31 -74t63 -48t106 -46l164 -68q272 -116 272 -342q0 -176 -148 -292t-362 -116t-412 140v274q210 -152 420 -152q88 0 146 34t58 98q0 84 -156 140l-206 80q-266 102 -266 372
q0 178 141 292t344 114zM448 1760l120 -136l120 136h214l-260 -288h-148l-260 288h214z" />
    <glyph glyph-name="scaron" unicode="&#x161;" horiz-adv-x="884" 
d="M482 1036q90 0 171 -26t127 -66v-224q-136 92 -260 92q-70 0 -113 -31t-43 -77q0 -70 116 -106l114 -38q230 -68 230 -266q0 -138 -114 -231t-278 -93q-96 0 -192 31t-152 71v222q60 -42 150 -73t160 -31q158 0 158 104q0 36 -30 58t-104 46l-124 44q-204 68 -204 274
q0 142 108 231t280 89zM126 1430h214l120 -136l120 136h214l-260 -288h-148z" />
    <glyph glyph-name="Tcedilla" unicode="&#x162;" horiz-adv-x="1242" 
d="M858 -287q0 -83 -62 -138t-162 -55t-162 50l14 128q88 -46 130 -46q84 0 84 55t-68 55q-32 0 -66 -18l-40 24l26 236h128l-8 -120q80 6 133 -41t53 -130zM1188 1340v-250h-428v-1084h-276v1084h-428v250h1132z" />
    <glyph glyph-name="tcedilla" unicode="&#x163;" horiz-adv-x="916" 
d="M782 -287q0 -83 -62 -138t-162 -55t-162 50l14 128q88 -46 130 -46q84 0 84 55t-68 55q-32 0 -66 -18l-40 24l24 216q-96 28 -151 110t-55 202v502h-182v130q212 76 306 376h130v-294h280v-212h-280v-436q0 -146 124 -146q90 0 166 46v-202q-82 -82 -210 -90l-6 -86
q80 6 133 -41t53 -130z" />
    <glyph glyph-name="Tcaron" unicode="&#x164;" horiz-adv-x="1242" 
d="M1188 1090h-428v-1084h-276v1084h-428v250h1132v-250zM548 1472l-260 288h214l120 -136l120 136h214l-260 -288h-148z" />
    <glyph glyph-name="tcaron" unicode="&#x165;" horiz-adv-x="984" 
d="M522 1010h280v-212h-280v-436q0 -146 124 -146q90 0 166 46v-202q-90 -90 -232 -90t-227 88t-85 238v502h-182v130q212 76 306 376h130v-294zM880 1436l-60 -346h-190l20 346h230z" />
    <glyph glyph-name="Tbar" unicode="&#x166;" horiz-adv-x="1242" 
d="M1188 1090h-428v-1084h-276v1084h-428v250h1132v-250zM982 1568h-720v190h720v-190z" />
    <glyph glyph-name="tbar" unicode="&#x167;" horiz-adv-x="876" 
d="M646 216q90 0 166 46v-202q-90 -90 -232 -90t-227 88t-85 238v156h-200v160h200v186h-182v130q212 76 306 376h130v-294h280v-212h-280v-186h248v-160h-248v-90q0 -146 124 -146z" />
    <glyph glyph-name="Umacron" unicode="&#x16a;" horiz-adv-x="1518" 
d="M1338 1344v-814q0 -256 -164 -407t-414 -151t-415 151t-165 407v814h278v-798q0 -150 82 -229t221 -77t220 80t81 226v798h276zM1120 1568h-720v190h720v-190z" />
    <glyph glyph-name="umacron" unicode="&#x16b;" horiz-adv-x="1182" 
d="M1048 1010v-602q0 -198 -128 -316t-328 -118t-328 118t-128 316v602h256l2 -556q0 -114 53 -174t145 -60t145 60t53 174v556h258zM964 1238h-720v190h720v-190z" />
    <glyph glyph-name="Uring" unicode="&#x16e;" horiz-adv-x="1518" 
d="M1338 1344v-814q0 -256 -164 -407t-414 -151t-415 151t-165 407v814h278v-798q0 -150 82 -229t221 -77t220 80t81 226v798h276zM760 1692q-32 0 -56 -23t-24 -55t23 -55t56 -23t56 23t23 55t-23 55t-55 23zM761 1788q75 0 126 -51t51 -123t-51 -123t-126 -51t-128 51
t-53 123t53 123t128 51z" />
    <glyph glyph-name="uring" unicode="&#x16f;" horiz-adv-x="1182" 
d="M1048 1010v-602q0 -198 -128 -316t-328 -118t-328 118t-128 316v602h256l2 -556q0 -114 53 -174t145 -60t145 60t53 174v556h258zM604 1362q-32 0 -56 -23t-24 -55t23 -55t56 -23t56 23t23 55t-23 55t-55 23zM605 1458q75 0 126 -51t51 -123t-51 -123t-126 -51t-128 51
t-53 123t53 123t128 51z" />
    <glyph glyph-name="Uhungarumlaut" unicode="&#x170;" horiz-adv-x="1518" 
d="M1338 1344v-814q0 -256 -164 -407t-414 -151t-415 151t-165 407v814h278v-798q0 -150 82 -229t221 -77t220 80t81 226v798h276zM978 1476h-204l210 284h268zM622 1476h-204l210 284h268z" />
    <glyph glyph-name="uhungarumlaut" unicode="&#x171;" horiz-adv-x="1182" 
d="M1048 1010v-602q0 -198 -128 -316t-328 -118t-328 118t-128 316v602h256l2 -556q0 -114 53 -174t145 -60t145 60t53 174v556h258zM822 1146h-204l210 284h268zM466 1146h-204l210 284h268z" />
    <glyph glyph-name="Uogonek" unicode="&#x172;" horiz-adv-x="1518" 
d="M1338 1344v-814q0 -208 -111 -348t-293 -188q-78 -30 -133 -76t-55 -87t24 -65t71 -24t101 36v-182q-92 -46 -189 -46t-170 52t-73 137t48 144t118 93q-220 26 -358 174t-138 380v814h278v-798q0 -150 82 -229t221 -77t220 80t81 226v798h276z" />
    <glyph glyph-name="uogonek" unicode="&#x173;" horiz-adv-x="1182" 
d="M566 -167q0 -91 95 -91q47 0 101 36v-182q-92 -46 -189 -46t-170 52t-73 138t51 146t123 94q-166 26 -267 140t-101 288v602h256l2 -556q0 -114 53 -174t145 -60t145 60t53 174v556h258v-602q0 -150 -75 -256t-205 -150h10q-84 -28 -148 -77t-64 -92z" />
    <glyph glyph-name="Wcircumflex" unicode="&#x174;" horiz-adv-x="1918" 
d="M1446 0h-192l-298 862l-298 -862h-192l-446 1340h316l248 -846l282 846h186l278 -846l252 846h316zM1294 1472h-214l-120 136l-120 -136h-214l260 288h148z" />
    <glyph glyph-name="wcircumflex" unicode="&#x175;" horiz-adv-x="1580" 
d="M1210 0h-184l-236 654l-236 -654h-186l-348 1010h276l186 -598l218 598h182l216 -598l186 598h276zM1116 1142h-214l-120 136l-120 -136h-214l260 288h148z" />
    <glyph glyph-name="Ycircumflex" unicode="&#x176;" horiz-adv-x="1362" 
d="M824 0h-284v492l-520 848h326l334 -564l336 564h326l-518 -834v-506zM562 1472h-214l260 288h148l260 -288h-214l-120 136z" />
    <glyph glyph-name="ycircumflex" unicode="&#x177;" horiz-adv-x="1194" 
d="M1174 1010l-734 -1490h-288l304 554l-436 936h296l288 -644l280 644h290zM472 1142h-214l260 288h148l260 -288h-214l-120 136z" />
    <glyph glyph-name="Ydieresis" unicode="&#x178;" horiz-adv-x="1362" 
d="M824 0h-284v492l-520 848h326l334 -564l336 564h326l-518 -834v-506zM895 1496q-57 0 -98 41t-41 98t40 98t98 41t99 -41t41 -97t-41 -98t-98 -42zM475 1496q-57 0 -98 41t-41 98t40 98t98 41t99 -41t41 -97t-41 -98t-98 -42z" />
    <glyph glyph-name="Zacute" unicode="&#x179;" horiz-adv-x="1348" 
d="M1222 250v-250h-1094v72l644 1018h-644v250h1094v-72l-656 -1018h656zM744 1476h-204l210 284h268z" />
    <glyph glyph-name="zacute" unicode="&#x17a;" horiz-adv-x="1114" 
d="M1014 218v-218h-908v64l500 730h-470v216h858v-62l-522 -730h542zM628 1146h-204l210 284h268z" />
    <glyph glyph-name="Zdotaccent" unicode="&#x17b;" horiz-adv-x="1348" 
d="M1222 250v-250h-1094v72l644 1018h-644v250h1094v-72l-656 -1018h656zM677 1760q57 0 98 -41t41 -98t-42 -98t-98 -41t-97 41t-41 99t41 98t98 40z" />
    <glyph glyph-name="zdotaccent" unicode="&#x17c;" horiz-adv-x="1114" 
d="M1014 218v-218h-908v64l500 730h-470v216h858v-62l-522 -730h542zM561 1430q57 0 98 -41t41 -97t-42 -98t-98 -42t-97 41t-41 98t41 98t98 41z" />
    <glyph glyph-name="Zcaron" unicode="&#x17d;" horiz-adv-x="1348" 
d="M1222 250v-250h-1094v72l644 1018h-644v250h1094v-72l-656 -1018h656zM556 1760l120 -136l120 136h214l-260 -288h-148l-260 288h214z" />
    <glyph glyph-name="zcaron" unicode="&#x17e;" horiz-adv-x="1114" 
d="M1014 218v-218h-908v64l500 730h-470v216h858v-62l-522 -730h542zM440 1430l120 -136l120 136h214l-260 -288h-148l-260 288h214z" />
    <glyph glyph-name="circumflex" unicode="&#x2c6;" horiz-adv-x="988" 
d="M828 1142h-214l-120 136l-120 -136h-214l260 288h148z" />
    <glyph glyph-name="caron" unicode="&#x2c7;" horiz-adv-x="948" 
d="M354 1430l120 -136l120 136h214l-260 -288h-148l-260 288h214z" />
    <glyph glyph-name="breve" unicode="&#x2d8;" horiz-adv-x="968" 
d="M484 1130q-138 0 -229 82t-95 218h174q20 -124 150 -124q62 0 101 36t49 88h174q-4 -136 -95 -218t-229 -82z" />
    <glyph glyph-name="dotaccent" unicode="&#x2d9;" horiz-adv-x="612" 
d="M306 1430q58 0 99 -41t41 -97t-41 -98t-98 -42t-98 41t-41 98t40 98t98 41z" />
    <glyph glyph-name="ring" unicode="&#x2da;" horiz-adv-x="666" 
d="M334 1362q-32 0 -56 -23t-24 -55t23 -55t56 -23t56 23t23 55t-23 55t-55 23zM335 1458q75 0 126 -51t51 -123t-51 -123t-126 -51t-128 51t-53 123t53 123t128 51z" />
    <glyph glyph-name="ogonek" unicode="&#x2db;" horiz-adv-x="1200" 
d="M552 -167q0 -91 95 -91q47 0 101 36v-182q-92 -46 -189 -46t-170 52t-73 147t71 161t157 92h220q-84 -28 -148 -77t-64 -92z" />
    <glyph glyph-name="tilde" unicode="&#x2dc;" horiz-adv-x="920" 
d="M664 1406h162q0 -112 -66 -177t-155 -65t-158 46t-98 46t-48 -24t-19 -60h-162q0 112 66 177t155 65t159 -46t96 -46q68 0 68 84z" />
    <glyph glyph-name="hungarumlaut" unicode="&#x2dd;" horiz-adv-x="1024" 
d="M680 1146h-204l210 284h268zM324 1146h-204l210 284h268z" />
    <glyph glyph-name="uni0326" unicode="&#x326;" horiz-adv-x="0" 
d="M234 -172v128q90 0 153 -52t63 -146t-63 -151t-134 -57t-123 36v136q46 -34 92 -34q92 0 92 72q0 32 -24 50t-56 18z" />
    <glyph glyph-name="Wgrave" unicode="&#x1e80;" horiz-adv-x="1918" 
d="M1446 0h-192l-298 862l-298 -862h-192l-446 1340h316l248 -846l282 846h186l278 -846l252 846h316zM960 1610l-12 -134l-214 150l12 134z" />
    <glyph glyph-name="wgrave" unicode="&#x1e81;" horiz-adv-x="1580" 
d="M1210 0h-184l-236 654l-236 -654h-186l-348 1010h276l186 -598l218 598h182l216 -598l186 598h276zM782 1280l-12 -134l-214 150l12 134z" />
    <glyph glyph-name="Wacute" unicode="&#x1e82;" horiz-adv-x="1918" 
d="M1446 0h-192l-298 862l-298 -862h-192l-446 1340h316l248 -846l282 846h186l278 -846l252 846h316zM1028 1476h-204l210 284h268z" />
    <glyph glyph-name="wacute" unicode="&#x1e83;" horiz-adv-x="1580" 
d="M1210 0h-184l-236 654l-236 -654h-186l-348 1010h276l186 -598l218 598h182l216 -598l186 598h276zM850 1146h-204l210 284h268z" />
    <glyph glyph-name="Wdieresis" unicode="&#x1e84;" horiz-adv-x="1918" 
d="M1446 0h-192l-298 862l-298 -862h-192l-446 1340h316l248 -846l282 846h186l278 -846l252 846h316zM1170 1774q58 0 99 -41t41 -97t-41 -98t-98 -42t-98 41t-41 98t40 98t98 41zM750 1774q58 0 99 -41t41 -97t-41 -98t-98 -42t-98 41t-41 98t40 98t98 41z" />
    <glyph glyph-name="wdieresis" unicode="&#x1e85;" horiz-adv-x="1580" 
d="M1210 0h-184l-236 654l-236 -654h-186l-348 1010h276l186 -598l218 598h182l216 -598l186 598h276zM994 1444q58 0 99 -41t41 -98t-41 -98t-98 -41t-98 41t-41 99t40 98t98 40zM574 1444q58 0 99 -41t41 -98t-41 -98t-98 -41t-98 41t-41 99t40 98t98 40z" />
    <glyph glyph-name="Ygrave" unicode="&#x1ef2;" horiz-adv-x="1362" 
d="M824 0h-284v492l-520 848h326l334 -564l336 564h326l-518 -834v-506zM670 1476l-214 150l12 134l214 -150z" />
    <glyph glyph-name="ygrave" unicode="&#x1ef3;" horiz-adv-x="1194" 
d="M1174 1010l-734 -1490h-288l304 554l-436 936h296l288 -644l280 644h290zM580 1146l-214 150l12 134l214 -150z" />
    <glyph glyph-name="endash" unicode="&#x2013;" horiz-adv-x="1210" 
d="M1100 396h-980v240h980v-240z" />
    <glyph glyph-name="emdash" unicode="&#x2014;" horiz-adv-x="1776" 
d="M1656 396h-1536v240h1536v-240z" />
    <glyph glyph-name="quoteleft" unicode="&#x2018;" horiz-adv-x="524" 
d="M484 1344l-180 -518l-224 56l220 494z" />
    <glyph glyph-name="quoteright" unicode="&#x2019;" horiz-adv-x="504" 
d="M454 1320l-220 -494l-184 32l180 518z" />
    <glyph glyph-name="quotesinglbase" unicode="&#x201a;" horiz-adv-x="692" 
d="M494 174l-200 -504l-184 32l160 528z" />
    <glyph glyph-name="quotedblleft" unicode="&#x201c;" horiz-adv-x="944" 
d="M884 1380l-180 -518l-224 56l220 494zM484 1380l-180 -518l-224 56l220 494z" />
    <glyph glyph-name="quotedblright" unicode="&#x201d;" horiz-adv-x="904" 
d="M450 884l180 518l224 -56l-220 -494zM50 884l180 518l224 -56l-220 -494z" />
    <glyph glyph-name="quotedblbase" unicode="&#x201e;" horiz-adv-x="652" 
d="M474 174l-200 -504l-184 32l160 528z" />
    <glyph glyph-name="dagger" unicode="&#x2020;" horiz-adv-x="906" 
d="M826 820h-246v-1020h-254v1020h-246v220h246v300h254v-300h246v-220z" />
    <glyph glyph-name="daggerdbl" unicode="&#x2021;" horiz-adv-x="1200" 
d="M580 820v-310h246v-220h-246v-490h-254v490h-246v220h246v310h-246v220h246v300h254v-300h246v-220h-246z" />
    <glyph glyph-name="bullet" unicode="&#x2022;" horiz-adv-x="902" 
d="M450 898q120 0 206 -85t86 -205t-86 -206t-206 -86t-205 86t-85 206t85 205t205 85z" />
    <glyph glyph-name="ellipsis" unicode="&#x2026;" horiz-adv-x="1640" 
d="M1360 284q66 0 113 -47t47 -113t-47 -114t-113 -48t-113 48t-47 114t47 113t113 47zM820 284q66 0 113 -47t47 -113t-47 -114t-113 -48t-113 48t-47 114t47 113t113 47zM280 284q66 0 113 -47t47 -113t-47 -114t-113 -48t-113 48t-47 114t47 113t113 47z" />
    <glyph glyph-name="Euro" unicode="&#x20ac;" horiz-adv-x="1244" 
d="M872 1108q-114 0 -200 -65t-128 -175h418v-160h-450l-2 -38q0 -36 2 -52h450v-160h-412q42 -104 126 -164t196 -60q152 0 272 102v-266q-128 -100 -300 -100q-212 0 -374 133t-218 355h-162v160h138l-2 52v38h-136v160h158q54 228 217 365t379 137q84 0 173 -33t137 -81
v-276q-136 128 -282 128z" />
    <glyph glyph-name="trademark" unicode="&#x2122;" horiz-adv-x="1062" 
d="M982 1340v-406h-126v168l-74 -100h-36l-82 100v-168h-126v406h74l152 -204l146 204h72zM80 1342h400v-104h-138v-304h-124v304h-138v104z" />
    <glyph glyph-name="minus" unicode="&#x2212;" horiz-adv-x="1082" 
d="M922 506h-762v240h762v-240z" />
    <glyph glyph-name="approxequal" unicode="&#x2248;" horiz-adv-x="1138" 
d="M814 578h204q0 -136 -79 -223t-203 -87q-76 0 -135 31t-104 62t-85 31t-64 -32t-24 -80h-204q0 136 79 223t203 87q76 0 135 -31t104 -62t86 -31t64 32t23 80zM814 1008h204q0 -136 -79 -223t-203 -87q-76 0 -135 31t-104 62t-85 31t-64 -32t-24 -80h-204q0 136 79 223
t203 87q76 0 135 -31t104 -62t86 -31t64 32t23 80z" />
    <glyph glyph-name="notequal" unicode="&#x2260;" horiz-adv-x="1102" 
d="M942 542v-240h-458l-90 -178h-186l90 178h-138v240h258l80 160h-338v240h458l58 118h192l-60 -118h134v-240h-256l-80 -160h336z" />
    <glyph glyph-name="lessequal" unicode="&#x2264;" horiz-adv-x="1112" 
d="M952 204v-204h-792v204h792zM952 1018l-496 -256l496 -278v-222l-792 456v84l792 438v-222z" />
    <glyph glyph-name="greaterequal" unicode="&#x2265;" horiz-adv-x="1098" 
d="M952 0h-792v204h792v-204zM952 802v-84l-792 -456v222l496 278l-496 256v222z" />
    <glyph glyph-name="idotless" horiz-adv-x="670" 
d="M516 1010v-1010h-254v794h-162v216h416z" />
    </font>
</defs>
</svg>
